<svg xmlns="http://www.w3.org/2000/svg" xmlns:xlink="http://www.w3.org/1999/xlink" width="292" height="235.123" viewBox="0 0 292 235.123">
  <defs>
    <linearGradient id="linear-gradient" y1="0.5" x2="1" y2="0.5" gradientUnits="objectBoundingBox">
      <stop offset="0" stop-color="#b2b2b2"/>
      <stop offset="1" stop-color="#fff"/>
    </linearGradient>
    <linearGradient id="linear-gradient-2" x1="0.158" y1="0.9" x2="0.792" y2="0.151" xlink:href="#linear-gradient"/>
  </defs>
  <g id="グループ_393" data-name="グループ 393" transform="translate(-753 -2509)">
    <path id="パス_222" data-name="パス 222" d="M9.165,0l9.165,12.332H0Z" transform="translate(1042.331 2567.666) rotate(180)" fill="#a4b7be"/>
    <g id="グループ_375" data-name="グループ 375" transform="translate(9 1150)">
      <g id="グループ_379" data-name="グループ 379" transform="translate(724.621 956.35)">
        <g id="グループ_365" data-name="グループ 365" transform="translate(72.379 402.65)">
          <path id="パス_842" data-name="パス 842" d="M72.379,610.253l20.868,12.193,108.265-64.519-23.033-12.835Z" transform="translate(-72.379 -414.329)" fill="url(#linear-gradient)" style="mix-blend-mode: multiply;isolation: isolate"/>
          <g id="グループ_358" data-name="グループ 358" transform="translate(75.831)" style="isolation: isolate">
            <path id="パス_843" data-name="パス 843" d="M181.926,412.129l-15.408-9.479-.012.024-.038-.024h0l-11.484,23.3,5.423,3.151.411,121.315,15.458,8.984,12.26-7.079-.429-127.587,5.4-2.625Zm-15.43-9.455.007.005Z" transform="translate(-154.983 -402.65)" fill="#d2562a"/>
            <g id="グループ_357" data-name="グループ 357" transform="translate(15.458 9.48)">
              <path id="パス_844" data-name="パス 844" d="M183.306,412.977l-11.485,23.3,5.405-3.121.429,127.588,12.26-7.078-.429-127.588,5.405-3.121Z" transform="translate(-171.822 -412.977)" fill="#ed7f53"/>
            </g>
          </g>
          <g id="グループ_360" data-name="グループ 360" transform="translate(55.94 57.442)" style="isolation: isolate">
            <path id="パス_845" data-name="パス 845" d="M145.989,465.222l-12.673,7.317.309,97.678,15.458,8.983,12.673-7.317-.309-97.678Z" transform="translate(-133.316 -465.222)" fill="#d2562a"/>
            <g id="グループ_359" data-name="グループ 359" transform="translate(15.458 8.983)">
              <path id="パス_846" data-name="パス 846" d="M150.154,482.325,150.463,580l12.673-7.317-.309-97.679Z" transform="translate(-150.154 -475.008)" fill="#ed7f53"/>
            </g>
          </g>
          <g id="グループ_362" data-name="グループ 362" transform="translate(30.568 90.166)" style="isolation: isolate">
            <path id="パス_847" data-name="パス 847" d="M118.351,500.869l-12.673,7.317.258,79.632,15.458,8.983,12.673-7.317-.258-79.633Z" transform="translate(-105.677 -500.869)" fill="#d2562a"/>
            <g id="グループ_361" data-name="グループ 361" transform="translate(15.458 8.983)">
              <path id="パス_848" data-name="パス 848" d="M122.516,517.971l.257,79.633,12.673-7.317-.258-79.633Z" transform="translate(-122.516 -510.655)" fill="#ed7f53"/>
            </g>
          </g>
          <g id="グループ_364" data-name="グループ 364" transform="translate(5.215 127.118)" style="isolation: isolate">
            <path id="パス_849" data-name="パス 849" d="M90.733,541.121,78.06,548.438l.194,57.354,15.458,8.983,12.673-7.317-.194-57.355Z" transform="translate(-78.06 -541.121)" fill="#d2562a"/>
            <g id="グループ_363" data-name="グループ 363" transform="translate(15.458 8.983)">
              <path id="パス_850" data-name="パス 850" d="M94.9,558.224l.194,57.355,12.673-7.317-.194-57.354Z" transform="translate(-94.899 -550.907)" fill="#ed7f53"/>
            </g>
          </g>
        </g>
        <g id="グループ_368" data-name="グループ 368" transform="translate(154.83 495.843)">
          <path id="パス_851" data-name="パス 851" d="M221.729,645.3l5.185,3.825,26.148-12.1-5.195-3.686Z" transform="translate(-167.076 -514.757)" fill="url(#linear-gradient-2)" style="mix-blend-mode: multiply;isolation: isolate"/>
          <path id="パス_852" data-name="パス 852" d="M202.677,652.933l5.185,3.825,26.148-12.1-5.195-3.686Z" transform="translate(-165.514 -515.383)" fill="url(#linear-gradient-2)" style="mix-blend-mode: multiply;isolation: isolate"/>
          <path id="パス_853" data-name="パス 853" d="M199.458,649.573s-2.48-.007-5.946,0c-2.366.005-4.036,2.716-2.007,4.468l12.768,3.807s3.838,1.038,5.089-2.01l-.306-4.539Z" transform="translate(-164.523 -516.088)" fill="#133133"/>
          <path id="パス_854" data-name="パス 854" d="M231.685,556.142l-2.439,8.249s10.688-.444,10.653-4.2a102.188,102.188,0,0,0-4.72-28.847Z" transform="translate(-167.692 -506.395)" fill="#184556"/>
          <path id="パス_855" data-name="パス 855" d="M231.685,557.421l-2.439,8.249s6.383-.271,9.263-2.13a58.332,58.332,0,0,0-5.347-16.6Z" transform="translate(-167.692 -507.673)" fill="#1d1d1b" opacity="0.2"/>
          <path id="パス_856" data-name="パス 856" d="M220.761,642.122s-2.894-.377-5.741-.739c-1.944-.247-3.889,2.942-2.195,4.011l10.021,4.955s4.361,1.479,5.761-1.271l-.558-6.251Z" transform="translate(-166.293 -515.416)" fill="#133133"/>
          <path id="パス_857" data-name="パス 857" d="M229.242,569.236c-2.565,1.472-20.778,7.518-22.452,5.481l-5.83,40.057.162,28.358a3.122,3.122,0,0,0,2.6,3.074,9.131,9.131,0,0,0,6.25-.561l1.413-30.133,6.232-17.312.448,15.591.285,23.017c.077,1.459,1.595,2.257,3.038,2.48,3.917.6,5.681-1.285,5.681-1.285l.465-25.768s.352-6.133.947-13.764c.495-6.344,2.393-14.008,2.119-17.794C230.372,577.574,229.242,569.236,229.242,569.236Z" transform="translate(-165.373 -509.502)" fill="#80989d"/>
          <path id="パス_858" data-name="パス 858" d="M223.332,598.571c-1.987.891-3.164.871-4.229,2.036l.448,15.59.285,23.018c.077,1.459,1.595,2.257,3.038,2.48a9.312,9.312,0,0,0,1.638.1c-2.211-5-2.447-11.22-2.4-17.17C222.169,615.976,220.173,606.721,223.332,598.571Z" transform="translate(-166.86 -511.907)" fill="#1d1d1b" opacity="0.2"/>
          <path id="パス_859" data-name="パス 859" d="M229.242,569.236c-2.565,1.472-20.778,7.518-22.452,5.481l-5.83,40.057.162,28.358a3.122,3.122,0,0,0,.982,2.24c3.387-13.581,1.7-27.144,4.029-40.956,1.878-11.14,10.24-16.7,19.969-20.92a5.775,5.775,0,0,1,4.426-.139,17.479,17.479,0,0,0,.068-2.68C230.372,577.574,229.242,569.236,229.242,569.236Z" transform="translate(-165.373 -509.502)" fill="#1d1d1b" opacity="0.2"/>
          <path id="パス_860" data-name="パス 860" d="M233.586,532.687c-.823-4.485-4.224-4.979-4.224-4.979s-6.337-1.991-11.261-.31c-10.452,3.567-10.28,5.033-13.028,7-3.187,2.28.6,13.957.969,18.6.552,6.9-2.49,27.593-2.49,27.593a11.8,11.8,0,0,0,7.952,4.031,35.365,35.365,0,0,0,20.368-3.9s-1.1-14.448-.909-18.081S234.348,536.839,233.586,532.687Z" transform="translate(-165.585 -506.016)" fill="#184556"/>
          <path id="パス_861" data-name="パス 861" d="M210.219,566.338a101.8,101.8,0,0,0-4.473-31.223c-.054-.175-.065-.336-.1-.506-.179.142-.365.287-.572.434-3.187,2.28.6,13.957.969,18.6.552,6.9-2.49,27.593-2.49,27.593a11.8,11.8,0,0,0,7.952,4.031c.8.083,1.59.132,2.361.161C209.572,580.229,210.2,572.693,210.219,566.338Z" transform="translate(-165.585 -506.662)" fill="#1d1d1b" opacity="0.2"/>
          <g id="グループ_366" data-name="グループ 366" transform="translate(48.671)">
            <path id="パス_862" data-name="パス 862" d="M218.539,528.2c-.258,2.425,6.93,1.811,7.188-.615l.117-7.248-8.777.075Z" transform="translate(-215.364 -505.493)" fill="#f7b7a9"/>
            <path id="パス_863" data-name="パス 863" d="M217.781,526.236l-.358,2.523c-.258,2.425,8.673,1.438,8.932-.988l-.565-1.859A15.8,15.8,0,0,1,217.781,526.236Z" transform="translate(-215.393 -505.949)" fill="#fff"/>
            <path id="パス_864" data-name="パス 864" d="M225.895,525.813c-1.009,2.38-6.044,2.258-8.657.95l-1.834,1.868c1.42,2.557,7.577,3.139,10.345.73a2.15,2.15,0,0,0,.563-2.3Z" transform="translate(-215.228 -505.941)" fill="#133133"/>
            <path id="パス_865" data-name="パス 865" d="M215.507,518.093c-.626,3.708,1.669,5.758,5.185,6.351,0,0,6.853-.924,7.468-4.568l1.872-6.623-12.949-4.5Z" transform="translate(-215.228 -504.542)" fill="#f7b7a9"/>
            <path id="パス_866" data-name="パス 866" d="M220.9,504.3c-3.107.778-8.165,2.942-4.288,6.745,0,0,1.725.749,1.247,3.588s2.034,6.188,3.964,8.316c1.4,1.548,4.538-.1,4.538-.1s5.119-4.154,4.376-12.838C230.287,504.72,223.092,503.755,220.9,504.3Z" transform="translate(-215.212 -504.166)" fill="#81524f"/>
            <path id="パス_867" data-name="パス 867" d="M217.588,515.6l-.521,3.088c1.192.81,2.547-.773,2.615-2.405C219.775,514.074,217.588,515.6,217.588,515.6Z" transform="translate(-215.364 -505.062)" fill="#f7b7a9"/>
          </g>
          <g id="グループ_367" data-name="グループ 367" transform="translate(0 23.259)">
            <path id="パス_868" data-name="パス 868" d="M162.459,529.5s-.728.547.23,1.642l3.516,1.9a7.173,7.173,0,0,0-.67,3.905l1.827,2.335a1.231,1.231,0,0,0,.735-.82s3.194,1.385,4.09.822l3.844,1.423.018-4.657-4.841-2.582Z" transform="translate(-162.194 -529.503)" fill="#f7b7a9"/>
            <path id="パス_869" data-name="パス 869" d="M210.539,532.819a6.287,6.287,0,0,0-5.685.543c-1.279.714-4.39,3.291-11.918,7.626a4.446,4.446,0,0,1-3.917.014l-12.45-5.25a4.549,4.549,0,0,0-2.7,3.17c-.307,2.068.052,2.45.052,2.45l13.9,9.086a5.175,5.175,0,0,0,3.933.733c4.532-.976,14.531-4.156,18-5.19C214.986,544.442,215.448,534.943,210.539,532.819Z" transform="translate(-163.142 -529.739)" fill="#184556"/>
            <path id="パス_870" data-name="パス 870" d="M190.483,546.547c-1.853-.21-11.178-5.438-15.215-7.541a6.169,6.169,0,0,1-1.025-.671,3.344,3.344,0,0,0-.369,1.075c-.307,2.068.052,2.45.052,2.45l13.9,9.086a5.171,5.171,0,0,0,3.933.733c4.532-.976,14.531-4.156,18-5.19.143-.043.27-.114.407-.168A95.273,95.273,0,0,1,190.483,546.547Z" transform="translate(-163.142 -530.227)" fill="#1d1d1b" opacity="0.2"/>
          </g>
        </g>
      </g>
      <rect id="長方形_258" data-name="長方形 258" width="292" height="75" rx="37.5" transform="translate(744 1359)" fill="#0089cd"/>
      <text id="結果の出せる人間になるための_ノウハウがある" data-name="結果の出せる人間になるための
ノウハウがある" transform="translate(744 1379)" fill="#fff" font-size="14" font-family="HiraKakuPro-W6, Hiragino Kaku Gothic Pro"><tspan x="48" y="12">結果の出せる人間になるための</tspan><tspan x="97.42" y="36">ノウハウがある</tspan></text>
      <path id="パス_32" data-name="パス 32" d="M9.165,0l9.165,12.332H0Z" transform="translate(899.331 1444.666) rotate(180)" fill="#0089cd"/>
    </g>
  </g>
</svg>
