<svg xmlns="http://www.w3.org/2000/svg" xmlns:xlink="http://www.w3.org/1999/xlink" width="292" height="240.302" viewBox="0 0 292 240.302">
  <defs>
    <linearGradient id="linear-gradient" x1="0.619" y1="1.163" x2="0.418" y2="0.042" gradientUnits="objectBoundingBox">
      <stop offset="0" stop-color="#fff"/>
      <stop offset="1" stop-color="#aac4d8"/>
    </linearGradient>
  </defs>
  <g id="グループ_371" data-name="グループ 371" transform="translate(-744 -1359)">
    <rect id="長方形_258" data-name="長方形 258" width="292" height="75" rx="37.5" transform="translate(744 1359)" fill="#0089cd"/>
    <text id="お金をもらいながら_学べる研修制度" data-name="お金をもらいながら
学べる研修制度" transform="translate(744 1379)" fill="#fff" font-size="14" font-family="HiraKakuPro-W6, Hiragino Kaku Gothic Pro"><tspan x="83" y="12">お金をもらいながら</tspan><tspan x="97" y="36">学べる研修制度</tspan></text>
    <path id="パス_32" data-name="パス 32" d="M9.165,0l9.165,12.332H0Z" transform="translate(899.331 1444.666) rotate(180)" fill="#0089cd"/>
    <g id="グループ_319" data-name="グループ 319" transform="translate(533.524 1220.274)">
      <g id="グループ_301" data-name="グループ 301" transform="translate(373.779 238.066)">
        <g id="グループ_297" data-name="グループ 297" transform="translate(8.26 17.432)">
          <g id="グループ_295" data-name="グループ 295" transform="translate(5.187 34.21)">
            <g id="グループ_261" data-name="グループ 261" transform="translate(10.459 40.258)">
              <g id="グループ_257" data-name="グループ 257">
                <g id="グループ_256" data-name="グループ 256" style="isolation: isolate">
                  <path id="パス_560" data-name="パス 560" d="M371.423,307.377a3.993,3.993,0,0,0-1.815,3.137,1.278,1.278,0,0,0,.532,1.168l.77.448a1.277,1.277,0,0,1-.53-1.168,3.993,3.993,0,0,1,1.815-3.137,1.28,1.28,0,0,1,1.291-.127l-.771-.447A1.276,1.276,0,0,0,371.423,307.377Z" transform="translate(-369.608 -307.128)" fill="#002d42"/>
                  <g id="グループ_254" data-name="グループ 254" transform="translate(0.771 0.448)">
                    <path id="パス_561" data-name="パス 561" d="M372.005,307.716a3.993,3.993,0,0,0-1.815,3.137c0,1.156.82,1.62,1.826,1.04a3.99,3.99,0,0,0,1.809-3.138C373.824,307.6,373.007,307.136,372.005,307.716Z" transform="translate(-370.191 -307.467)" fill="#002d42"/>
                  </g>
                  <g id="グループ_255" data-name="グループ 255" transform="translate(0.771 2.698)">
                    <path id="パス_562" data-name="パス 562" d="M370.421,309.168a3.265,3.265,0,0,0-.23,1.136c0,1.156.82,1.62,1.826,1.04a3.591,3.591,0,0,0,1.167-1.176,24.1,24.1,0,0,1-2.694-.964C370.466,309.193,370.445,309.179,370.421,309.168Z" transform="translate(-370.191 -309.168)" fill="#002d42"/>
                  </g>
                </g>
              </g>
              <g id="グループ_260" data-name="グループ 260" transform="translate(1.505 0.443)">
                <g id="グループ_259" data-name="グループ 259" style="isolation: isolate">
                  <path id="パス_563" data-name="パス 563" d="M372.559,308.135a3.991,3.991,0,0,0-1.813,3.137,1.274,1.274,0,0,0,.53,1.168l.771.448a1.274,1.274,0,0,1-.53-1.168,3.991,3.991,0,0,1,1.813-3.137,1.279,1.279,0,0,1,1.292-.127l-1.643-.952C372.649,307.311,373.063,307.844,372.559,308.135Z" transform="translate(-370.746 -307.463)" fill="#002d42"/>
                  <g id="グループ_258" data-name="グループ 258" transform="translate(0.771 0.871)">
                    <path id="パス_564" data-name="パス 564" d="M373.142,308.371a3.991,3.991,0,0,0-1.813,3.137c0,1.156.819,1.62,1.825,1.039a3.993,3.993,0,0,0,1.811-3.138C374.961,308.257,374.145,307.791,373.142,308.371Z" transform="translate(-371.329 -308.122)" fill="#575756"/>
                  </g>
                </g>
              </g>
            </g>
            <g id="グループ_269" data-name="グループ 269" transform="translate(0 30.605)">
              <g id="グループ_265" data-name="グループ 265">
                <g id="グループ_264" data-name="グループ 264" style="isolation: isolate">
                  <path id="パス_565" data-name="パス 565" d="M363.513,300.078a3.988,3.988,0,0,0-1.813,3.137,1.274,1.274,0,0,0,.53,1.168l.77.448a1.28,1.28,0,0,1-.53-1.168,3.993,3.993,0,0,1,1.815-3.137,1.282,1.282,0,0,1,1.292-.127l-.771-.447A1.278,1.278,0,0,0,363.513,300.078Z" transform="translate(-361.7 -299.829)" fill="#002d42"/>
                  <g id="グループ_262" data-name="グループ 262" transform="translate(0.77 0.448)">
                    <path id="パス_566" data-name="パス 566" d="M364.1,300.417a3.993,3.993,0,0,0-1.815,3.137c0,1.156.82,1.62,1.826,1.04a3.987,3.987,0,0,0,1.809-3.138C365.915,300.3,365.1,299.837,364.1,300.417Z" transform="translate(-362.282 -300.168)" fill="#002d42"/>
                  </g>
                  <g id="グループ_263" data-name="グループ 263" transform="translate(0.77 2.698)">
                    <path id="パス_567" data-name="パス 567" d="M362.512,301.869a3.3,3.3,0,0,0-.23,1.136c0,1.156.82,1.62,1.826,1.04a3.591,3.591,0,0,0,1.167-1.176,24.2,24.2,0,0,1-2.694-.964C362.557,301.894,362.536,301.88,362.512,301.869Z" transform="translate(-362.282 -301.869)" fill="#002d42"/>
                  </g>
                </g>
              </g>
              <g id="グループ_268" data-name="グループ 268" transform="translate(1.504 0.442)">
                <g id="グループ_267" data-name="グループ 267" style="isolation: isolate">
                  <path id="パス_568" data-name="パス 568" d="M364.65,300.836a3.992,3.992,0,0,0-1.813,3.137,1.274,1.274,0,0,0,.53,1.168l.771.447a1.271,1.271,0,0,1-.53-1.167,3.992,3.992,0,0,1,1.813-3.137,1.279,1.279,0,0,1,1.292-.127l-1.643-.954C364.74,300.012,365.154,300.545,364.65,300.836Z" transform="translate(-362.837 -300.163)" fill="#002d42"/>
                  <g id="グループ_266" data-name="グループ 266" transform="translate(0.771 0.872)">
                    <path id="パス_569" data-name="パス 569" d="M365.233,301.072a3.992,3.992,0,0,0-1.813,3.137c0,1.156.82,1.62,1.825,1.04a3.993,3.993,0,0,0,1.811-3.138C367.052,300.958,366.236,300.492,365.233,301.072Z" transform="translate(-363.42 -300.823)" fill="#575756"/>
                  </g>
                </g>
              </g>
            </g>
            <g id="グループ_277" data-name="グループ 277" transform="translate(27.649 38.065)">
              <g id="グループ_273" data-name="グループ 273" transform="translate(1.504)">
                <g id="グループ_272" data-name="グループ 272" style="isolation: isolate">
                  <path id="パス_570" data-name="パス 570" d="M386.207,305.719a1.279,1.279,0,0,0-1.292-.126l-.771.447a1.283,1.283,0,0,1,1.292.127,4,4,0,0,1,1.813,3.137,1.274,1.274,0,0,1-.53,1.168l.771-.448a1.274,1.274,0,0,0,.53-1.168A3.992,3.992,0,0,0,386.207,305.719Z" transform="translate(-383.614 -305.47)" fill="#002d42"/>
                  <g id="グループ_270" data-name="グループ 270" transform="translate(0 0.448)">
                    <path id="パス_571" data-name="パス 571" d="M385.565,306.058c-1-.579-1.82-.114-1.822,1.038a3.988,3.988,0,0,0,1.811,3.138c1.005.581,1.821.116,1.825-1.04A4,4,0,0,0,385.565,306.058Z" transform="translate(-383.743 -305.809)" fill="#002d42"/>
                  </g>
                  <g id="グループ_271" data-name="グループ 271" transform="translate(0.644 2.698)">
                    <path id="パス_572" data-name="パス 572" d="M386.924,307.546a24.3,24.3,0,0,1-2.694.964,3.578,3.578,0,0,0,1.167,1.176c1.005.581,1.821.116,1.825-1.04a3.267,3.267,0,0,0-.23-1.136C386.969,307.521,386.948,307.535,386.924,307.546Z" transform="translate(-384.23 -307.51)" fill="#002d42"/>
                  </g>
                </g>
              </g>
              <g id="グループ_276" data-name="グループ 276" transform="translate(0 0.443)">
                <g id="グループ_275" data-name="グループ 275" style="isolation: isolate">
                  <path id="パス_573" data-name="パス 573" d="M385.069,306.477c-.5-.291-.09-.824-.421-.631l-1.643.952a1.279,1.279,0,0,1,1.292.127,3.993,3.993,0,0,1,1.815,3.137,1.28,1.28,0,0,1-.53,1.168l.77-.448a1.275,1.275,0,0,0,.53-1.168A3.988,3.988,0,0,0,385.069,306.477Z" transform="translate(-382.477 -305.805)" fill="#002d42"/>
                  <g id="グループ_274" data-name="グループ 274" transform="translate(0 0.871)">
                    <path id="パス_574" data-name="パス 574" d="M384.427,306.713c-1-.579-1.818-.114-1.821,1.038a3.989,3.989,0,0,0,1.809,3.138c1.006.581,1.822.116,1.826-1.04A3.993,3.993,0,0,0,384.427,306.713Z" transform="translate(-382.606 -306.464)" fill="#575756"/>
                  </g>
                </g>
              </g>
            </g>
            <g id="グループ_285" data-name="グループ 285" transform="translate(32.843 27.908)">
              <g id="グループ_281" data-name="グループ 281" transform="translate(1.504)">
                <g id="グループ_280" data-name="グループ 280" style="isolation: isolate">
                  <path id="パス_575" data-name="パス 575" d="M390.134,298.039a1.283,1.283,0,0,0-1.292-.127l-.771.448a1.279,1.279,0,0,1,1.292.127,3.988,3.988,0,0,1,1.813,3.137,1.271,1.271,0,0,1-.53,1.167l.771-.447a1.275,1.275,0,0,0,.53-1.168A3.988,3.988,0,0,0,390.134,298.039Z" transform="translate(-387.541 -297.79)" fill="#002d42"/>
                  <g id="グループ_278" data-name="グループ 278" transform="translate(0 0.448)">
                    <path id="パス_576" data-name="パス 576" d="M389.492,298.378c-1-.579-1.818-.114-1.822,1.038a3.992,3.992,0,0,0,1.811,3.138c1.006.581,1.822.116,1.825-1.04A3.988,3.988,0,0,0,389.492,298.378Z" transform="translate(-387.67 -298.129)" fill="#002d42"/>
                  </g>
                  <g id="グループ_279" data-name="グループ 279" transform="translate(0.644 2.697)">
                    <path id="パス_577" data-name="パス 577" d="M390.851,299.866a24.193,24.193,0,0,1-2.694.964,3.59,3.59,0,0,0,1.166,1.176c1.005.581,1.822.116,1.825-1.04a3.276,3.276,0,0,0-.229-1.137C390.9,299.841,390.875,299.855,390.851,299.866Z" transform="translate(-388.157 -299.829)" fill="#002d42"/>
                  </g>
                </g>
              </g>
              <g id="グループ_284" data-name="グループ 284" transform="translate(0 0.443)">
                <g id="グループ_283" data-name="グループ 283" style="isolation: isolate">
                  <path id="パス_578" data-name="パス 578" d="M389,298.8c-.505-.292-.091-.824-.421-.632l-1.643.954a1.282,1.282,0,0,1,1.292.126,4,4,0,0,1,1.813,3.138,1.271,1.271,0,0,1-.53,1.167l.771-.447a1.274,1.274,0,0,0,.53-1.168A3.991,3.991,0,0,0,389,298.8Z" transform="translate(-386.404 -298.124)" fill="#002d42"/>
                  <g id="グループ_282" data-name="グループ 282" transform="translate(0 0.872)">
                    <path id="パス_579" data-name="パス 579" d="M388.355,299.032c-1-.578-1.818-.112-1.822,1.038a4,4,0,0,0,1.811,3.14c1.005.581,1.822.115,1.825-1.04A3.994,3.994,0,0,0,388.355,299.032Z" transform="translate(-386.533 -298.783)" fill="#575756"/>
                  </g>
                </g>
              </g>
            </g>
            <g id="グループ_293" data-name="グループ 293" transform="translate(14.797 21.758)">
              <g id="グループ_289" data-name="グループ 289" transform="translate(1.504)">
                <g id="グループ_288" data-name="グループ 288" style="isolation: isolate">
                  <path id="パス_580" data-name="パス 580" d="M376.489,293.389a1.282,1.282,0,0,0-1.292-.127l-.771.448a1.279,1.279,0,0,1,1.292.127,3.992,3.992,0,0,1,1.813,3.137,1.274,1.274,0,0,1-.53,1.168l.771-.448a1.275,1.275,0,0,0,.53-1.168A3.992,3.992,0,0,0,376.489,293.389Z" transform="translate(-373.896 -293.14)" fill="#002d42"/>
                  <g id="グループ_286" data-name="グループ 286" transform="translate(0 0.448)">
                    <path id="パス_581" data-name="パス 581" d="M375.847,293.728c-1-.579-1.819-.114-1.823,1.038a3.994,3.994,0,0,0,1.811,3.138c1.005.581,1.822.116,1.825-1.04A3.992,3.992,0,0,0,375.847,293.728Z" transform="translate(-374.025 -293.479)" fill="#002d42"/>
                  </g>
                  <g id="グループ_287" data-name="グループ 287" transform="translate(0.644 2.697)">
                    <path id="パス_582" data-name="パス 582" d="M377.206,295.216a24.2,24.2,0,0,1-2.694.964,3.591,3.591,0,0,0,1.167,1.176c1.005.581,1.822.116,1.825-1.04a3.279,3.279,0,0,0-.23-1.137C377.251,295.191,377.23,295.205,377.206,295.216Z" transform="translate(-374.512 -295.179)" fill="#002d42"/>
                  </g>
                </g>
              </g>
              <g id="グループ_292" data-name="グループ 292" transform="translate(0 0.443)">
                <g id="グループ_291" data-name="グループ 291" style="isolation: isolate">
                  <path id="パス_583" data-name="パス 583" d="M375.352,294.147c-.505-.292-.091-.824-.421-.632l-1.643.954a1.282,1.282,0,0,1,1.292.126,4,4,0,0,1,1.813,3.138,1.27,1.27,0,0,1-.53,1.166l.771-.447a1.275,1.275,0,0,0,.53-1.168A4,4,0,0,0,375.352,294.147Z" transform="translate(-372.759 -293.474)" fill="#002d42"/>
                  <g id="グループ_290" data-name="グループ 290" transform="translate(0 0.872)">
                    <path id="パス_584" data-name="パス 584" d="M374.71,294.382c-1-.578-1.82-.112-1.822,1.038a3.99,3.99,0,0,0,1.811,3.14c1.005.581,1.821.115,1.825-1.04A4,4,0,0,0,374.71,294.382Z" transform="translate(-372.888 -294.133)" fill="#575756"/>
                  </g>
                </g>
              </g>
            </g>
            <g id="グループ_294" data-name="グループ 294" transform="translate(1.621 22.334)">
              <path id="パス_585" data-name="パス 585" d="M374.357,294.851l.847,5.331,2.76-.491-3.607-6.017Z" transform="translate(-359.239 -293.543)" fill="#002d42"/>
              <path id="パス_586" data-name="パス 586" d="M370.924,310.962a3.486,3.486,0,0,0,1.475.6l7.259-9.735.018-2.665-8.753,10.885Z" transform="translate(-360.346 -291.772)" fill="#002d42"/>
              <path id="パス_587" data-name="パス 587" d="M377.587,302.035l10.038,8a3.79,3.79,0,0,0,1.55-.661v-.911l-11.89-9.807Z" transform="translate(-358.295 -291.937)" fill="#002d42"/>
              <path id="パス_588" data-name="パス 588" d="M374.607,301.154l20.315-1.89v-.832l-16.383.126Z" transform="translate(-359.158 -292.008)" fill="#002d42"/>
              <path id="パス_589" data-name="パス 589" d="M362.926,301.972l16.028-1.058,1.26-1.89-17.288,2.251Z" transform="translate(-362.926 -291.818)" fill="#002d42"/>
              <path id="パス_590" data-name="パス 590" d="M396.925,298.738l-13.9.251-3.234-5.414q-.875.044-1.744.131l1.641,5.588L363.5,301.915a4.982,4.982,0,0,0-.578,1.116l16.224-1.807L373.5,311.854a3.925,3.925,0,0,0,1.292.647l7.351-10.393,10.119,8.632c.54-.213,1.063-.44,1.567-.688l-9.3-9.324L398.69,300C398.479,299.692,397.2,299.034,396.925,298.738Z" transform="translate(-362.926 -293.575)" fill="#002d42"/>
            </g>
            <path id="パス_591" data-name="パス 591" d="M375.512,304.715a2.017,2.017,0,0,0,4.034,0V276.688h-4.034Z" transform="translate(-357.245 -276.688)" fill="#002d42"/>
          </g>
          <g id="グループ_296" data-name="グループ 296">
            <path id="パス_592" data-name="パス 592" d="M378.059,250.821l-1.875.6L395.862,295.7l3.132-1.918L396.661,261.3Z" transform="translate(-351.841 -250.821)" fill="#09425e"/>
            <path id="パス_593" data-name="パス 593" d="M377,251.272l-3.329,28.654,6.227,11.917,16.684.064-1.172-30.066Z" transform="translate(-352.653 -250.676)" fill="#09425e"/>
            <path id="パス_594" data-name="パス 594" d="M388.087,279.649a85.094,85.094,0,0,1-9.12-5.934L358.2,283.586a2.511,2.511,0,0,0-.406,1.151c-.106,1.981.522,2.514.522,2.514s2.139,1.857,9.791,6.371c5.009,2.956,9.841,5.282,11.7,6.152a1.709,1.709,0,0,0,1.562-.058l20.436-11.4s1.1-1.313-.118-3.622C401.651,284.63,393.459,282.813,388.087,279.649Z" transform="translate(-357.778 -243.437)" fill="#09425e"/>
            <path id="パス_595" data-name="パス 595" d="M378.875,272.072l-20.814,12.066s2.139,1.856,9.791,6.371c4.5,2.658,8.866,4.807,11.05,5.846a3.08,3.08,0,0,0,2.829-.1L401.548,285.2s-5.626-2.525-13.552-7.192A85.094,85.094,0,0,1,378.875,272.072Z" transform="translate(-357.687 -243.967)" fill="#09425e"/>
          </g>
        </g>
        <g id="グループ_300" data-name="グループ 300">
          <path id="パス_596" data-name="パス 596" d="M362.333,281.971l14.583,6.851,2.306-2.069-3.12-6.07Z" transform="translate(-348.049 -223.758)" fill="#b14d50"/>
          <path id="パス_597" data-name="パス 597" d="M381.286,272.61l.108,4.993s-3.432,2.281-10.427,7.177c-5.027,3.519-4.5,5.326-4.675,6.026-.164.653.783,26.833.913,30.376-.485,1.036-1.45,3.078-1.75,3.628-.407.747-2.578,3.234-2.69,3.845-.185,1,.858,2.057,3.436.836,1.345-.636,2.51-3.324,3.052-3.662s2.035-1.357,1.9-2.374a16.2,16.2,0,0,0-.575-2.349c.173-1.209.763-5.332,1.389-9.588.477-3.242,1.288-6.7,1.424-9.09a48.943,48.943,0,0,0-.247-9.745s17.1-7.236,19.375-10.558-3.663-11.033-3.663-11.033Z" transform="translate(-347.916 -226.852)" fill="#f7b7a9"/>
          <path id="パス_598" data-name="パス 598" d="M384.522,271.569l-4.421.887.108,4.993s-3.432,2.281-10.427,7.177l-.025.019a2.7,2.7,0,0,1,1.9,3.985c-2.51,4.44-2.075,8.755-1.981,13.643a141.249,141.249,0,0,1-.8,15.541A29.1,29.1,0,0,1,366.42,328a19.709,19.709,0,0,1,1.648-2.325c.542-.34,2.035-1.357,1.9-2.374a16.2,16.2,0,0,0-.575-2.349c.173-1.209.763-5.332,1.389-9.588.477-3.242,1.288-6.7,1.424-9.09a48.943,48.943,0,0,0-.247-9.745,158.257,158.257,0,0,0,15.5-7.577c1.078-4.548,1.263-9.271-2.429-12.73A2.788,2.788,0,0,1,384.522,271.569Z" transform="translate(-346.73 -226.698)" fill="#6c90b1" opacity="0.1" style="mix-blend-mode: multiply;isolation: isolate"/>
          <path id="パス_599" data-name="パス 599" d="M378.419,272.153a125.338,125.338,0,0,1-13.621,8.16c-3.857,1.947-3.4,4.391-3.682,5.055S358.7,314.7,358.7,314.7a31.766,31.766,0,0,1-3.464,4.208c-1.508,1.479-3.235,2.336-3.662,2.916-.307.417,1.152,1.289,3.595.882s2.633-2.324,4.069-2.578c2.305-.407,3.324-1.017,3.458-1.424s-.813-2.713-.678-3.391c0,0,1.112-4.7,2.51-9.5.714-2.452,1.461-5.638,1.9-7.664a42.741,42.741,0,0,0,1.153-9.655s17.5-8.726,18.992-11.847C388.308,273.018,378.419,272.153,378.419,272.153Z" transform="translate(-351.532 -226.509)" fill="#f7b7a9"/>
          <path id="パス_600" data-name="パス 600" d="M376.838,272.153s-2.424,1.7-5.929,3.842c1.879,4.187-1.2,7.076-4.207,9.84-2.494,2.291-3.174,5.367-3.744,8.556-.018.787-.038,1.457-.087,1.914-.643,5.859-1.36,12.444-3.092,18.078a22.42,22.42,0,0,1-3.343,6.512,2.22,2.22,0,0,1,1.221-.767c2.305-.407,3.324-1.017,3.458-1.424s-.813-2.713-.678-3.391c0,0,1.112-4.7,2.51-9.5.714-2.452,1.461-5.638,1.9-7.664A42.742,42.742,0,0,0,366,288.5s17.5-8.726,18.992-11.847C386.727,273.018,376.838,272.153,376.838,272.153Z" transform="translate(-349.951 -226.509)" fill="#6c90b1" opacity="0.1" style="mix-blend-mode: multiply;isolation: isolate"/>
          <path id="パス_601" data-name="パス 601" d="M373.814,272.678l-11.328,6.782s8.992,4.289,11.735,6.309c4.375,3.222,2.645,5.765,2.645,5.765s14.311-5.9,15.6-10.445a13.223,13.223,0,0,0-.95-8.817Z" transform="translate(-347.999 -226.471)" fill="#d95e62"/>
          <path id="パス_602" data-name="パス 602" d="M381.333,272.424a7.539,7.539,0,0,1,3.136,9.258c-1.657,4.038-6.236,5.245-9.735,7.152a2.768,2.768,0,0,1-1.208.348,2.863,2.863,0,0,1-.167,2.351s14.311-5.9,15.6-10.445a13.223,13.223,0,0,0-.95-8.817Z" transform="translate(-344.492 -226.471)" fill="#6c90b1" opacity="0.1" style="mix-blend-mode: multiply;isolation: isolate"/>
          <g id="グループ_298" data-name="グループ 298" transform="translate(2.85 19.686)">
            <path id="パス_603" data-name="パス 603" d="M377.816,252.527c-2.26,5.606-5.576,12.954-5.576,12.954l-13.121,3.458c.07.189.53-.02.578.177q.2.811.462,1.6c.045.134.1.266.142.4,0,0,7.472-.532,9.784-.887a14.721,14.721,0,0,0,4.477-1.424,46.017,46.017,0,0,0,7.505-13.565A12.452,12.452,0,0,1,377.816,252.527Z" transform="translate(-351.935 -252.526)" fill="#f7b7a9"/>
            <path id="パス_604" data-name="パス 604" d="M375.754,252.526c-.071.177-.146.361-.22.541a2.186,2.186,0,0,1,1.309,2.353c-.4,4.471-1.759,9.209-5.325,12.2a15.178,15.178,0,0,1-6.008,2.9c1.029-.1,1.932-.2,2.512-.29a14.7,14.7,0,0,0,4.475-1.424A46,46,0,0,0,380,255.24,12.435,12.435,0,0,1,375.754,252.526Z" transform="translate(-349.873 -252.526)" fill="#6c90b1" opacity="0.1" style="mix-blend-mode: multiply;isolation: isolate"/>
            <path id="パス_605" data-name="パス 605" d="M354.007,269.759c.4.39.86-.09.86-.09l.9-.972.339-.226-.385,1.628c.43.181.747-.271.747-.271l.542-1.357,1.017-.565s1.718-.362,1.718-.136-.858.995-1.492,1.447-.181.9-.181.9,1.945-1.176,2.533-1.4,1.34-1.531,1.34-1.531l.356-2.481-5.494.44Z" transform="translate(-353.584 -248.597)" fill="#f7b7a9"/>
            <path id="パス_606" data-name="パス 606" d="M354.007,267.481a.749.749,0,0,0,.723.317,11.953,11.953,0,0,0,2.035-1.222l.045-1.537-1.628,1.2Z" transform="translate(-353.584 -248.49)" fill="#f7b7a9"/>
            <path id="パス_607" data-name="パス 607" d="M354.642,268.432l1.136-1.188.282-1.152-2.373,2.262A.616.616,0,0,0,354.642,268.432Z" transform="translate(-353.687 -248.15)" fill="#f7b7a9"/>
          </g>
          <path id="パス_608" data-name="パス 608" d="M373.5,251.986c-.069.421-1.939,4.268-3.386,8.608,1.419.5,5.539.944,7.045,1.222.43-2.19.869-4.405,1.208-6.033a57.183,57.183,0,0,0,1.058-5.994A3.893,3.893,0,0,0,373.5,251.986Z" transform="translate(-345.54 -233.944)" fill="#d5e0ee"/>
          <path id="パス_609" data-name="パス 609" d="M376.41,249.353a2.428,2.428,0,0,0-1.053.234s-.94.2-1.34,1.746c-.173.672.132,1.655-.1,2.658l-1.319,3.365-1.325,3.823a4.427,4.427,0,0,0,1.32,4.687l.805,5.888-2.348,8.359s10.861,6.186,17.655.877l-2.013-7a171.209,171.209,0,0,1,.928-17.311s3.173-.606,2.445-1.8C386.177,248.505,379.3,249.122,376.41,249.353Z" transform="translate(-345.237 -233.906)" fill="#d5e0ee"/>
          <path id="パス_610" data-name="パス 610" d="M384.275,259.6a22.728,22.728,0,0,0-2.268,5.15c-1.237,4.681-.438,9.536-1.849,14.207a2.869,2.869,0,0,1-.4.819,10.54,10.54,0,0,0,6.145-2.132l-2.012-7C383.836,266.972,384.043,262.884,384.275,259.6Z" transform="translate(-342.43 -230.559)" fill="#6c90b1" opacity="0.1" style="mix-blend-mode: multiply;isolation: isolate"/>
          <path id="パス_611" data-name="パス 611" d="M379.413,248.819c-3.243.616-3.816,3.047-3.521,3.57s1.237,1.651,3.882.815c3.149-1,3.16-2.658,3.16-2.658S381.5,248.422,379.413,248.819Z" transform="translate(-343.697 -234.051)" fill="#f7b7a9"/>
          <path id="パス_612" data-name="パス 612" d="M381.834,247.549l-5.294-.578s-.823,3.724.542,5.824l5.7-1.67A7.028,7.028,0,0,1,381.834,247.549Z" transform="translate(-343.546 -234.632)" fill="#f7b7a9"/>
          <path id="パス_613" data-name="パス 613" d="M381.846,247.549l-5.294-.578s-.623,3.577-.062,4.3c.938,1.217,3.472-.292,4.477-.913a6.557,6.557,0,0,0,.9-1.725l.008-.015A3.65,3.65,0,0,1,381.846,247.549Z" transform="translate(-343.558 -234.632)" fill="#eaaea0"/>
          <path id="パス_614" data-name="パス 614" d="M374.6,247.3c0,2.918,1.219,5.728,4.026,4.979,0,0,4.8-1.436,5.428-4.485l.79-5.385-9.926-1.771Z" transform="translate(-344.091 -236.674)" fill="#f7b7a9"/>
          <path id="パス_615" data-name="パス 615" d="M380.223,237.641c-7.106,0-5.958,5.9-5.958,5.9a12.089,12.089,0,0,0,8.483,2.2l-.227,5.748a6.428,6.428,0,0,0,.749,2.284l4.3,2.71s-.278-10.132-.352-11.517C387.134,243.382,386.617,237.641,380.223,237.641Z" transform="translate(-344.222 -237.641)" fill="#ce994a"/>
          <g id="グループ_299" data-name="グループ 299" transform="translate(40.022 20.714)">
            <path id="パス_616" data-name="パス 616" d="M386.805,254.182a1.159,1.159,0,0,0-.868-.807c-3.269-.668-4.207,3.485-4.141,4.293.071.861,2.784,14.943,2.784,14.943.153,3.7-.425,11.527-.425,11.527l-1.842,3.571-.23,3.723s.284.234.8-.914l.261-1.647.4,2.014-.217,1.319-.11.5c-.136.471.376.6.674.22.087-.112.671-.719.671-.719l1.252-.779.73-1.612.167-4.265c.551-3.525,1.951-10.311,2.046-11.242l.235-2.276s-.389-7.3-1.036-12.019A40.053,40.053,0,0,0,386.805,254.182Z" transform="translate(-381.794 -253.303)" fill="#f7b7a9"/>
            <path id="パス_617" data-name="パス 617" d="M382.013,283.815s.126.094.356-.165a26.7,26.7,0,0,1,1.509-6.726l-1.635,3.169Z" transform="translate(-381.723 -245.685)" fill="#6c90b1" opacity="0.1" style="mix-blend-mode: multiply;isolation: isolate"/>
            <path id="パス_618" data-name="パス 618" d="M386.805,254.182a1.159,1.159,0,0,0-.868-.807c-3.269-.668-4.207,3.485-4.141,4.293.071.861,2.784,14.943,2.784,14.943.136,3.283-.3,9.349-.4,11.164a25.381,25.381,0,0,0,.774-3.3c.928-6.088.361-9.685.2-15.771a2.907,2.907,0,0,1,3.007-3.074c-.063-.561-.131-1.106-.2-1.619A40.053,40.053,0,0,0,386.805,254.182Z" transform="translate(-381.794 -253.303)" fill="#6c90b1" opacity="0.1" style="mix-blend-mode: multiply;isolation: isolate"/>
            <path id="パス_619" data-name="パス 619" d="M386.805,254.182a1.159,1.159,0,0,0-.868-.807c-3.269-.668-4.207,3.485-4.141,4.293.037.44.763,4.33,1.464,8.032a10.6,10.6,0,0,0,5.176-1.3c-.139-1.52-.3-3.056-.483-4.387A40.045,40.045,0,0,0,386.805,254.182Z" transform="translate(-381.794 -253.303)" fill="#d5e0ee"/>
            <path id="パス_620" data-name="パス 620" d="M382.072,255.472a4.647,4.647,0,0,0-.275,1.5c.037.44.763,4.33,1.464,8.032a14.655,14.655,0,0,0,2-.185c-.635-.592-2.711-5.906-3.034-7.783A10.9,10.9,0,0,1,382.072,255.472Z" transform="translate(-381.793 -252.604)" fill="#6c90b1" opacity="0.1" style="mix-blend-mode: multiply;isolation: isolate"/>
          </g>
          <path id="パス_621" data-name="パス 621" d="M375.254,262.651s4.938,3.6,7.856-.877C383.11,261.774,379.269,264.467,375.254,262.651Z" transform="translate(-343.881 -229.857)" fill="#6c90b1" opacity="0.1" style="mix-blend-mode: multiply;isolation: isolate"/>
          <path id="パス_622" data-name="パス 622" d="M358.766,308.19c-.111.021-1.133.561-1.538.766a8.443,8.443,0,0,1-3.79.471,6.565,6.565,0,0,0-1.865,1.44c-.307.417,1.153,1.289,3.595.882s2.633-2.324,4.069-2.578c2.307-.406,3.324-1.017,3.458-1.424a5.368,5.368,0,0,0-.348-1.628C362.311,306.135,362.153,307.543,358.766,308.19Z" transform="translate(-351.532 -215.554)" fill="#d95e62"/>
          <path id="パス_623" data-name="パス 623" d="M370.939,309.786c.05.8-1.594,2.307-2.527,3.29-2.131,2.247-2.719,2.222-4.614,1.637-.019-.007-.033-.016-.052-.022a4.754,4.754,0,0,0-1.065,1.674c-.337,1,.729,2.136,3.306.915,1.345-.636,3.014-3.39,3.476-3.831,1.153-1.1,1.866-1.459,1.73-2.476A3.889,3.889,0,0,0,370.939,309.786Z" transform="translate(-347.956 -214.371)" fill="#d95e62"/>
        </g>
      </g>
      <g id="グループ_306" data-name="グループ 306" transform="translate(282.561 256.277)">
        <g id="グループ_302" data-name="グループ 302" transform="translate(0.028 28.908)">
          <path id="パス_624" data-name="パス 624" d="M427.589,319.442l-78.112-45.1a9.912,9.912,0,0,0-8.993.007l-56.048,32.257c-2.48,1.442-2.467,3.776.018,5.211l78.112,45.1a9.914,9.914,0,0,0,9,0l56.048-32.258C430.1,323.218,430.084,320.883,427.589,319.442Z" transform="translate(-282.582 -273.269)" fill="url(#linear-gradient)"/>
        </g>
        <g id="グループ_305" data-name="グループ 305">
          <g id="グループ_304" data-name="グループ 304" style="isolation: isolate">
            <g id="グループ_303" data-name="グループ 303" transform="translate(0.028)">
              <path id="パス_625" data-name="パス 625" d="M427.589,297.584l-78.112-45.1a9.912,9.912,0,0,0-8.993.007L284.435,284.75c-2.48,1.442-2.467,3.775.018,5.21l78.112,45.1a9.914,9.914,0,0,0,9,0L427.618,302.8C430.1,301.358,430.084,299.025,427.589,297.584Z" transform="translate(-282.582 -251.411)" fill="#c5d5e7"/>
            </g>
            <path id="パス_626" data-name="パス 626" d="M427.624,294.037l-56.047,32.257a9.916,9.916,0,0,1-9.005,0L284.46,281.2a3.172,3.172,0,0,1-1.871-2.617l-.028,4.58a3.174,3.174,0,0,0,1.873,2.617l78.111,45.1a9.916,9.916,0,0,0,9.005,0L427.6,298.617a3.161,3.161,0,0,0,1.852-2.59l.028-4.58A3.163,3.163,0,0,1,427.624,294.037Z" transform="translate(-282.561 -242.648)" fill="#517fa2"/>
          </g>
        </g>
      </g>
      <g id="グループ_307" data-name="グループ 307" transform="translate(308.919 272.569)">
        <path id="パス_627" data-name="パス 627" d="M302.491,283.681l50.233,29,34.332-19.952-50.233-29Z" transform="translate(-302.491 -263.729)" fill="#fff"/>
      </g>
      <g id="グループ_308" data-name="グループ 308" transform="translate(315.741 281.981)">
        <path id="パス_628" data-name="パス 628" d="M307.649,290.8l50.233,29,34.332-19.952-50.233-29Z" transform="translate(-307.649 -270.846)" fill="#f1f5f9"/>
      </g>
      <g id="グループ_316" data-name="グループ 316" transform="translate(370.011 279.146)">
        <path id="パス_629" data-name="パス 629" d="M367.2,308.883l.288,2.705,4.113,1.371,3.379-3.917-2.057-3.672Z" transform="translate(-342.713 -256.876)" fill="#09425e"/>
        <path id="パス_630" data-name="パス 630" d="M367.2,308.883l.288,2.705,4.113,1.371,3.379-3.917-2.057-3.672Z" transform="translate(-342.713 -256.876)" fill="#6c90b1" opacity="0.1" style="mix-blend-mode: multiply;isolation: isolate"/>
        <g id="グループ_311" data-name="グループ 311" transform="translate(10.291 55.39)">
          <g id="グループ_310" data-name="グループ 310">
            <g id="グループ_309" data-name="グループ 309">
              <path id="パス_631" data-name="パス 631" d="M364.6,328.355a33.591,33.591,0,0,1-5.585.641c-1.7,0-3.58,1.664-1.882,2.583,2.185,1.181,9.553,2.742,9.553,2.742s2.289.62,3.382-.923a1.543,1.543,0,0,0,.255-.989l-.189-2.808Z" transform="translate(-356.465 -304.852)" fill="#002d42"/>
              <path id="パス_632" data-name="パス 632" d="M366.615,332.975c-2.189.065-4.523-.792-6.585-1.4-3.3-.979-3.408-1.7-3.462-1.748-.212.444-.106.921.563,1.283,2.185,1.181,9.553,2.742,9.553,2.742s2.289.62,3.382-.923a1.543,1.543,0,0,0,.255-.989v0A4.642,4.642,0,0,1,366.615,332.975Z" transform="translate(-356.463 -304.379)" fill="#002d42"/>
              <path id="パス_633" data-name="パス 633" d="M378.9,325.835l-5.151-.967a46.558,46.558,0,0,1-5.27.394c-1.662,0-3,1.915-1.457,2.535l8.462,2.675s2.694.754,3.794-.827a1.113,1.113,0,0,0,.163-.832Z" transform="translate(-353.278 -305.977)" fill="#002d42"/>
              <path id="パス_634" data-name="パス 634" d="M379.435,328.351a3.144,3.144,0,0,1-.434.325c-1.553.95-4.36.308-4.146.336-.589-.079-6.146-1.492-8.168-2.193-.1-.036-.2-.077-.3-.12a.856.856,0,0,0,.626.771l8.77,2.474s2.492.7,3.509-.764a1.025,1.025,0,0,0,.151-.768Z" transform="translate(-353.263 -305.386)" fill="#002d42"/>
              <path id="パス_635" data-name="パス 635" d="M367.975,317.386c-1.624-.19-4.6-6.611-4.6-6.611s-2.333,1.415-4.077,2.387l4.015,21.11c.04.85.443,1.674,2.055,2.111a3.939,3.939,0,0,0,3.891-.664S367.683,323.974,367.975,317.386Z" transform="translate(-355.552 -310.522)" fill="#09425e"/>
              <path id="パス_636" data-name="パス 636" d="M367.975,317.386c-1.624-.19-4.6-6.611-4.6-6.611s-2.333,1.415-4.077,2.387l4.015,21.11c.04.85.443,1.674,2.055,2.111a3.939,3.939,0,0,0,3.891-.664S367.683,323.974,367.975,317.386Z" transform="translate(-355.552 -310.522)" fill="#6c90b1" opacity="0.1" style="mix-blend-mode: multiply;isolation: isolate"/>
              <path id="パス_637" data-name="パス 637" d="M366.472,310.584l9.431,19.478c.06,1.123,1.248,1.862,2.363,2.013,2.418.327,3.019-1,3.019-1l-7.791-19.6C373.243,311.532,368.542,310.811,366.472,310.584Z" transform="translate(-353.237 -310.584)" fill="#09425e"/>
            </g>
          </g>
        </g>
        <path id="パス_638" data-name="パス 638" d="M361.586,339.815h.012l-.012,2.8a.493.493,0,0,0,.288.4,1.541,1.541,0,0,0,1.4,0,.493.493,0,0,0,.291-.409l.03-24.614a12.585,12.585,0,0,1-1.981-1.194Z" transform="translate(-344.522 -253.19)" fill="#002d42"/>
        <path id="パス_639" data-name="パス 639" d="M372.62,347.294h.011l-.011,2.8a.489.489,0,0,0,.287.4,1.537,1.537,0,0,0,1.4,0,.5.5,0,0,0,.292-.407l.029-24.614a12.494,12.494,0,0,1-1.981-1.2Z" transform="translate(-340.963 -250.778)" fill="#002d42"/>
        <path id="パス_640" data-name="パス 640" d="M376.618,332.855h.012l-.012,2.8a.5.5,0,0,0,.287.4,1.548,1.548,0,0,0,1.4,0,.5.5,0,0,0,.291-.407l.03-24.615a12.337,12.337,0,0,1-1.981-1.194Z" transform="translate(-339.673 -255.435)" fill="#09425e"/>
        <path id="パス_641" data-name="パス 641" d="M366.321,288.955s0,.552.881.258l1.488-.477-1.561,1.505.05.02c.279.274.575.25.977-.02l2.2-1.358-.661-1.543Z" transform="translate(-342.995 -262.691)" fill="#8f644d"/>
        <path id="パス_642" data-name="パス 642" d="M387.577,340.26h.012l-.012,2.8a.491.491,0,0,0,.287.4,1.544,1.544,0,0,0,1.4,0,.5.5,0,0,0,.291-.407l.03-24.615a12.431,12.431,0,0,1-1.981-1.194Z" transform="translate(-336.139 -253.047)" fill="#002d42"/>
        <g id="グループ_312" data-name="グループ 312" transform="translate(14.92 53.131)">
          <path id="パス_643" data-name="パス 643" d="M397.639,317.8l-13.667-7.89a9.538,9.538,0,0,0-8.652,0L361.741,317.8c-2.379,1.382-2.367,3.629.028,5.011l13.667,7.892a9.54,9.54,0,0,0,8.653,0l13.577-7.892C400.051,321.431,400.038,319.189,397.639,317.8Z" transform="translate(-359.965 -308.875)" fill="#ff836e"/>
        </g>
        <g id="グループ_313" data-name="グループ 313" transform="translate(0 31.011)">
          <path id="パス_644" data-name="パス 644" d="M355.4,293.419a9.749,9.749,0,0,1-3.925,1.652,3.053,3.053,0,0,0-.214.71c.235.116,3.113,1.522,4.462,1.2.036-.008,1.263,1.148,1.7,1.16l1.776-1.207.249-.213-1.42-.782Z" transform="translate(-347.854 -291.742)" fill="#8f644d"/>
          <path id="パス_645" data-name="パス 645" d="M350.5,292.416c-.567.142-.283.567-.141.71s2.23,1.078,2.23,1.078a3.383,3.383,0,0,0,3.161-.462l-2.594-.782Z" transform="translate(-348.207 -292.065)" fill="#8f644d"/>
          <path id="パス_646" data-name="パス 646" d="M349.184,292.935c-.676.516.177.782.5.817s2.149.586,2.149.586l1.865.586.533-.71-2.043-.906Z" transform="translate(-348.604 -291.898)" fill="#8f644d"/>
          <path id="パス_647" data-name="パス 647" d="M348.8,293.573c-.462.64.657.676.657.676l2.046.4,1.014.726,3.144-1.083.036-.639-3.854.053Z" transform="translate(-348.684 -291.692)" fill="#8f644d"/>
          <path id="パス_648" data-name="パス 648" d="M349.118,294.4c-.391.516.39.587.39.587l1.725.241,1.852.7.106-1.03-1.6-.6A9.98,9.98,0,0,0,349.118,294.4Z" transform="translate(-348.579 -291.467)" fill="#8f644d"/>
          <path id="パス_649" data-name="パス 649" d="M354.359,292.9a7.7,7.7,0,0,1-.906-.746c-.639-.07-.533.427-.5.586a17.206,17.206,0,0,0,1.226,1.51l2.541,2.258C357.29,294.9,354.644,293.064,354.359,292.9Z" transform="translate(-347.315 -292.151)" fill="#8f644d"/>
        </g>
        <g id="グループ_315" data-name="グループ 315" transform="translate(16.104)">
          <g id="グループ_314" data-name="グループ 314">
            <path id="パス_650" data-name="パス 650" d="M374.031,310.048l-6.268-1.42-6.9,4.015c.2,3.624,19.486,12.145,24.237,8.862.194-.134,7.419-6.141,7.233-8.72-.062-.848-.206-2.178-.372-3.57C385.867,310.973,374.263,310.1,374.031,310.048Z" transform="translate(-360.86 -255.825)" fill="#09425e"/>
            <path id="パス_651" data-name="パス 651" d="M381.682,314.293a50.324,50.324,0,0,1-16.484,1.219,7.722,7.722,0,0,1-2.912-.8c5,3.961,18.487,9.1,22.351,6.43.194-.134,7.419-6.141,7.233-8.72-.049-.663-.148-1.619-.267-2.668C388.98,312.277,385.171,313.414,381.682,314.293Z" transform="translate(-360.4 -255.461)" fill="#6c90b1" opacity="0.1" style="mix-blend-mode: multiply;isolation: isolate"/>
            <path id="パス_652" data-name="パス 652" d="M387.666,281s-7.353-1.419-10.8,1.029c-3.011,2.14-9.181,6.023-7.418,9.034,0,0,1.727,7.749,2.35,12.265,1.338,9.7,1.186,9.407.34,16.168,0,0,.681,3.5,5.049,3.515,5.079.015,12.875-3.231,12.875-3.231a89.442,89.442,0,0,1,1.316-9.19c1.472-5.887.893-22.055.272-25.426A5.08,5.08,0,0,0,387.666,281Z" transform="translate(-358.189 -264.869)" fill="#ffec83"/>
            <path id="パス_653" data-name="パス 653" d="M376.781,304.681c-.214,1.248-1.188,3.425-1.41,4.639a29.824,29.824,0,0,1-2.545,7.857,5.585,5.585,0,0,0,3.174.87c5.079.015,12.875-3.231,12.875-3.231a89.442,89.442,0,0,1,1.316-9.19,50.3,50.3,0,0,0,.894-9.657,38.263,38.263,0,0,0-8.393,3.133C379.486,300.807,378.149,301.987,376.781,304.681Z" transform="translate(-357 -259.908)" fill="#09425e"/>
            <path id="パス_654" data-name="パス 654" d="M374.873,277.51l.1,5.452c0,1.981,6.753,1.243,6.753-.738l-.682-4.567Z" transform="translate(-356.34 -265.862)" fill="#8f644d"/>
            <path id="パス_655" data-name="パス 655" d="M373.672,279.785c.542,3.279,1.077,2.762,3.966,2.937,0,0,6.151-.107,6.335-3.1l.943-5.508-11.784-2.291Z" transform="translate(-356.902 -267.697)" fill="#8f644d"/>
            <path id="パス_656" data-name="パス 656" d="M377.091,268.976c-1.215.446-4.618,1.165-4.618,1.165a2.5,2.5,0,0,0,.955,3.011s3.006,2.44,2.863,4.774,1.492,4.03,3.232,5.582c1.266,1.128,3.086.073,3.086.073a11.915,11.915,0,0,0,2.915-10.841C384.7,268.507,378.811,268.346,377.091,268.976Z" transform="translate(-357.171 -268.703)" fill="#002d42"/>
            <path id="パス_657" data-name="パス 657" d="M374.732,275.968l.664,2.2c1.234.552,1.094-1.03.993-2.354C376.252,274.017,374.732,275.968,374.732,275.968Z" transform="translate(-356.386 -266.654)" fill="#8f644d"/>
          </g>
        </g>
        <path id="パス_658" data-name="パス 658" d="M388.836,295.469l-9.163,5.437a6.972,6.972,0,0,0-3.4,5.543l-2.728,29.767,21.563-11.276-.315-26.241A3.948,3.948,0,0,0,388.836,295.469Z" transform="translate(-340.664 -260.249)" fill="#ff836e"/>
        <path id="パス_659" data-name="パス 659" d="M376.761,285.545c-2.264-1.067-5.057,6.466-5.057,6.466l-4.763,8.913-10.616-3.13a2,2,0,0,0-2.277,1.861c-.246,1.233,11.453,7.2,13.366,7.658a2.3,2.3,0,0,0,.958.177c.235,0,1.28-.011,3.484-2.082a10.75,10.75,0,0,0,2.1-2.226l5.658-10.456S380.625,287.368,376.761,285.545Z" transform="translate(-346.955 -263.303)" fill="#ffec83"/>
        <path id="パス_660" data-name="パス 660" d="M372.117,299.449c-5.336,4.576-11.784,2.3-17.364-1.764-.218-.159-.424-.328-.626-.5-.029.1-.057.2-.079.309-.246,1.233,11.453,7.2,13.366,7.658a2.3,2.3,0,0,0,.958.177c.235,0,1.28-.011,3.484-2.082a10.75,10.75,0,0,0,2.1-2.226l4.8-8.866h0C376.7,293.73,374.062,297.781,372.117,299.449Z" transform="translate(-346.955 -261.139)" fill="#6c90b1" opacity="0.1" style="mix-blend-mode: multiply;isolation: isolate"/>
      </g>
      <g id="グループ_318" data-name="グループ 318" transform="translate(286.697 236.324)">
        <path id="パス_661" data-name="パス 661" d="M285.881,264.16c.942,5.884,13.491,4.252,13.491,4.252L287.747,249.55S284.941,258.276,285.881,264.16Z" transform="translate(-285.688 -232.058)" fill="#ff836e"/>
        <path id="パス_662" data-name="パス 662" d="M307.805,312.1c-2.567.079-4.4.146-4.4.146l-7.065,1.512-.116,3.369c1,2.227,3.818,1.365,3.818,1.365l9.362-3.13C310.86,314.009,309.558,312.042,307.805,312.1Z" transform="translate(-282.291 -211.885)" fill="#09425e"/>
        <path id="パス_663" data-name="パス 663" d="M300.158,308.544c-2.448.075-4.936.161-4.936.161l-6.457,1.517-.1,3.281c.955,2.123,4.091,1.132,4.091,1.132l8.925-2.985C303.208,310.976,301.829,308.493,300.158,308.544Z" transform="translate(-284.728 -213.03)" fill="#09425e"/>
        <path id="パス_664" data-name="パス 664" d="M305.008,271.433c-1.19,1.549-14.475-2.886-16.41-3.912a93.166,93.166,0,0,0-1.731,9.513c-.111,2.809.7,7.164,1.223,11.85.627,5.637,1.531,14.28,1.531,14.28l-.463,20.5s1.352,1.356,4.237.812c1.063-.2,2.168-.828,2.189-1.91l1.869-18.574-1.289-13.744,3.284,17.237-.114,21.343a6.764,6.764,0,0,0,4.641.263,2.313,2.313,0,0,0,1.849-2.341l.7-18.378-1.906-29.243Z" transform="translate(-285.312 -226.262)" fill="#002d42"/>
        <path id="パス_665" data-name="パス 665" d="M293.039,282.708a36.819,36.819,0,0,1,.985,6.139c.452,10.164-.507,20.921-4.092,30.479-.032.083-.077.147-.111.225a6.181,6.181,0,0,0,2.619.022c1.063-.2,2.168-.829,2.189-1.911l1.869-18.574-1.455-15.445C294.755,282.843,293.4,282.787,293.039,282.708Z" transform="translate(-284.355 -221.363)" fill="#6c90b1" opacity="0.1" style="mix-blend-mode: multiply;isolation: isolate"/>
        <path id="パス_666" data-name="パス 666" d="M295.707,294.219a35.25,35.25,0,0,0-1.491-7.822Z" transform="translate(-282.937 -220.173)" fill="#6c90b1" opacity="0.1" style="mix-blend-mode: multiply;isolation: isolate"/>
        <path id="パス_667" data-name="パス 667" d="M298.324,327.107a6.686,6.686,0,0,0,1.952-.282,2.313,2.313,0,0,0,1.849-2.341l.7-18.378-2.018-31.574C299.274,274.968,301.584,312.861,298.324,327.107Z" transform="translate(-281.613 -224.001)" fill="#6c90b1" opacity="0.1" style="mix-blend-mode: multiply;isolation: isolate"/>
        <path id="パス_668" data-name="パス 668" d="M300.463,249.169c-2.981-2.443-10.168-.844-10.168-.844s-2.156-.32-3.23,2.883c-.995,2.965.38,18.547.139,21.232s-.3,10.4-.3,10.4,2.682,1.912,13.06,1.926c3.986.005,4.938-1.476,4.938-1.476l.792-16.56,1.193-10.916A46.481,46.481,0,0,0,300.463,249.169Z" transform="translate(-285.362 -232.619)" fill="#ff836e"/>
        <path id="パス_669" data-name="パス 669" d="M302.3,257.541c-2.189,2.547-1.465,8.675-1.953,11.828a22.552,22.552,0,0,1-6.422,13.081c-.128.126-.27.227-.4.344,1.251.078,2.646.128,4.244.131,3.986.005,4.938-1.476,4.938-1.476l.792-16.56,1.193-10.916s-.136-.176-.373-.467A8.832,8.832,0,0,1,302.3,257.541Z" transform="translate(-283.162 -230.782)" fill="#1d1d1b" opacity="0.07"/>
        <g id="グループ_317" data-name="グループ 317" transform="translate(7.349)">
          <path id="パス_670" data-name="パス 670" d="M293,250.406c.3,1.781,6.488,1.418,6.187-.365l.315-5.711-5.974,1.012Z" transform="translate(-290.679 -233.742)" fill="#fcb698"/>
          <path id="パス_671" data-name="パス 671" d="M292.607,246.292c.208,2.731,5.2,3.876,5.2,3.876,2.634-.2,4.466-1.558,4.255-4.337l.115-6.475-10.5,1.923Z" transform="translate(-291.106 -235.346)" fill="#fcb698"/>
          <path id="パス_672" data-name="パス 672" d="M299.114,236.547c-1.576-.551-6.95-.325-7.643,3.547-1.135,6.357,2.361,9.768,2.361,9.768s2.2,1.428,3.341.382c1.569-1.44,3.649-3.742,3.488-5.868s1.163-2.564,1.163-2.564C304.94,239.271,301.355,237.332,299.114,236.547Z" transform="translate(-291.245 -236.324)" fill="#81524f"/>
          <path id="パス_673" data-name="パス 673" d="M297.541,242.736c-.06,1.209.389,2.213,1.324,1.7l-.176-2.314S297.623,241.1,297.541,242.736Z" transform="translate(-289.215 -234.557)" fill="#fcb698"/>
        </g>
        <path id="パス_674" data-name="パス 674" d="M312.715,312.738A14.607,14.607,0,0,0,310.89,312a12.868,12.868,0,0,1-1.451-.444c-.518-.265-1.1-.52-1.584-.808a13.116,13.116,0,0,1-1.558-1.018c-.227-.184-.454-.279-.7-.447a.8.8,0,0,0-.988-.169h-4.747a19.577,19.577,0,0,0-3.73.13c-.55.107-1.074.176-1.616.325-.221.061-.429.167-.649.213-.114.022-.238-.026-.36.009-.337.1-.661.484-.967.655a16.022,16.022,0,0,0-2.148,1.14,11.043,11.043,0,0,0-1.256,1.242,3.755,3.755,0,0,0-.737,3.629,1.391,1.391,0,0,0,.931.676c.692.254,1.438.443,2.144.661a30.928,30.928,0,0,0,6.171,1.115,104.711,104.711,0,0,0,12.058.628,26.477,26.477,0,0,0,2.7-.294,3.116,3.116,0,0,0,1.475-.505,4.418,4.418,0,0,0,1.32-1.476,2.677,2.677,0,0,0,.165-2.366A7.842,7.842,0,0,0,312.715,312.738Z" transform="translate(-284.883 -212.879)" fill="#6c90b1" opacity="0.1" style="mix-blend-mode: multiply;isolation: isolate"/>
        <path id="パス_675" data-name="パス 675" d="M293.709,247.059l-1.235.844c-.339.533-.144.771.217,1.291,1.55,2.232,5.659,3.038,7.143,1.46l-.48-1.342C297.239,249.776,294,248.952,293.709,247.059Z" transform="translate(-283.556 -232.862)" fill="#fff"/>
        <path id="パス_676" data-name="パス 676" d="M317.513,264.094l-2.116,1.021-.031,2.909,4.554-1.229,1.664-1.839-2.3,1.129Z" transform="translate(-276.116 -227.367)" fill="#fcb698"/>
        <path id="パス_677" data-name="パス 677" d="M317.6,263.27a6.817,6.817,0,0,0-.883.369c-1.443.938-1.329,1.879-1.329,1.879s.633,1.173,2.116-1.021l1.617-1.411S318.754,262.432,317.6,263.27Z" transform="translate(-276.109 -227.771)" fill="#fcb698"/>
        <path id="パス_678" data-name="パス 678" d="M308.693,265.052l-5.839-11.276c-6.152-4.367-4.608,5.864-4.608,5.864s6.223,10.531,7.792,11.336c1.587.813,15.34,1.077,15.34,1.077l-.4-3.259A82.383,82.383,0,0,1,308.693,265.052Z" transform="translate(-281.693 -231.045)" fill="#ff836e"/>
      </g>
      <path id="パス_679" data-name="パス 679" d="M355.57,290.976l10.472-6.006.82-1.276-10.555,1.276Z" transform="translate(23.549 15.279)" fill="#517fa2"/>
    </g>
  </g>
</svg>
