<svg xmlns="http://www.w3.org/2000/svg" width="292" height="248.907" viewBox="0 0 292 248.907">
  <g id="グループ_392" data-name="グループ 392" transform="translate(-383 -2509)">
    <g id="グループ_374" data-name="グループ 374" transform="translate(-22 1150)">
      <path id="パス_33" data-name="パス 33" d="M9.165,0l9.165,12.332H0Z" transform="translate(560.331 1444.666) rotate(180)" fill="#a4b7be"/>
      <rect id="長方形_259" data-name="長方形 259" width="292" height="75" rx="37.5" transform="translate(405 1359)" fill="#a4b7be"/>
      <text id="何歳の頃に_いくら稼いでるかわからない" data-name="何歳の頃に
いくら稼いでるかわからない" transform="translate(405 1379)" fill="#fff" font-size="14" font-family="HiraKakuPro-W6, Hiragino Kaku Gothic Pro"><tspan x="111" y="12">何歳の頃に</tspan><tspan x="55.42" y="36">いくら稼いでるかわからない</tspan></text>
      <g id="グループ_378" data-name="グループ 378" transform="translate(-36.82 1204.303)">
        <path id="パス_811" data-name="パス 811" d="M580.113,410.1a3.2,3.2,0,0,0-.945.157v-3.817l-.594-.354c-.452-.269-10.761-6.366-19.794-8.538V368.51h13.368v-4.051H542.172v4.051h12.287v29.421c-8.641,2.432-17.882,7.9-18.309,8.151l-.594.354v3.817a3.194,3.194,0,0,0-.945-.157,3.241,3.241,0,1,0,3.241,3.241c0-.092-.02-.18-.028-.271h.163v-5.239a92.434,92.434,0,0,1,15.306-7,47.8,47.8,0,0,0-3.683,5.716l-.147.271v3.367a3.257,3.257,0,1,0,2.431,2.448v-5.2c1.042-1.872,3.634-6.073,5.694-7.67,7.626,1.679,16.761,6.7,19.15,8.06v5.239h.162c-.007.091-.027.178-.027.271a3.24,3.24,0,1,0,3.24-3.241Z" transform="translate(-3.903 -29.187)" fill="#274978"/>
        <g id="グループ_350" data-name="グループ 350" transform="translate(530.093 240.697)">
          <path id="パス_812" data-name="パス 812" d="M551.08,339.926s14.891-7.647,4.427-36.624H534.982s6.842,14.489,3.622,23.746-6.44,21.33-.4,25.355H576.73s5.438-6.211-.052-11.6C572.19,336.4,551.08,339.926,551.08,339.926Z" transform="translate(-534.806 -255.462)" fill="#cfdbdb"/>
          <path id="パス_813" data-name="パス 813" d="M551.135,339.926s14.891-7.647,4.427-36.624H535.036s4.992,10.581,4.435,19.437c.1,1.862.13,3.72.122,5.55-.015,3.459-.325,6.91-.365,10.368-.019,1.625-.388,5.431.543,6.719-.168-.338,1.236.336,1.513.38a31.032,31.032,0,0,0,3.391.16c3.789.156,7.576.352,11.356.671a192.543,192.543,0,0,1,22.35,3.21,7.541,7.541,0,0,0-1.648-8.99C572.245,336.4,551.135,339.926,551.135,339.926Z" transform="translate(-534.86 -255.462)" opacity="0.1"/>
          <path id="パス_814" data-name="パス 814" d="M542.978,276.947a3.517,3.517,0,0,0-2.092,3.206c.262,7.049,1.2,27.688,2.014,46.437l27.379-4.5s5.6-42.029,4.473-46.313C573.671,271.687,558.165,269.21,542.978,276.947Z" transform="translate(-536.239 -248.059)" fill="#ff7a66"/>
          <path id="パス_815" data-name="パス 815" d="M555.059,299.084c-3.641-3.364-6.459-8.686-7.766-13.9a6.271,6.271,0,0,1-5.857-4.95,3.107,3.107,0,0,0-.551,1.88c.262,7.049,1.2,27.688,2.014,46.437l27.379-4.5s2.306-17.3,3.661-30.835C570.5,300.564,562.275,305.75,555.059,299.084Z" transform="translate(-536.239 -250.022)" opacity="0.1"/>
          <path id="パス_816" data-name="パス 816" d="M565.763,261.09l-6.942.743c1.157,6.067-.106,8.556-.106,8.556,1.617,7.357,8.837,4.81,8.593-.577A29.945,29.945,0,0,0,565.763,261.09Z" transform="translate(-540.445 -245.507)" fill="#ffd1b8"/>
          <path id="パス_817" data-name="パス 817" d="M555.485,244.967c-2.758,3.544,2.723,17.559,2.894,17.994.016-.078.591-.313,8.206.451,8.805.883,3.088-19.7,3.088-19.7S557.672,242.156,555.485,244.967Z" transform="translate(-539.5 -241.306)" fill="#ffd1b8"/>
          <path id="パス_818" data-name="パス 818" d="M559.519,269.055l-.008-.021A.023.023,0,0,0,559.519,269.055Z" transform="translate(-540.632 -247.38)" fill="#856654"/>
          <g id="グループ_349" data-name="グループ 349" transform="translate(6.478 73.033)">
            <path id="パス_819" data-name="パス 819" d="M590.781,350.722c-8.854-.4-35.532,4.7-35.532,4.7l37.436,7.28C596.347,360.152,598.767,351.085,590.781,350.722Z" transform="translate(-546.106 -339.673)" fill="#274978"/>
            <path id="パス_820" data-name="パス 820" d="M592.376,338.727c-7.513-1.073-26.769-.627-26.769-.627l-22.32,2.788s-.345,11.224,7.167,11.76c5.864.419,42.963-4.245,43.048-4.33C595.111,346.708,599.889,339.8,592.376,338.727Z" transform="translate(-543.284 -336.68)" fill="#274978"/>
            <path id="パス_821" data-name="パス 821" d="M595.838,347.786c1.328-.844,5.857-1.942,5.857-1.942s-3.022,10.231,6.206,33.778c1.875,4.784,4.856,15.214,7.476,20.629l5.274-.01s-11.164-57.119-11.976-63.97C604.9,340.591,599.086,343.259,595.838,347.786Z" transform="translate(-555.678 -336.27)" fill="#274978"/>
            <path id="パス_822" data-name="パス 822" d="M625.188,416.135l-5.9-.244a11.539,11.539,0,0,0-1.541,4.77s11.317,5.543,14,5.654,3.837-.122,3.346-1.216S628.859,421.45,625.188,416.135Z" transform="translate(-560.846 -355.047)" fill="#00324d"/>
            <path id="パス_823" data-name="パス 823" d="M601.418,356.346c-2.077-.112-5.141,3.67-5.141,3.67s-3.881,6.573-4.03,29.5c-.035,5.421-.756,11.652-1,18.815l5.668.267s8.874-44.815,8.794-47.287A4.238,4.238,0,0,0,601.418,356.346Z" transform="translate(-554.596 -341.004)" fill="#274978"/>
            <path id="パス_824" data-name="パス 824" d="M591.483,349.157c-8.848-.521-36.234,5.891-36.234,5.891l31.435,6.113c-1.159,3.772-2.83,11.76-2.927,26.654-.035,5.421-.756,11.652-1,18.815l5.668.267s8.874-44.815,8.794-47.287C597.218,359.529,599.318,349.618,591.483,349.157Z" transform="translate(-546.106 -339.302)" opacity="0.1"/>
          </g>
          <path id="パス_825" data-name="パス 825" d="M576.666,267.779l-6.738.175c0,1.05,1.225,1.313,1.225,1.313l4.638.35v2.626l.7,2.1a1.359,1.359,0,0,0,1.051.7l1.663-.7s.262,2.1.437,3.063,2.376,2.052,2.376,2.052l3.009-.573-2.584-9.53Z" transform="translate(-543.089 -247.084)" fill="#ffd1b8"/>
          <path id="パス_826" data-name="パス 826" d="M588.775,281.736l-3.354.8.251,33.2s2.415,5.131,7.546,4.025,4.126-4.428,4.126-4.428Z" transform="translate(-546.743 -250.376)" fill="#ff7a66"/>
          <path id="パス_827" data-name="パス 827" d="M588.092,294.733a71.412,71.412,0,0,1-2.359-12.042l-.312.075.251,33.2s2.415,5.131,7.546,4.025a8.171,8.171,0,0,0,2.223-.789c-1.995-3.478-3.048-7.674-4.276-11.362C589.734,303.537,589.166,299.114,588.092,294.733Z" transform="translate(-546.743 -250.601)" opacity="0.1"/>
          <path id="パス_828" data-name="パス 828" d="M604.6,324.626l-7.452,1.807-4.347-.089-.237,2.021,3.857.878c1.988,1.4,5.815,1.016,5.815,1.016l4.986-1.388,5.946,1.231c1.473.446,1.67-.546,1.67-.546s-7.4-3.949-8.174-4.327A11.763,11.763,0,0,0,604.6,324.626Z" transform="translate(-548.427 -260.491)" fill="#ffd1b8"/>
          <path id="パス_829" data-name="パス 829" d="M543.155,278.706c-2.585.547-5.735,3.708-4.393,10.963s7.512,29.016,11,29.3,34.611.558,34.611.558v-4.185l-30.639-5.026S550.29,277.2,543.155,278.706Z" transform="translate(-535.664 -249.649)" fill="#ff7a66"/>
          <path id="パス_830" data-name="パス 830" d="M597.171,422.912l-5.831.915a21.459,21.459,0,0,0-.373,6.029s11.981,2.169,14.631,1.754,3.738-.871,3.041-1.848S601.812,427.405,597.171,422.912Z" transform="translate(-548.026 -283.67)" fill="#00324d"/>
          <path id="パス_831" data-name="パス 831" d="M559.642,240.715c-3.511.27-5.131,2.16-5.4,7.021s3.24,14.312,3.24,14.312a22.409,22.409,0,0,1,2.026-5.6c-1.418-.2-1.418-1.418-1.418-3.848s2.43.2,2.43.2l1.215-.608a11.39,11.39,0,0,1-.405-2.633c0-1.215,2.633-1.553,7.764-1.553s4.321-5.131,4.321-5.131C571.524,243.415,563.152,240.444,559.642,240.715Z" transform="translate(-539.386 -240.697)" fill="#00324d"/>
          <path id="パス_832" data-name="パス 832" d="M573.564,263.661c.027-.131-.435-.342-.752-.425a2.213,2.213,0,0,0-1.831.425C573,263.866,573.536,263.795,573.564,263.661Z" transform="translate(-543.337 -245.998)" fill="#fff"/>
        </g>
        <g id="グループ_353" data-name="グループ 353" transform="translate(514.82 310.623)">
          <g id="グループ_352" data-name="グループ 352">
            <g id="グループ_351" data-name="グループ 351" transform="translate(107.509 2.861)">
              <path id="パス_833" data-name="パス 833" d="M655.508,335.948l16.911,90.119H675l-10.7-90.119Z" transform="translate(-655.508 -335.948)" fill="#4fa1cc"/>
            </g>
            <rect id="長方形_439" data-name="長方形 439" width="128.315" height="5.284" fill="#f7f9f9"/>
          </g>
        </g>
        <path id="パス_834" data-name="パス 834" d="M637.285,309.881H614.593a1.772,1.772,0,0,0-1.772,1.772L609,325.011a1.772,1.772,0,0,0,1.772,1.772h22.692a1.772,1.772,0,0,0,1.772-1.772l3.822-13.358A1.772,1.772,0,0,0,637.285,309.881Z" transform="translate(-22.211 -16.316)" fill="#00324d"/>
        <path id="パス_835" data-name="パス 835" d="M614.386,321.666l-3.068,7.9.9-.127,2.42-5.859,3.311,5.859h23.307l-3.821-7.769Z" transform="translate(-22.758 -19.095)" fill="#274978"/>
        <g id="グループ_355" data-name="グループ 355" transform="translate(553.07 291.769)">
          <rect id="長方形_440" data-name="長方形 440" width="0.86" height="8.597" transform="matrix(0.987, -0.158, 0.158, 0.987, 0.378, 2.04)" fill="#bce0f3"/>
          <rect id="長方形_441" data-name="長方形 441" width="8.979" height="1.051" transform="matrix(0.214, -0.977, 0.977, 0.214, 4.399, 8.77)" fill="#57b1e0"/>
          <g id="グループ_354" data-name="グループ 354" transform="translate(2.484 0.295)">
            <path id="パス_836" data-name="パス 836" d="M568.6,307.916l-.478,3.248.669,6.018,1.624-.287-.573-6.113Z" transform="translate(-568.124 -307.916)" fill="#00324d"/>
            <path id="パス_837" data-name="パス 837" d="M568.124,311.164l1.719-.382-1.242-2.866Z" transform="translate(-568.124 -307.916)" fill="#ffd1b8"/>
            <path id="パス_838" data-name="パス 838" d="M568.5,309.444l.86-.191-.669-1.337Z" transform="translate(-568.213 -307.916)" fill="#274978"/>
          </g>
          <path id="パス_839" data-name="パス 839" d="M566.02,328.3h5.922l1.146-12.131h-8.215Z" transform="translate(-564.874 -309.567)" fill="#fff"/>
        </g>
        <path id="パス_840" data-name="パス 840" d="M558.5,271.5l-2.006,1.624a8.635,8.635,0,0,0,4.585,6.686c.191-1.242,2.006-2.388,2.006-2.388C559.174,277.04,558.5,271.5,558.5,271.5Z" transform="translate(-9.829 -7.264)" fill="#fff"/>
        <path id="パス_841" data-name="パス 841" d="M565.124,277.894s2.2.764,2.675,2.006a11.147,11.147,0,0,0,2.77-6.209l-1.719-.191S568.467,277.225,565.124,277.894Z" transform="translate(-11.864 -7.736)" fill="#fff"/>
      </g>
    </g>
  </g>
</svg>
