<svg xmlns="http://www.w3.org/2000/svg" width="292" height="251.312" viewBox="0 0 292 251.312">
  <g id="グループ_370" data-name="グループ 370" transform="translate(-405 -1359)">
    <path id="パス_33" data-name="パス 33" d="M9.165,0l9.165,12.332H0Z" transform="translate(560.331 1444.666) rotate(180)" fill="#a4b7be"/>
    <g id="グループ_253" data-name="グループ 253" transform="translate(161.038 1368.953)">
      <g id="グループ_195" data-name="グループ 195" transform="translate(319.731 51.098)">
        <path id="パス_317" data-name="パス 317" d="M341.713,120.923a16.079,16.079,0,0,1-3.437.665,9.862,9.862,0,0,0-6.019,2.926c-.945.867-2.351.5-2.059,1.741.334,1.418,2.785,3.488,3.936,3.855a22.038,22.038,0,0,0,6.272.685c1.8,0,3.638.291,5.282-.572,2.153-1.129,4.476-4.694,2.568-7.089C346.8,121.3,343.174,120.414,341.713,120.923Z" transform="translate(-314.341 -33.872)" fill="#6c90b1" opacity="0.1" style="mix-blend-mode: multiply;isolation: isolate"/>
        <g id="グループ_184" data-name="グループ 184" transform="translate(0 32.586)">
          <path id="パス_318" data-name="パス 318" d="M321.821,77.262c-.568.051-2.648.188-2.648.188a.631.631,0,0,0,.273.612,4.53,4.53,0,0,0,1.539.17,6.05,6.05,0,0,0,2.341.9,3.1,3.1,0,0,0,1.639-.92S324.474,77.024,321.821,77.262Z" transform="translate(-317.058 -77.224)" fill="#f7b7a9"/>
          <path id="パス_319" data-name="パス 319" d="M324.314,77.574a2.889,2.889,0,0,0-3.3.647,8.663,8.663,0,0,1-1.429,1.261c-.466.231,1.044,2.575,1.871,2.164a15.352,15.352,0,0,0,3.4-2.059c.036-.032,1.452-.486,1.452-.486l-.894-1.876Z" transform="translate(-316.975 -77.225)" fill="#f7b7a9"/>
          <path id="パス_320" data-name="パス 320" d="M317.476,79.911a6.451,6.451,0,0,0,1.618.181A3.777,3.777,0,0,0,321.4,79.2l.247-1.056a6.513,6.513,0,0,1-2.609,1.192C317.542,79.431,317.55,79.579,317.476,79.911Z" transform="translate(-317.476 -76.997)" fill="#f7b7a9"/>
          <path id="パス_321" data-name="パス 321" d="M317.774,80.8a6.4,6.4,0,0,0,1.628.03,3.639,3.639,0,0,0,2.2-1.126l.148-1.074a6.352,6.352,0,0,1-2.472,1.457C317.8,80.318,317.816,80.465,317.774,80.8Z" transform="translate(-317.402 -76.877)" fill="#f7b7a9"/>
          <path id="パス_322" data-name="パス 322" d="M318.064,81.368a6.462,6.462,0,0,0,1.628.03,3.639,3.639,0,0,0,2.2-1.126l.15-1.074a6.348,6.348,0,0,1-2.473,1.455C318.085,80.884,318.106,81.031,318.064,81.368Z" transform="translate(-317.331 -76.737)" fill="#f7b7a9"/>
          <path id="パス_323" data-name="パス 323" d="M320.651,81.043c-1.376.595-1.318.732-1.275,1.069a3.092,3.092,0,0,0,1.382-.388,7.509,7.509,0,0,0,2-1.709l-.126-1.076A6.028,6.028,0,0,1,320.651,81.043Z" transform="translate(-317.01 -76.801)" fill="#f7b7a9"/>
        </g>
        <g id="グループ_185" data-name="グループ 185" transform="translate(15.594 46.386)">
          <path id="パス_324" data-name="パス 324" d="M348.849,88.29l-12.559.458-.37-.439c-1.242,19.6-1.218,19.1-.859,24.928.665,10.781.4,13.414.327,13.9-.7,1.716-3.228,3.685-4.162,4.4a6.194,6.194,0,0,0-1.241,1.125.636.636,0,0,0,.272.582,4.011,4.011,0,0,0,2.952.208c1.046-.428,2.082-1.558,3.57-1.863,1.528-.314,1.9-.776,1.9-.776a8.455,8.455,0,0,0-.192-3.5h0s1.2-6.5,1.366-8.957-.135-8.007-.135-8.007l2.074-9.862c.6,4.134,1.811,12.235,2.143,13.338.446,1.488,1.171,18.212,1.171,18.212l-2.814,4.346c-1.275.909-1.645,1.711-1.229,2.275.364.5,2.906.49,3.688,0,.765-.479,3.939-3.29,3.848-4.018s-.43-2.7-.43-2.7c.074-.874.584-6.852,1.12-11.369a18.31,18.31,0,0,0-.439-7.446l.913-15.8Z" transform="translate(-329.979 -88.29)" fill="#f7b7a9"/>
          <path id="パス_325" data-name="パス 325" d="M348.314,88.291l-12.559.456-.37-.439c-.269,4.248-.479,7.551-.639,10.178a2.129,2.129,0,0,1,2.134,1.131c1.933,3.355.56,7.982.72,11.715.217,5.109,1.124,10.428-.917,15.309a24.268,24.268,0,0,1-4.54,6.954,2.466,2.466,0,0,0,.53-.137c1.046-.428,2.082-1.558,3.569-1.863a3.478,3.478,0,0,0,1.9-.776,8.474,8.474,0,0,0-.193-3.5h0s1.2-6.5,1.367-8.959-.136-8.006-.136-8.006l1.3-6.2a2.032,2.032,0,0,1,.374-1.78l.4-1.881c.061.414,3.3.852,3.85,2.614,1.3,4.173,1.089,8.3,1.331,12.61.272,4.829.972,9.439.335,14.278-.41,3.132-.847,6.373-3.21,8.668-.109.1-.231.195-.344.294a2.8,2.8,0,0,0,1-.294c.765-.479,3.939-3.29,3.848-4.02s-.43-2.7-.43-2.7c.074-.874.584-6.851,1.12-11.369a18.318,18.318,0,0,0-.439-7.447l.913-15.8Z" transform="translate(-329.445 -88.29)" fill="#eaaea0"/>
          <path id="パス_326" data-name="パス 326" d="M338.772,121.015c-.014.009-.022.017-.036.025a33.026,33.026,0,0,1-5.212,2.345,6.58,6.58,0,0,1-2.686.378,6.191,6.191,0,0,0-.786.735h0l-.015.019-.052.065a.63.63,0,0,0,.224.546c.029.024.047.036.047.036a1.138,1.138,0,0,0,.417.2,4.875,4.875,0,0,0,1.2.2c.153.006.308,0,.461,0a2.83,2.83,0,0,0,.869-.182,3.787,3.787,0,0,0,.394-.191c.263-.145.528-.322.8-.506.137-.092.278-.187.422-.281a5.7,5.7,0,0,1,1.951-.885c1.528-.314,1.9-.776,1.9-.776a4.3,4.3,0,0,0,.106-.755l-.006,0A7.125,7.125,0,0,0,338.772,121.015Z" transform="translate(-329.979 -80.2)" fill="#002d42"/>
          <path id="パス_327" data-name="パス 327" d="M346.389,125.4c-.007-.057-.016-.112-.025-.173h0c-.037-.243-.08-.518-.125-.793-.7,1.155-1.223,2.482-2.469,3.159a4.133,4.133,0,0,1-3.917.077c-.867.682-1.21,1.295-1.085,1.78h0l0,0a.83.83,0,0,0,.127.279h0a.561.561,0,0,0,.231.161,2.016,2.016,0,0,0,.389.116,5.573,5.573,0,0,0,3.068-.277c.047-.03.1-.07.17-.116.979-.707,3.764-3.221,3.678-3.9-.009-.07-.02-.155-.034-.247Z" transform="translate(-327.813 -79.356)" fill="#002d42"/>
        </g>
        <path id="パス_328" data-name="パス 328" d="M341.839,51.634l2.476,6.969s4.065-1.156,1.174-5.939C343.818,49.9,341.839,51.634,341.839,51.634Z" transform="translate(-311.454 -51.098)" fill="#002d42"/>
        <path id="パス_329" data-name="パス 329" d="M344.643,54.073a2.111,2.111,0,0,1-2.01-.047l1.485,4.181s3.788-1.093,1.412-5.5A1.7,1.7,0,0,1,344.643,54.073Z" transform="translate(-311.257 -50.7)" fill="#09425e"/>
        <path id="パス_330" data-name="パス 330" d="M349.192,83.3l-13.44-.924-3.419,16.525s-.161,1.554,6.565,3.931c8.748,3.091,11.457-2.753,11.457-2.753l-.022-6.381A38.225,38.225,0,0,0,349.192,83.3Z" transform="translate(-313.803 -43.365)" fill="#002d42"/>
        <path id="パス_331" data-name="パス 331" d="M348.582,83.3l-13.44-.924-.338,1.105a18.738,18.738,0,0,1,5.273,2.559c5.353,3.844,5.317,8.849,5.939,14.812a1.625,1.625,0,0,1-.259,1.136,6.217,6.217,0,0,0,3.989-1.908l-.022-6.381A38.226,38.226,0,0,0,348.582,83.3Z" transform="translate(-313.193 -43.365)" fill="#6c90b1" opacity="0.1" style="mix-blend-mode: multiply;isolation: isolate"/>
        <g id="グループ_186" data-name="グループ 186" transform="translate(6.926 13.842)">
          <path id="パス_332" data-name="パス 332" d="M323.029,77.234l1.295,2.726,1.309-.521-1.088-2.759Z" transform="translate(-323.029 -58.616)" fill="#fff"/>
          <path id="パス_333" data-name="パス 333" d="M337.8,63.635C333.985,72.6,332.965,75.4,332.965,75.4l-9.188,4.693,1.464,3.263,10.9-3.944c.51-.288,4.212-8.251,5.153-12.7.454-2.151,2.476-2.548,3.007-3.14-1.19-.508-2.4-.972-3.641-1.369C340.238,62.066,337.981,63.942,337.8,63.635Z" transform="translate(-322.844 -62.196)" fill="#09425e"/>
        </g>
        <path id="パス_334" data-name="パス 334" d="M349.861,66.642a10.61,10.61,0,0,0-8.008-5.422,33.092,33.092,0,0,0-4.9,2.039c-.026.014-.051.019-.077.031-.171,1.065-.183,1.618-.316,2.188l-1.141,3-1.2,3.293c-.693,2.733,1.2,3.743,1.2,3.743l.77,6.76-1.811,8.092s8.778,4.315,14.954.19l-1.7-7.188a3.233,3.233,0,0,1-.067-.9C348.071,74.657,350.927,68.657,349.861,66.642Z" transform="translate(-313.375 -48.596)" fill="#fff"/>
        <path id="パス_335" data-name="パス 335" d="M334.85,65.331c-.145.59,1.747-.745,1.544.135l-1.154,2.941-1.157,3.344a3.871,3.871,0,0,0,1.154,4.1l.987,6.459-2.3,7.855a6.215,6.215,0,0,0,3.372,2.531c0-.071,2.111-10.064,1.018-18.051-.647-4.726-.859-8.266,1.336-12.664a1.627,1.627,0,0,1,1.018-.893,31.653,31.653,0,0,0-3.2.428C336.765,61.57,335.561,62.446,334.85,65.331Z" transform="translate(-313.41 -48.629)" fill="#09425e"/>
        <path id="パス_336" data-name="パス 336" d="M338.979,61.085a1.677,1.677,0,0,1-.026,1.175c-2.893,8.041-2.012,16.573-3.084,24.913a14.73,14.73,0,0,1-1.075,4.235,5.533,5.533,0,0,0,2.291,1.29c0-.071,2.111-10.064,1.018-18.051-.647-4.726-.859-8.266,1.336-12.664a1.627,1.627,0,0,1,1.018-.893C339.907,61.064,339.408,61.066,338.979,61.085Z" transform="translate(-313.195 -48.633)" fill="#09425e"/>
        <path id="パス_337" data-name="パス 337" d="M338.045,61.383l-.625,2.11-1.115.949s-.412,6.055,1.386,9.849a22.445,22.445,0,0,1,.314-9.675,7.86,7.86,0,0,1,2.087-3.528A4.6,4.6,0,0,0,338.045,61.383Z" transform="translate(-312.832 -48.631)" fill="#002d42"/>
        <path id="パス_338" data-name="パス 338" d="M349.486,66.041a10.414,10.414,0,0,0-4.061-3.924c-.095.162-6.932,7.882-8.073,12.832-.168.732-1.726,14.777-.029,17.668,2.734,1,9.681.318,11.926-2.057l-2.23-7.413a3.232,3.232,0,0,1-.067-.9C347.46,74.437,350.551,68.056,349.486,66.041Z" transform="translate(-312.764 -48.374)" fill="#09425e"/>
        <path id="パス_339" data-name="パス 339" d="M347.458,65.35a2.294,2.294,0,0,1-1.686,1.16c-.334.03-.667.044-1,.062a9.934,9.934,0,0,1,1.558,4.359c.017,2.346-1.8,4.662-2.326,6.9-1.069,4.587,2.079,9.652-1.348,13.622a7.756,7.756,0,0,1-.62.612c2.386-.335,4.722-1.1,5.857-2.3l-2.23-7.413a3.232,3.232,0,0,1-.067-.9c.379-5.837,2.31-10.767,2.824-13.738A3.917,3.917,0,0,1,347.458,65.35Z" transform="translate(-311.405 -47.575)" fill="#6c90b1" opacity="0.3" style="mix-blend-mode: multiply;isolation: isolate"/>
        <path id="パス_340" data-name="パス 340" d="M341.461,60.878c-2.836.539-3.336,2.664-3.079,3.12a22.392,22.392,0,0,1-.059,3s1.737-2.1,2.1-2.09a3.543,3.543,0,0,0,1.358-.2c2.754-.871,2.584-2.554,2.584-2.554A3.01,3.01,0,0,0,341.461,60.878Z" transform="translate(-312.323 -48.693)" fill="#f7b7a9"/>
        <path id="パス_341" data-name="パス 341" d="M343.57,59.67l-4.631-.505s-.08,1.83-.035,3.473a1.16,1.16,0,0,0,1.573,1.053l3.511-1.342A5.451,5.451,0,0,1,343.57,59.67Z" transform="translate(-312.182 -49.104)" fill="#f7b7a9"/>
        <path id="パス_342" data-name="パス 342" d="M343.473,60.158l-.136-.536-3.633-.374a.863.863,0,0,0-.952.9c.036.7.092,1.629.162,2.251a.863.863,0,0,0,.867.761c.853,0,2.493-.7,3.815-2.859C343.6,60.252,343.435,60.256,343.473,60.158Z" transform="translate(-312.217 -49.085)" fill="#eaaea0"/>
        <path id="パス_343" data-name="パス 343" d="M337.191,59.118c0,2.551,1.066,5.01,3.521,4.354a5.942,5.942,0,0,0,4.909-5.036l.526-3.6-8.679-1.548Z" transform="translate(-312.602 -50.556)" fill="#f7b7a9"/>
        <path id="パス_344" data-name="パス 344" d="M345.211,62.117c-6.883,6.868-7.8,11.917-7.8,11.917a24.784,24.784,0,0,1,6.522-7.12l-.414-1.344,3.069-2.556A5.186,5.186,0,0,0,345.211,62.117Z" transform="translate(-312.549 -48.374)" fill="#002d42"/>
        <path id="パス_345" data-name="パス 345" d="M347.557,87.783c-.012.227-.02.353-.02.353l-1.46,2.831-.182,2.951s.226.186.632-.725l.207-1.306.316,1.6-.171,1.045-.087.4c-.109.374.3.476.534.173.07-.087.533-.57.533-.57l.993-.617.579-1.277.131-3.381c.066-.415.146-.927.234-1.5-.685,0-1.369,0-2.055.031A1.743,1.743,0,0,1,347.557,87.783Z" transform="translate(-310.451 -42.036)" fill="#f8c4b8"/>
        <path id="パス_346" data-name="パス 346" d="M344.069,51.906a5.461,5.461,0,0,0-6,.94,3.958,3.958,0,0,0-1.115,4.218,9.171,9.171,0,0,0,5.67.4c.476-.152.876.284,1,.636a32.7,32.7,0,0,1,.478,3.493l-.009.651a8.287,8.287,0,0,0,2.165-3.851C347.054,54.043,345.106,52.463,344.069,51.906Z" transform="translate(-312.716 -51.023)" fill="#002d42"/>
        <path id="パス_347" data-name="パス 347" d="M342.482,58.675c.114.914.2,1.842.2,1.842l-.009.651a8.287,8.287,0,0,0,2.165-3.851A10.547,10.547,0,0,0,345,55.74,5.4,5.4,0,0,1,342.482,58.675Z" transform="translate(-311.295 -49.951)" fill="#09425e"/>
        <path id="パス_348" data-name="パス 348" d="M342.848,56.719c-.76-.025-.8.3-.8.3l.165,1.821s.5.2,1.028-.842C343.554,57.364,343.608,56.744,342.848,56.719Z" transform="translate(-311.403 -49.709)" fill="#f7b7a9"/>
        <path id="パス_349" data-name="パス 349" d="M340,64.853l.778,1.826s3.342-1.164,3.788-4.3l-1.13-1.308S341.742,64.454,340,64.853Z" transform="translate(-311.907 -48.633)" fill="#fff"/>
        <path id="パス_350" data-name="パス 350" d="M339.26,61.4h-.273a6.1,6.1,0,0,0-1.58,1.79l1.2.666a3.224,3.224,0,0,1,.661-1.883Z" transform="translate(-312.549 -48.551)" fill="#fff"/>
        <path id="パス_351" data-name="パス 351" d="M337.3,64.3l1.34-.8-1.2-.667Z" transform="translate(-312.577 -48.197)" fill="#ffec83"/>
        <g id="グループ_188" data-name="グループ 188" transform="translate(32.122 16.46)">
          <g id="グループ_187" data-name="グループ 187" transform="translate(0.518 0.405)">
            <path id="パス_352" data-name="パス 352" d="M347.891,65.64a1.549,1.549,0,0,0-1.586-1.013c-2.348.232-2.755,3.431-2.642,4.076.131.743,3.616,12.793,3.616,12.793l3.794-.856s-.92-6.33-1.861-10.384A38.356,38.356,0,0,0,347.891,65.64Z" transform="translate(-343.646 -64.62)" fill="#f7b7a9"/>
            <path id="パス_353" data-name="パス 353" d="M347.281,90.284l2.314.6s.723-10.4.735-11.422.024-2,.024-2l-3.794.856C346.987,81.53,347.281,90.284,347.281,90.284Z" transform="translate(-342.926 -61.445)" fill="#f7b7a9"/>
            <path id="パス_354" data-name="パス 354" d="M347.891,65.64a1.549,1.549,0,0,0-1.586-1.013c-2.348.232-2.755,3.431-2.642,4.076.131.743,3.616,12.793,3.616,12.793.428,3.209.722,11.963.722,11.963l2.314.6s.723-10.4.735-11.422l.024-2s-.92-6.33-1.861-10.384A38.356,38.356,0,0,0,347.891,65.64Z" transform="translate(-343.646 -64.62)" fill="#fff"/>
            <path id="パス_355" data-name="パス 355" d="M347.546,77.814c-.776-2.688-2.433-5.23-3.32-7.822,1.054,3.757,2.91,10.176,2.91,10.176.428,3.209.722,11.963.722,11.963l.488.127c-.157-1.7-.216-3.412-.224-5.131C348.1,84.033,348.414,80.823,347.546,77.814Z" transform="translate(-343.503 -63.293)" fill="#09425e"/>
          </g>
          <path id="パス_356" data-name="パス 356" d="M347.149,88.045a12.726,12.726,0,0,0,2.477.647l.178-2.007-2.713-.162Z" transform="translate(-342.277 -58.801)" fill="#fff"/>
          <path id="パス_357" data-name="パス 357" d="M347.994,65.72a2.255,2.255,0,0,0-1.786-1.423c-3.1.2-3.053,3.637-2.94,4.282.13.745,4,12.6,4,12.6.428,3.21.261,11.318.261,11.318l3.3.68.476-12.468s-1.054-6.322-1.994-10.377A38.344,38.344,0,0,0,347.994,65.72Z" transform="translate(-343.231 -64.296)" fill="#09425e"/>
          <path id="パス_358" data-name="パス 358" d="M347.4,65.72a2.271,2.271,0,0,0-1.765-1.421,2.037,2.037,0,0,1,.237.518,100.248,100.248,0,0,1,2.839,17.025,38.869,38.869,0,0,1-.215,10.98l1.741.358.478-12.468s-1.054-6.322-1.994-10.377A38.367,38.367,0,0,0,347.4,65.72Z" transform="translate(-342.637 -64.295)" fill="#09425e"/>
        </g>
        <path id="パス_359" data-name="パス 359" d="M338.551,73.6s4.319,3.15,6.871-.767C345.422,72.833,342.062,75.188,338.551,73.6Z" transform="translate(-312.266 -45.725)" fill="#09425e"/>
        <g id="グループ_194" data-name="グループ 194" transform="translate(22.77 5.163)">
          <path id="パス_360" data-name="パス 360" d="M335.862,56.087a.121.121,0,0,0,.147.192h0l1.006-.8-.035-.246Z" transform="translate(-335.713 -55.238)" fill="#09425e"/>
          <g id="グループ_193" data-name="グループ 193" transform="translate(0 0.796)">
            <g id="グループ_192" data-name="グループ 192">
              <g id="グループ_191" data-name="グループ 191">
                <g id="グループ_189" data-name="グループ 189" transform="translate(2.96 1.593)" opacity="0.5">
                  <path id="パス_361" data-name="パス 361" d="M339.353,57.376c-1.111-.383-1.248-.226-1.247.125a2.369,2.369,0,0,0,1.268,2c1.024.534,1.337.152,1.47-.619S340.509,57.775,339.353,57.376Z" transform="translate(-338.106 -57.154)" fill="#504845"/>
                </g>
                <g id="グループ_190" data-name="グループ 190" transform="translate(0.191 0.265)" opacity="0.5">
                  <path id="パス_362" data-name="パス 362" d="M337.048,56.408c-.927-.488-1.242-.466-1.146.409s.317,1.464,1.15,1.721c.374.116,1.132.115,1.122-.983C338.172,57.205,338.011,56.915,337.048,56.408Z" transform="translate(-335.886 -56.089)" fill="#504845"/>
                </g>
                <path id="パス_363" data-name="パス 363" d="M341.64,58.367a8.769,8.769,0,0,0-1.287-.612l.007,0c-.087-.034-.18-.069-.279-.1l-.147-.051a3.326,3.326,0,0,0-.952-.234c-.032,0-.071,0-.113,0a1.362,1.362,0,0,1-.43-.047,2.356,2.356,0,0,1-.4-.312c-.036-.035-.07-.064-.1-.089a4.268,4.268,0,0,0-.848-.544l-.122-.062q-.133-.069-.247-.12h.01a3.415,3.415,0,0,0-.953-.319l0,.006c-.019,0-.034.014-.035.04l-.015.191a.1.1,0,0,0,.044.09l.021.012a.286.286,0,0,1,.064.2c0,.022,0,.04,0,.056a2.125,2.125,0,0,0,.011.379,1.894,1.894,0,0,0,.91,1.7,2.03,2.03,0,0,0,.316.126.846.846,0,0,0,1.18-.808l0,.009v-.034c0-.032,0-.066.006-.1.024-.193.1-.182.142-.166h0l.01,0,.009,0v0c.044.019.148.087.17.339l0,.042,0,.057,0-.01a2.5,2.5,0,0,0,1.324,1.883,3.108,3.108,0,0,0,.383.17c.807.282,1.073-.131,1.19-.821a1.439,1.439,0,0,0,.02-.344.366.366,0,0,0,.005-.075c0-.137.092-.137.092-.137l.031.01c.039.011.067-.01.064-.047l-.02-.2A.111.111,0,0,0,341.64,58.367Zm-4.56.136a1.818,1.818,0,0,1-.289-.116c-.544-.278-.7-.763-.783-1.5-.037-.326-.01-.516.08-.6.123-.117.385-.051.876.2l.118.062c.957.5,1.054.753,1.055,1.029C338.143,58.751,337.255,58.556,337.08,58.5Zm4.258.651c-.112.647-.328.983-1.014.743a2.723,2.723,0,0,1-.353-.156,2.26,2.26,0,0,1-1.2-1.891c0-.277.07-.45,1.174-.07l.145.051a2.377,2.377,0,0,1,1.137.646A.849.849,0,0,1,341.338,59.154Z" transform="translate(-335.733 -55.876)" fill="#09425e"/>
              </g>
            </g>
          </g>
          <path id="パス_364" data-name="パス 364" d="M342.449,56.614l.022,0,.017-.013Z" transform="translate(-334.073 -54.902)" fill="#09425e"/>
          <path id="パス_365" data-name="パス 365" d="M342.914,56.507l-.021,0-.019.014-2.417,1.833a.121.121,0,1,0,.146.193h0l2.372-1.858-.022,0,.039-.017-.016.014,1.151-.241a.1.1,0,0,0,.075-.115.1.1,0,0,0-.113-.075Z" transform="translate(-334.577 -54.985)" fill="#09425e"/>
        </g>
      </g>
      <g id="グループ_207" data-name="グループ 207" transform="translate(308.355 137.499)">
        <g id="グループ_200" data-name="グループ 200" transform="translate(0.566 16.693)">
          <path id="パス_366" data-name="パス 366" d="M309.753,139.853l.8,3.655,2.976,2.419,1.53,1.158,1.3-1.515-1.191-.823Z" transform="translate(-308.575 -132.252)" fill="#fcb698"/>
          <g id="グループ_199" data-name="グループ 199">
            <g id="グループ_198" data-name="グループ 198" style="isolation: isolate">
              <g id="グループ_196" data-name="グループ 196" transform="translate(0.769 0.685)">
                <path id="パス_367" data-name="パス 367" d="M309.425,140.156l5.952,5.64,9.211-6.126-6.382-5.362Z" transform="translate(-309.425 -134.308)" fill="#fff"/>
              </g>
              <g id="グループ_197" data-name="グループ 197">
                <path id="パス_368" data-name="パス 368" d="M318.364,133.8a.426.426,0,0,0-.388.02l-9.092,6.049a.119.119,0,0,0,.01.225l6.894,6.126a.426.426,0,0,0,.388-.019l9.092-6.05a.119.119,0,0,0-.01-.224Zm-2.426,11.852-5.952-5.64,8.371-5.565,5.952,5.64Z" transform="translate(-308.808 -133.759)" fill="#002d42"/>
              </g>
              <path id="パス_369" data-name="パス 369" d="M325.268,138.914l-9.092,6.05a.426.426,0,0,1-.388.019l-6.894-6.126a.133.133,0,0,1-.085-.107l.017.332a.133.133,0,0,0,.085.107l6.895,6.126a.422.422,0,0,0,.388-.02l9.093-6.049a.136.136,0,0,0,.075-.117l-.017-.332A.137.137,0,0,1,325.268,138.914Z" transform="translate(-308.808 -132.525)" fill="#09425e"/>
            </g>
          </g>
          <path id="パス_370" data-name="パス 370" d="M313.1,145.254c4.016,6.754,4.723,7.173,5.639,7.1.888-.069.927-5.188.927-5.188l-4.133-3.381Z" transform="translate(-307.748 -131.28)" fill="#d5e0ee"/>
          <path id="パス_371" data-name="パス 371" d="M312.676,141.828v-1.779c0-1.2-.867-.972-.867-.972l-.289,2.9-.229.742,2.829,1.623C314.374,142.964,312.676,141.828,312.676,141.828Z" transform="translate(-308.195 -132.449)" fill="#fcb698"/>
        </g>
        <path id="パス_372" data-name="パス 372" d="M317.612,136.968c.082.846,1.2.708,1.2.708l1.126.052a18.233,18.233,0,0,1,.215,1.951c0,.611.673.742.673.742l2.649.577,1.754-3.591-3.1-.858Z" transform="translate(-306.066 -116.376)" fill="#fcb698"/>
        <g id="グループ_203" data-name="グループ 203" transform="translate(0 43.016)">
          <g id="グループ_202" data-name="グループ 202">
            <g id="グループ_201" data-name="グループ 201">
              <path id="パス_373" data-name="パス 373" d="M315.45,173.492a29.152,29.152,0,0,1-4.872.56c-1.487,0-3.123,1.452-1.641,2.252,1.907,1.031,8.333,2.393,8.333,2.393s2,.54,2.951-.807a1.336,1.336,0,0,0,.222-.862l-.165-2.449Z" transform="translate(-308.355 -150.26)" fill="#e5ecf4"/>
              <path id="パス_374" data-name="パス 374" d="M317.639,173.9a9.485,9.485,0,0,1-5.111,2.464,5.687,5.687,0,0,1-3,0l-.988-.418a1.393,1.393,0,0,0,.349.262c1.907,1.031,8.333,2.393,8.333,2.393s2,.54,2.951-.807a1.336,1.336,0,0,0,.222-.862l-.165-2.449Z" transform="translate(-308.308 -150.16)" fill="#6c90b1" opacity="0.1" style="mix-blend-mode: multiply;isolation: isolate"/>
              <path id="パス_375" data-name="パス 375" d="M328.45,171.11l-4.495-.843a40.647,40.647,0,0,1-4.6.344c-1.451,0-2.615,1.67-1.271,2.211l7.381,2.334s2.35.659,3.31-.721a.967.967,0,0,0,.142-.725Z" transform="translate(-306.095 -151.057)" fill="#e5ecf4"/>
              <path id="パス_376" data-name="パス 376" d="M328.5,171.307a19.282,19.282,0,0,1-10.859.977,1.071,1.071,0,0,0,.414.282l7.381,2.334s2.35.659,3.31-.721a.967.967,0,0,0,.142-.725Z" transform="translate(-306.06 -150.8)" fill="#6c90b1" opacity="0.1" style="mix-blend-mode: multiply;isolation: isolate"/>
              <path id="パス_377" data-name="パス 377" d="M318.787,163.582c-1.417-.166-2.738-8.628-2.738-8.628s-6.058-1.038-6.058,3.971l4.726,19.389c.035.741.387,1.46,1.793,1.841a3.44,3.44,0,0,0,3.395-.58S318.533,169.329,318.787,163.582Z" transform="translate(-307.95 -154.865)" fill="#002d42"/>
              <path id="パス_378" data-name="パス 378" d="M317.612,157.053l8.227,16.993c.052.979,1.09,1.624,2.062,1.756,2.109.286,2.634-.874,2.634-.874l-6.8-17.1C323.519,157.881,319.417,157.253,317.612,157.053Z" transform="translate(-306.066 -154.324)" fill="#002d42"/>
            </g>
          </g>
        </g>
        <path id="パス_379" data-name="パス 379" d="M319.567,152.263c-2.619,1.023-2.613,2.864-2.613,2.864l.251,2.36,5.243,1.4,2.947-3.417-1.793-3.2S320.506,151.9,319.567,152.263Z" transform="translate(-306.229 -112.532)" fill="#002d42"/>
        <path id="パス_380" data-name="パス 380" d="M314.531,182.47h.01l-.01,2.44a.427.427,0,0,0,.251.35,1.347,1.347,0,0,0,1.22,0,.433.433,0,0,0,.254-.355l.026-21.473a10.888,10.888,0,0,1-1.729-1.041Z" transform="translate(-306.828 -109.989)" fill="#92b3cb"/>
        <path id="パス_381" data-name="パス 381" d="M323.3,189.8h.01l-.01,2.44a.432.432,0,0,0,.251.35,1.347,1.347,0,0,0,1.22,0,.428.428,0,0,0,.254-.355l.026-21.472a10.925,10.925,0,0,1-1.727-1.043Z" transform="translate(-304.661 -108.177)" fill="#92b3cb"/>
        <path id="パス_382" data-name="パス 382" d="M327,176.442h.01l-.01,2.44a.425.425,0,0,0,.251.35,1.34,1.34,0,0,0,1.22,0,.433.433,0,0,0,.254-.355l.026-21.472a10.923,10.923,0,0,1-1.727-1.043Z" transform="translate(-303.746 -111.479)" fill="#92b3cb"/>
        <path id="パス_383" data-name="パス 383" d="M337.648,182.983h.01l-.01,2.438a.433.433,0,0,0,.251.352,1.344,1.344,0,0,0,1.22,0,.427.427,0,0,0,.254-.355l.026-21.472a10.825,10.825,0,0,1-1.727-1.041Z" transform="translate(-301.113 -109.861)" fill="#92b3cb"/>
        <g id="グループ_204" data-name="グループ 204" transform="translate(4.038 43.775)">
          <path id="パス_384" data-name="パス 384" d="M344.457,163.262l-11.922-6.883a8.318,8.318,0,0,0-7.548,0l-11.845,6.883c-2.077,1.206-2.065,3.167.024,4.373l11.923,6.883a8.318,8.318,0,0,0,7.548,0l11.845-6.883C346.561,166.426,346.55,164.47,344.457,163.262Z" transform="translate(-311.592 -155.473)" fill="#ff836e"/>
        </g>
        <g id="グループ_206" data-name="グループ 206" transform="translate(5.07)">
          <g id="グループ_205" data-name="グループ 205">
            <path id="パス_385" data-name="パス 385" d="M323.91,156.56l-8.461-1.624-3.029,3.887c.171,3.16,17,10.595,21.144,7.731.168-.117,6.472-5.357,6.308-7.607-.054-.741-.18-1.9-.323-3.114C334.235,157.366,324.113,156.6,323.91,156.56Z" transform="translate(-312.42 -111.831)" fill="#002d42"/>
            <path id="パス_386" data-name="パス 386" d="M338.4,132.942s-5.127-2.035-8.622-.863c-1.436.483-.77.715-3.46,2.06a10.456,10.456,0,0,0-3.37,2.477s.455,10.666,0,14.616a92.738,92.738,0,0,0-.765,11.417s.594,3.056,4.4,3.067c4.43.012,11.232-2.819,11.232-2.819a78.188,78.188,0,0,1,1.147-8.018c1.285-5.135,3.452-15.363,2.911-18.305A4.43,4.43,0,0,0,338.4,132.942Z" transform="translate(-310.008 -117.571)" fill="#d5e0ee"/>
            <path id="パス_387" data-name="パス 387" d="M325.249,152.447c-.372,2.955.1,5.861-.782,8.774a5.86,5.86,0,0,1-.6,1.346,5.193,5.193,0,0,0,2.3.486c4.43.012,11.232-2.819,11.232-2.819a78.195,78.195,0,0,1,1.147-8.018,48.634,48.634,0,0,0,.846-9.727c-4.1,1.982-9.177,2.523-12.441,5.737A7.476,7.476,0,0,0,325.249,152.447Z" transform="translate(-309.59 -114.908)" fill="#6c90b1" opacity="0.1" style="mix-blend-mode: multiply;isolation: isolate"/>
            <path id="パス_388" data-name="パス 388" d="M327.36,128.588l.193,4.673c0,1.727,5.89,1.084,5.89-.644l-.292-4.03Z" transform="translate(-308.727 -118.344)" fill="#fcb698"/>
            <path id="パス_389" data-name="パス 389" d="M333.538,130.962c-.533,1.752-3.927,1.845-5.866,1.119l-.893.947c1.192,1.694,4.739,1.6,6.631.423.511-.321,1.156-.823.907-1.374Z" transform="translate(-308.87 -117.757)" fill="#fff"/>
            <path id="パス_390" data-name="パス 390" d="M326.375,129.205c.473,2.86,1.31,3.531,3.831,3.685,0,0,4.925-.216,5.085-2.829l.823-4.805-10.279-2Z" transform="translate(-309.104 -119.661)" fill="#fcb698"/>
            <path id="パス_391" data-name="パス 391" d="M329.151,120.612c-2.132.782-5.531,2.685-2.517,5.072,0,0,.639.644.514,2.68s1.927,3.915,3.446,5.269c1.1.985,3.791-.367,3.791-.367s3.3-3.309,2.121-9.37C335.791,120.206,330.65,120.063,329.151,120.612Z" transform="translate(-309.201 -120.374)" fill="#81524f"/>
            <path id="パス_392" data-name="パス 392" d="M326.647,127.047l.407,1.918c.755.481.67-.9.607-2.053C327.576,125.346,326.647,127.047,326.647,127.047Z" transform="translate(-308.903 -118.922)" fill="#fcb698"/>
          </g>
        </g>
        <path id="パス_393" data-name="パス 393" d="M337.493,143.044l-7.992,4.742a6.082,6.082,0,0,0-2.965,4.835l-2.381,25.965,18.81-9.837-.274-22.891A3.444,3.444,0,0,0,337.493,143.044Z" transform="translate(-304.449 -114.891)" fill="#ff836e"/>
        <path id="パス_394" data-name="パス 394" d="M325.614,135.362c-2.035-.791-4.588,5.667-4.588,5.667l-1.931,4.4s-3.241,5.75-2.719,7.925a1.218,1.218,0,0,0,1.423,1.159c.263-.02,2.312.829,4.812-3.429,1.312-2.236,4.284-9.444,4.284-9.444S329.088,136.712,325.614,135.362Z" transform="translate(-306.386 -116.686)" fill="#d5e0ee"/>
      </g>
      <g id="グループ_221" data-name="グループ 221" transform="translate(381.117 95.585)">
        <path id="パス_395" data-name="パス 395" d="M386.92,139.823h.01l-.01,2.438a.433.433,0,0,0,.252.352,1.341,1.341,0,0,0,1.218,0,.425.425,0,0,0,.254-.355l.026-21.472a10.739,10.739,0,0,1-1.727-1.043Z" transform="translate(-361.695 -78.616)" fill="#002d42"/>
        <path id="パス_396" data-name="パス 396" d="M397.058,146.673h.01l-.01,2.44a.425.425,0,0,0,.251.35,1.34,1.34,0,0,0,1.22,0,.432.432,0,0,0,.254-.355l.026-21.472a10.994,10.994,0,0,1-1.729-1.043Z" transform="translate(-359.189 -76.923)" fill="#92b3cb"/>
        <path id="パス_397" data-name="パス 397" d="M372.659,138.375s-3.3-.15-3.627-.173c-.274-.02-3.109-.424-2.134,1.257a4.072,4.072,0,0,0,1.53,1.073s4.635,1.537,5.076,1.569,2.255.248,2.628-1.085l-.5-1.993Z" transform="translate(-366.695 -74.067)" fill="#fff"/>
        <path id="パス_398" data-name="パス 398" d="M375.9,140.542a4.189,4.189,0,0,1-3.858.579,20.722,20.722,0,0,1-3.94-1.26,4.693,4.693,0,0,1-1.387-1.036h0a1.42,1.42,0,0,0,.182.468,4.071,4.071,0,0,0,1.53,1.073s4.635,1.537,5.076,1.569,2.255.248,2.628-1.085l-.1-.385C375.989,140.493,375.941,140.514,375.9,140.542Z" transform="translate(-366.691 -73.9)" fill="#ff836e"/>
        <path id="パス_399" data-name="パス 399" d="M381.423,133.957s-1.5-.289-1.816-.39c-.262-.084-3.316-1.076-2.764.787.114.384.374,1.028,1.769,1.565a8.516,8.516,0,0,1,1.348.639,24.553,24.553,0,0,1,1.971,1.492c.58.392,2.735,1.086,3.088-.587l-.5-2.517Z" transform="translate(-364.203 -75.282)" fill="#fff"/>
        <path id="パス_400" data-name="パス 400" d="M381.053,136.931a17.725,17.725,0,0,0-2.793-1.62,3.112,3.112,0,0,1-1.47-1.537,1.217,1.217,0,0,0,.051.445c.113.384.374,1.028,1.769,1.565a8.517,8.517,0,0,1,1.348.639,24.561,24.561,0,0,1,1.971,1.492c.58.392,2.735,1.086,3.088-.587l-.04-.2C383.925,138.372,382.2,137.81,381.053,136.931Z" transform="translate(-364.2 -75.148)" fill="#ff836e"/>
        <path id="パス_401" data-name="パス 401" d="M377.476,122.652l4.055,14.719a1.522,1.522,0,0,0,.748.962,1.618,1.618,0,0,0,2.141-.387s-.62-7.963-1.414-12.74C381.357,124.16,379.236,123.587,377.476,122.652Z" transform="translate(-364.03 -77.897)" fill="#fad4cc"/>
        <path id="パス_402" data-name="パス 402" d="M377.476,122.652l4.055,14.719a1.522,1.522,0,0,0,.748.962,1.618,1.618,0,0,0,2.141-.387s-.62-7.963-1.414-12.74C381.357,124.16,379.236,123.587,377.476,122.652Z" transform="translate(-364.03 -77.897)" fill="#09425e"/>
        <path id="パス_403" data-name="パス 403" d="M375.348,122.533c-1.744-.349-2.931-3.289-4.674-3.586,0,0-.022,7.95.091,10.626.147,3.5.95,14.077.95,14.077.587,1.5,2.189.994,2.875.3.283-.287,2.112-17.1.687-21.259C375.261,122.641,375.293,122.589,375.348,122.533Z" transform="translate(-365.712 -78.813)" fill="#fad4cc"/>
        <path id="パス_404" data-name="パス 404" d="M368.5,139.424l.382.1a2.156,2.156,0,0,1,.832-1.281l-.45-.022A1.85,1.85,0,0,0,368.5,139.424Z" transform="translate(-366.249 -74.049)" fill="#ff836e"/>
        <path id="パス_405" data-name="パス 405" d="M383.222,153.18h.009l-.009,2.438a.425.425,0,0,0,.251.35,1.34,1.34,0,0,0,1.22,0,.432.432,0,0,0,.254-.355l.026-21.472a10.786,10.786,0,0,1-1.729-1.043Z" transform="translate(-362.61 -75.315)" fill="#002d42"/>
        <path id="パス_406" data-name="パス 406" d="M369.123,139.516l.382.029a2.153,2.153,0,0,1,.831-1.282l-.449-.022A2.166,2.166,0,0,0,369.123,139.516Z" transform="translate(-366.095 -74.044)" fill="#ff836e"/>
        <path id="パス_407" data-name="パス 407" d="M369.746,139.536l.415.044a2.157,2.157,0,0,1,.832-1.282l-.45-.021A2.048,2.048,0,0,0,369.746,139.536Z" transform="translate(-365.941 -74.035)" fill="#ff836e"/>
        <path id="パス_408" data-name="パス 408" d="M378.129,134.117l.338.147a4.5,4.5,0,0,1,1.318-.652l-.258-.059A2.534,2.534,0,0,0,378.129,134.117Z" transform="translate(-363.868 -75.202)" fill="#ff836e"/>
        <path id="パス_409" data-name="パス 409" d="M378.648,134.344l.32.1a5.442,5.442,0,0,1,1.329-.722l-.334-.069A4.286,4.286,0,0,0,378.648,134.344Z" transform="translate(-363.74 -75.178)" fill="#ff836e"/>
        <path id="パス_410" data-name="パス 410" d="M373.016,146.262h.009l-.009,2.439a.425.425,0,0,0,.251.35,1.34,1.34,0,0,0,1.22,0,.432.432,0,0,0,.254-.355l.026-21.472a10.879,10.879,0,0,1-1.729-1.043Z" transform="translate(-365.132 -77.025)" fill="#92b3cb"/>
        <path id="パス_411" data-name="パス 411" d="M380.427,133.754a3.534,3.534,0,0,0-1.141.768l.326.1a6.5,6.5,0,0,1,1.02-.652l-.049-.191Z" transform="translate(-363.582 -75.153)" fill="#ff836e"/>
        <g id="グループ_208" data-name="グループ 208" transform="translate(6.041 40.067)">
          <path id="パス_412" data-name="パス 412" d="M404.4,126.682,392.481,119.8a8.318,8.318,0,0,0-7.548,0l-11.845,6.883c-2.075,1.206-2.064,3.167.025,4.373l11.922,6.883a8.318,8.318,0,0,0,7.548,0l11.845-6.883C406.508,129.846,406.5,127.89,404.4,126.682Z" transform="translate(-371.539 -118.893)" fill="#ff836e"/>
        </g>
        <path id="パス_413" data-name="パス 413" d="M379.423,116.733c-6.17-1.517-9.257-.152-8.739,2.915,0,0,2.605,4.378,4.366,4.621,7.518,2.221,16.745,1.325,16.745,1.325l4.565-3.555-7.738-3.7A80.462,80.462,0,0,1,379.423,116.733Z" transform="translate(-365.723 -79.514)" fill="#fad4cc"/>
        <path id="パス_414" data-name="パス 414" d="M374.214,119.153s3.669,2.351,5.43,2.593c7.518,2.221,16-.188,16-.188L400.2,118l-7.738-3.7S373.189,113.088,374.214,119.153Z" transform="translate(-364.846 -79.985)" fill="#fad4cc"/>
        <path id="パス_415" data-name="パス 415" d="M397.274,114.378,382.4,115.959l-5.948,3.385s-3.866,4.742,1.195,6.857c2.826,1.18,6.063,4.5,12.275,3.212,4.227-.878,7.272-4.526,6.578-8.785C395.965,117.36,397.878,115.336,397.274,114.378Z" transform="translate(-364.632 -79.942)" fill="#306d93"/>
        <g id="グループ_219" data-name="グループ 219" transform="translate(3.376 15.328)">
          <path id="パス_416" data-name="パス 416" d="M386.641,111.971a.166.166,0,0,0-.008-.314l-3.682-2.005-.2-.11a.6.6,0,0,0-.543.015l-10.358,6.372a.166.166,0,0,0,.008.314l3.885,2.115a.6.6,0,0,0,.543-.015l4.779-2.94Z" transform="translate(-368.824 -96.48)" fill="#09425e"/>
          <path id="パス_417" data-name="パス 417" d="M382.618,113.394a.6.6,0,0,0-.543.015l-2.918,1.795-.609.375c-.148.091-.146.232.006.314l.319.173,2.1,1.144a.6.6,0,0,0,.543-.015l3.527-2.17a.166.166,0,0,0-.007-.314Z" transform="translate(-367.168 -95.528)" fill="#09425e"/>
          <g id="グループ_212" data-name="グループ 212">
            <g id="グループ_211" data-name="グループ 211" style="isolation: isolate">
              <g id="グループ_209" data-name="グループ 209" transform="translate(0.127 0.14)">
                <path id="パス_418" data-name="パス 418" d="M382.5,99.229l-12.623,7.842a.861.861,0,0,0-.37.686l.41,10.707,13.392-8.315L382.9,99.441C382.888,99.193,382.709,99.1,382.5,99.229Z" transform="translate(-369.504 -99.17)" fill="#002d42"/>
              </g>
              <g id="グループ_210" data-name="グループ 210">
                <path id="パス_419" data-name="パス 419" d="M382.394,99.116l-12.622,7.842a.858.858,0,0,0-.37.687l.279,10.425a.5.5,0,0,0,.258.422l-.41-10.707a.861.861,0,0,1,.37-.686l12.623-7.842a.273.273,0,0,1,.277-.035l-.127-.141A.281.281,0,0,0,382.394,99.116Z" transform="translate(-369.402 -99.057)" fill="#09425e"/>
              </g>
            </g>
          </g>
          <path id="パス_420" data-name="パス 420" d="M392.715,112a.091.091,0,0,1,0,.019v.02l0,.017,0,.019-.006.016-.009.02-.007.014-.015.022-.02.029,0,0-.024.024-.016.015-.02.016-.019.014-.032.022L379.6,120.22a.6.6,0,0,1-.062.034l-.017.007-.056.024-.014.005-.027.009-.029.007-.029.007-.029.006-.071.012-.022,0-.042,0h-.029l-.035,0h-.091l-.031,0-.029,0-.034,0-.026-.005-.04-.007-.022,0-.07-.021-.034-.014-.017-.006-.049-.025-8.678-4.941a.317.317,0,0,1-.193-.254l.012.442a.319.319,0,0,0,.193.256l8.672,4.7.049.024.017.006.032.014h0l.07.021h.007l.015,0,.039.009.014,0h.014l.034.005.016,0h.012l.031,0h.153l.044,0h.022l.071-.012h0l.025-.006.029-.007.029-.008.027-.009h0l.01,0,.056-.022.017-.009a.6.6,0,0,0,.062-.034l12.93-7.953.021-.014.011-.009.019-.014.02-.016.016-.015.007-.006.016-.017,0,0,.017-.022,0,0,.015-.024.006-.011h0l.009-.021,0-.014v0l0-.019,0-.015v0l0-.019V112.2Z" transform="translate(-369.296 -95.859)" fill="#09425e"/>
          <g id="グループ_214" data-name="グループ 214" transform="translate(0.532 10.883)">
            <g id="グループ_213" data-name="グループ 213" style="isolation: isolate">
              <path id="パス_421" data-name="パス 421" d="M382.643,112.986a.6.6,0,0,0-.543.015l-2.917,1.8-.61.374a.166.166,0,0,0,.006.314l.319.173L381,116.8a.6.6,0,0,0,.543-.015l3.527-2.17a.166.166,0,0,0-.006-.314Z" transform="translate(-367.694 -106.511)" fill="#c5d5e7"/>
              <path id="パス_422" data-name="パス 422" d="M392.523,112.8l-8.6-4.923a1,1,0,0,0-.9.026l-1.1.673.226.123.227.122-10.728,6.6-.451-.246-1.185.662a.277.277,0,0,0,.011.524l8.679,4.941a1,1,0,0,0,.905-.025l12.93-7.955A.277.277,0,0,0,392.523,112.8ZM387.2,115.89l-3.527,2.17a.6.6,0,0,1-.543.015l-2.1-1.144-.319-.173a.166.166,0,0,1-.006-.314l.61-.374,2.917-1.8a.6.6,0,0,1,.543-.015l2.42,1.317A.166.166,0,0,1,387.2,115.89Z" transform="translate(-369.828 -107.783)" fill="#002d42"/>
            </g>
          </g>
          <path id="パス_423" data-name="パス 423" d="M370.924,115.02l.452.246,10.727-6.6-.452-.246Z" transform="translate(-369.025 -96.743)" fill="#09425e"/>
          <g id="グループ_215" data-name="グループ 215" transform="translate(0.877 1.318)">
            <path id="パス_424" data-name="パス 424" d="M370.1,107.593l.257,9.21,12.015-7.391-.25-9.3Z" transform="translate(-370.105 -100.114)" fill="#d4e3e6"/>
          </g>
          <g id="グループ_218" data-name="グループ 218" transform="translate(0.875 1.335)">
            <g id="グループ_217" data-name="グループ 217" style="isolation: isolate">
              <g id="グループ_216" data-name="グループ 216">
                <path id="パス_425" data-name="パス 425" d="M370.1,107.519l.261,9.36,12.038-7.392-.288-9.359Z" transform="translate(-370.103 -100.128)" fill="#ffec83"/>
              </g>
            </g>
          </g>
          <path id="パス_426" data-name="パス 426" d="M383.111,109.191l-.2-.11a.6.6,0,0,0-.543.015l-10.359,6.372a.166.166,0,0,0,.007.314L375.9,117.9a.6.6,0,0,0,.543-.015l4.779-2.941,5.579-3.431a.167.167,0,0,0-.007-.316Z" transform="translate(-368.784 -96.594)" fill="#002d42"/>
        </g>
        <g id="グループ_220" data-name="グループ 220" transform="translate(8.473)">
          <path id="パス_427" data-name="パス 427" d="M379.116,113.229l.031,0a12.339,12.339,0,0,0-1.3-.9,6.869,6.869,0,0,1-.636-.339c-.177-.074-.263-.009-.359.133-.061.091.08.251.193.359l-1.124-.479-1.014-.035c-.221.116-.215.231-.151.319l-.525-.017c-.46.238.054.48.054.48l.352.046-.832.007c-.459.239.055.48.055.48l.763.138.327.188-.026-.007-1.245-.261c-.459.238.054.48.054.48l1.427.54.7.379,0-.026a2.228,2.228,0,0,0,.4.317,7.5,7.5,0,0,0,2.09.624l1.451-1.735A5.9,5.9,0,0,0,379.116,113.229Z" transform="translate(-373.489 -80.539)" fill="#fad4cc"/>
          <path id="パス_428" data-name="パス 428" d="M397.767,104.2c-.026-.783.373-5.347-2.734-6.575,0,0-6.229.73-9.828,3.081-2.229,1.455-.6,4.228-1.124,5.155a4.7,4.7,0,0,0-.09,5.056l.242,6.706-1.411,2.05s1.786,9.257,7.3,7.688,5.382-8.072,5.382-8.072l2.7-1.982Z" transform="translate(-371.182 -84.083)" fill="#fff"/>
          <path id="パス_429" data-name="パス 429" d="M397.767,104.066c-.022-.675.264-4.154-1.643-5.891l-.125,0a4.044,4.044,0,0,1-.726.221c-.413.239-1.283.765-1.528.939-.747.53-3.28.76-4.242,1.949-.841,1.041-.974,4.108-1.731,5.615a2.574,2.574,0,0,1-.331.585,6.464,6.464,0,0,1-.177.622c-.133.427-.59,2.617-.338.661a10.135,10.135,0,0,1-2.791,6.033l.1,2.684-1.411,2.05s1.786,9.257,7.3,7.688,5.382-8.072,5.382-8.072l2.7-1.982Z" transform="translate(-371.182 -83.948)" fill="#6c90b1" opacity="0.1" style="mix-blend-mode: multiply;isolation: isolate"/>
          <path id="パス_430" data-name="パス 430" d="M394.758,107.733c.01.107.017.206.027.312C395.153,108.606,394.724,107.76,394.758,107.733Z" transform="translate(-368.232 -81.585)" fill="#6c90b1" opacity="0.1" style="mix-blend-mode: multiply;isolation: isolate"/>
          <path id="パス_431" data-name="パス 431" d="M397.411,108.156c-.039-.061-.08-.123-.14-.221-1.575-2.543-5.738,3.007-7.588,5.41-2.184,2.837-4.158,5.242-5.549,8.468,1.14,2.08,2.951,3.934,5.669,3.16,5.519-1.568,5.382-8.072,5.382-8.072l2.7-1.982S397.773,112.051,397.411,108.156Z" transform="translate(-370.857 -81.696)" fill="#6c90b1" opacity="0.1" style="mix-blend-mode: multiply;isolation: isolate"/>
          <path id="パス_432" data-name="パス 432" d="M386.1,100.776c-1.337,1.4-.92,10.412-1.266,15.814-2.443-.264-5.9,0-6.52-.135-1.146.637-1.764,1.278-1.286,2.215l9.124,3.631a2.043,2.043,0,0,0,2.219-1.644,64.932,64.932,0,0,0,1.258-13.733C389.635,103.511,390.335,96.337,386.1,100.776Z" transform="translate(-372.653 -83.653)" fill="#fff"/>
          <path id="パス_433" data-name="パス 433" d="M389.438,108.952c-.354,5.148-4.9,9.345-10.262,7.816-.662-.188-1.322-.417-1.972-.673a1.14,1.14,0,0,0-.172,1.388l9.124,3.631a2.043,2.043,0,0,0,2.219-1.644,64.931,64.931,0,0,0,1.258-13.733c0-.465.013-1,.024-1.563l-.039.032C389.617,105.783,389.547,107.363,389.438,108.952Z" transform="translate(-372.653 -82.465)" fill="#6c90b1" opacity="0.1" style="mix-blend-mode: multiply;isolation: isolate"/>
          <path id="パス_434" data-name="パス 434" d="M385.744,95.642c-.137,2.5,1.535,3.693,3.911,3.823,0,0,4.474-1.124,4.608-3.584l.746-4.529-8.917-2.017Z" transform="translate(-370.461 -86.133)" fill="#fad4cc"/>
          <path id="パス_435" data-name="パス 435" d="M388.5,86.983c-2,.747-5.191,2.558-2.339,4.789,0,0,1.2.367,1.094,2.285a12.079,12.079,0,0,0,3.016,7.074,4.886,4.886,0,0,0,4.218.072,3.737,3.737,0,0,0,2.082-3.2c.056-1.56.645-2.967-1.125-7.97C394.269,86.693,389.914,86.456,388.5,86.983Z" transform="translate(-370.635 -86.768)" fill="#002d42"/>
        </g>
        <path id="パス_436" data-name="パス 436" d="M397.44,106.464l-7.992,4.742a6.083,6.083,0,0,0-2.966,4.835L384.1,142.006l18.811-9.837-.276-22.89A3.443,3.443,0,0,0,397.44,106.464Z" transform="translate(-362.392 -82.019)" fill="#ff836e"/>
      </g>
      <g id="グループ_228" data-name="グループ 228" transform="translate(349.126 110.513)">
        <path id="パス_437" data-name="パス 437" d="M352.56,131.734c.333-.121,6.2-2.332,6.2-2.332l-2.554-7.73Z" transform="translate(-338.198 -93.067)" fill="#ff836e"/>
        <path id="パス_438" data-name="パス 438" d="M352.56,131.734c.333-.121,6.2-2.332,6.2-2.332l-2.554-7.73Z" transform="translate(-338.198 -93.067)" fill="#002d42"/>
        <path id="パス_439" data-name="パス 439" d="M348.039,132.191l-1.207,1.979,9,4.1,2.948-3.416.539-2.205s-3.724-.77-4.985-.884C353,131.646,348.735,131.05,348.039,132.191Z" transform="translate(-339.614 -90.637)" fill="#517fa2"/>
        <path id="パス_440" data-name="パス 440" d="M346.831,133.8l9,4.1,2.948-3.416.034-.141a43.73,43.73,0,0,1-11.5-1.337Z" transform="translate(-339.615 -90.265)" fill="#6c90b1" opacity="0.1" style="mix-blend-mode: multiply;isolation: isolate"/>
        <g id="グループ_224" data-name="グループ 224" transform="translate(0 45.745)">
          <g id="グループ_223" data-name="グループ 223">
            <g id="グループ_222" data-name="グループ 222">
              <path id="パス_441" data-name="パス 441" d="M348.142,152.886a29.321,29.321,0,0,1-4.872.56c-1.488,0-3.124,1.451-1.641,2.252,1.906,1.031,8.333,2.392,8.333,2.392s2,.54,2.95-.806a1.333,1.333,0,0,0,.222-.863l-.165-2.448Z" transform="translate(-341.045 -131.096)" fill="#002d42"/>
              <path id="パス_442" data-name="パス 442" d="M349.9,156.994a19.316,19.316,0,0,1-5.745-1.225c-2.882-.854-2.972-1.48-3.019-1.527-.185.389-.092.8.491,1.12,1.906,1.031,8.333,2.392,8.333,2.392s2,.54,2.95-.806a1.333,1.333,0,0,0,.222-.863h0A4.054,4.054,0,0,1,349.9,156.994Z" transform="translate(-341.044 -130.761)" fill="#002d42"/>
              <path id="パス_443" data-name="パス 443" d="M361.139,150.5l-4.494-.844a40.355,40.355,0,0,1-4.6.344c-1.451,0-2.617,1.67-1.271,2.211l7.381,2.334s2.35.659,3.309-.72a.966.966,0,0,0,.142-.726Z" transform="translate(-338.786 -131.894)" fill="#002d42"/>
              <path id="パス_444" data-name="パス 444" d="M361.606,152.795a2.706,2.706,0,0,1-.379.284c-1.354.828-3.8.268-3.616.293-.514-.069-5.362-1.3-7.125-1.913-.091-.031-.176-.067-.259-.1a.75.75,0,0,0,.546.674l7.649,2.158s2.174.609,3.062-.666a.894.894,0,0,0,.131-.671Z" transform="translate(-338.775 -131.475)" fill="#002d42"/>
              <path id="パス_445" data-name="パス 445" d="M351.6,142.646c-1.417-.166-4.015-7.053-4.015-7.053a27.719,27.719,0,0,0-5.38,1.658l5.326,20.126c.035.741.387,1.46,1.795,1.841a3.435,3.435,0,0,0,3.394-.579S351.342,148.393,351.6,142.646Z" transform="translate(-340.759 -135.371)" fill="#517fa2"/>
              <path id="パス_446" data-name="パス 446" d="M351.6,142.646c-1.417-.166-4.015-7.053-4.015-7.053a27.719,27.719,0,0,0-5.38,1.658l5.326,20.126c.035.741.387,1.46,1.795,1.841a3.435,3.435,0,0,0,3.394-.579S351.342,148.393,351.6,142.646Z" transform="translate(-340.759 -135.371)" fill="#6c90b1" opacity="0.1" style="mix-blend-mode: multiply;isolation: isolate"/>
              <path id="パス_447" data-name="パス 447" d="M350.3,135.415l8.228,18.279c.051.98,1.089,1.625,2.062,1.756,2.109.286,2.634-.874,2.634-.874l-6.8-17.1C356.209,137.53,352.108,135.615,350.3,135.415Z" transform="translate(-338.757 -135.415)" fill="#517fa2"/>
            </g>
          </g>
        </g>
        <path id="パス_448" data-name="パス 448" d="M345.783,162.274h.01l-.01,2.44a.425.425,0,0,0,.251.35,1.34,1.34,0,0,0,1.22,0,.432.432,0,0,0,.254-.355l.026-21.472a10.9,10.9,0,0,1-1.729-1.043Z" transform="translate(-339.874 -87.995)" fill="#517fa2"/>
        <path id="パス_449" data-name="パス 449" d="M355.989,169.192H356l-.01,2.438a.428.428,0,0,0,.251.352,1.344,1.344,0,0,0,1.22,0,.432.432,0,0,0,.254-.355l.026-21.472a10.9,10.9,0,0,1-1.729-1.043Z" transform="translate(-337.351 -86.284)" fill="#002d42"/>
        <path id="パス_450" data-name="パス 450" d="M359.688,155.835h.01l-.01,2.438a.428.428,0,0,0,.251.352,1.347,1.347,0,0,0,1.22,0,.435.435,0,0,0,.254-.357l.026-21.472a10.778,10.778,0,0,1-1.729-1.041Z" transform="translate(-336.436 -89.586)" fill="#09425e"/>
        <path id="パス_451" data-name="パス 451" d="M369.825,162.685h.01l-.01,2.44a.425.425,0,0,0,.251.35,1.34,1.34,0,0,0,1.22,0,.432.432,0,0,0,.254-.355l.026-21.472a10.833,10.833,0,0,1-1.727-1.043Z" transform="translate(-333.931 -87.893)" fill="#92b3cb"/>
        <g id="グループ_225" data-name="グループ 225" transform="translate(4.038 45.061)">
          <path id="パス_452" data-name="パス 452" d="M377.148,142.656l-11.923-6.885a8.322,8.322,0,0,0-7.548,0l-11.845,6.885c-2.075,1.206-2.064,3.165.025,4.371l11.922,6.883a8.318,8.318,0,0,0,7.548,0l11.845-6.883C379.252,145.819,379.241,143.864,377.148,142.656Z" transform="translate(-344.283 -134.866)" fill="#ff836e"/>
        </g>
        <g id="グループ_227" data-name="グループ 227" transform="translate(1.378)">
          <g id="グループ_226" data-name="グループ 226">
            <path id="パス_453" data-name="パス 453" d="M357.332,136.258S348.218,133,346.278,133.1c-4.965.248-4.065,4.772-4.065,4.772,6.048,2.435,20.627,11.249,24.772,8.385.17-.116,6.472-5.357,6.31-7.607-.054-.74-.181-1.9-.324-3.113C367.657,137.065,357.534,136.3,357.332,136.258Z" transform="translate(-342.15 -90.244)" fill="#517fa2"/>
            <path id="パス_454" data-name="パス 454" d="M370.994,110.088s-6.414-1.237-9.419.9c-2.628,1.868-8.01,5.254-6.472,7.881a68.15,68.15,0,0,1,.977,9.541c-.005,5.871-.464,8.079-1.2,13.977,0,0,.594,3.056,4.405,3.066,4.43.012,11.231-2.819,11.231-2.819a77.88,77.88,0,0,1,1.149-8.017c1.283-5.135,3.351-17.952,2.81-20.893A4.431,4.431,0,0,0,370.994,110.088Z" transform="translate(-339.015 -96.019)" fill="#002d42"/>
            <path id="パス_455" data-name="パス 455" d="M359.631,130.527c-.187,1.089-1.036,2.988-1.231,4.047a26.024,26.024,0,0,1-2.219,6.855,4.882,4.882,0,0,0,2.769.758c4.43.012,11.231-2.819,11.231-2.819a77.892,77.892,0,0,1,1.149-8.017,43.84,43.84,0,0,0,.78-8.424,33.4,33.4,0,0,0-7.322,2.733C361.989,127.147,360.823,128.177,359.631,130.527Z" transform="translate(-338.681 -92.757)" fill="#6c90b1" opacity="0.1" style="mix-blend-mode: multiply;isolation: isolate"/>
            <path id="パス_456" data-name="パス 456" d="M360.136,106.883l.087,4.757c0,1.727,5.891,1.084,5.891-.644l-.595-3.985Z" transform="translate(-337.704 -96.723)" fill="#8f644d"/>
            <path id="パス_457" data-name="パス 457" d="M359,108.569c.474,2.86.939,2.408,3.46,2.563,0,0,5.367-.095,5.526-2.708l.822-4.805-10.279-2Z" transform="translate(-338.102 -98.024)" fill="#8f644d"/>
            <path id="パス_458" data-name="パス 458" d="M361.935,98.975c-1.06.388-4.028,1.016-4.028,1.016a2.182,2.182,0,0,0,.833,2.627s2.623,2.129,2.5,4.164,1.3,3.515,2.82,4.869c1.1.985,2.69.065,2.69.065a10.4,10.4,0,0,0,2.543-9.457C368.575,98.567,363.435,98.425,361.935,98.975Z" transform="translate(-338.293 -98.737)" fill="#002d42"/>
            <path id="パス_459" data-name="パス 459" d="M360.006,105.409l.579,1.918c1.076.481.954-.9.867-2.053C361.331,103.708,360.006,105.409,360.006,105.409Z" transform="translate(-337.736 -97.285)" fill="#8f644d"/>
          </g>
        </g>
        <path id="パス_460" data-name="パス 460" d="M370.184,122.437l-7.992,4.742a6.083,6.083,0,0,0-2.966,4.835l-2.381,25.967,18.812-9.837-.276-22.891A3.443,3.443,0,0,0,370.184,122.437Z" transform="translate(-337.139 -92.999)" fill="#ff836e"/>
        <path id="パス_461" data-name="パス 461" d="M358.913,113.673c-1.9-1.083-4.551,6.029-4.551,6.029l-3.247,8.157a7.066,7.066,0,0,0-.241,4.54c.126.444.253.77.357.777.206.015,1.7,2.1,4.087-1.48l5.231-11.957S362.149,115.52,358.913,113.673Z" transform="translate(-338.681 -95.072)" fill="#002d42"/>
      </g>
      <g id="グループ_235" data-name="グループ 235" transform="translate(414.149 114.586)">
        <path id="パス_462" data-name="パス 462" d="M403.64,121.643l-.917.274,4.068,1.778,1.932-.267-2.083-1.541Z" transform="translate(-390.821 -97.147)" fill="#df9877"/>
        <path id="パス_463" data-name="パス 463" d="M396.064,124.968l1.137,2.343,1.682,2.148,3.431,2.05.425-1.908-.964-.8C401.86,128.375,396.064,124.968,396.064,124.968Z" transform="translate(-392.467 -96.325)" fill="#df9877"/>
        <path id="パス_464" data-name="パス 464" d="M393.923,124.936l11.742,7.436,6.95-5.7-11.79-7.376Z" transform="translate(-392.996 -97.727)" fill="#f1f5f9"/>
        <path id="パス_465" data-name="パス 465" d="M403.922,123.145s-.064.662,1.036.545a15.974,15.974,0,0,1,1.924-.02,5.5,5.5,0,0,0,2.93.994l.551.345.253-1.185-4.041-1.186Z" transform="translate(-390.525 -96.901)" fill="#df9877"/>
        <path id="パス_466" data-name="パス 466" d="M400.174,135.427l-1.207,1.981,9,4.1,2.948-3.417.539-2.2-6.181-.575C403.938,135.3,400.87,134.287,400.174,135.427Z" transform="translate(-391.749 -93.873)" fill="#ffec83"/>
        <path id="パス_467" data-name="パス 467" d="M401.228,135.988a9.818,9.818,0,0,1-1.389-.226l-.872,1.429,9,4.1,2.947-3.417.17-.69a40.727,40.727,0,0,1-8.108-1.058C402.393,136.081,401.812,136.035,401.228,135.988Z" transform="translate(-391.749 -93.657)" fill="#6c90b1" opacity="0.2" style="mix-blend-mode: multiply;isolation: isolate"/>
        <g id="グループ_231" data-name="グループ 231" transform="translate(0 45.746)">
          <g id="グループ_230" data-name="グループ 230">
            <g id="グループ_229" data-name="グループ 229">
              <path id="パス_468" data-name="パス 468" d="M400.277,156.151a29.174,29.174,0,0,1-4.872.56c-1.488,0-3.124,1.452-1.641,2.252,1.906,1.031,8.333,2.393,8.333,2.393s2,.54,2.95-.807a1.339,1.339,0,0,0,.223-.863l-.166-2.448Z" transform="translate(-393.18 -134.362)" fill="#002d42"/>
              <path id="パス_469" data-name="パス 469" d="M402.035,160.259a19.237,19.237,0,0,1-5.745-1.225c-2.882-.853-2.972-1.479-3.019-1.525-.185.388-.092.8.491,1.119,1.906,1.031,8.333,2.393,8.333,2.393s2,.54,2.95-.807a1.339,1.339,0,0,0,.223-.863h0A4.049,4.049,0,0,1,402.035,160.259Z" transform="translate(-393.179 -134.027)" fill="#002d42"/>
              <path id="パス_470" data-name="パス 470" d="M413.274,153.769l-4.494-.843a40.677,40.677,0,0,1-4.6.344c-1.451,0-2.617,1.67-1.271,2.211l7.381,2.333s2.35.657,3.309-.721a.962.962,0,0,0,.142-.725Z" transform="translate(-390.921 -135.16)" fill="#002d42"/>
              <path id="パス_471" data-name="パス 471" d="M413.741,156.061a2.7,2.7,0,0,1-.379.283c-1.354.828-3.8.269-3.616.294-.514-.07-5.362-1.3-7.125-1.914-.091-.031-.176-.066-.259-.1a.749.749,0,0,0,.546.672l7.649,2.159s2.174.609,3.062-.667a.894.894,0,0,0,.131-.671Z" transform="translate(-390.91 -134.741)" fill="#002d42"/>
              <path id="パス_472" data-name="パス 472" d="M403.731,145.911c-1.416-.166-4.015-7.053-4.015-7.053a27.659,27.659,0,0,0-5.38,1.659l5.326,20.126c.035.741.387,1.46,1.795,1.84a3.434,3.434,0,0,0,3.394-.579S403.477,151.658,403.731,145.911Z" transform="translate(-392.894 -138.637)" fill="#ffec83"/>
              <path id="パス_473" data-name="パス 473" d="M403.731,145.911c-1.416-.166-4.015-7.053-4.015-7.053a27.659,27.659,0,0,0-5.38,1.659l5.326,20.126c.035.741.387,1.46,1.795,1.84a3.434,3.434,0,0,0,3.394-.579S403.477,151.658,403.731,145.911Z" transform="translate(-392.894 -138.637)" fill="#6c90b1" opacity="0.2" style="mix-blend-mode: multiply;isolation: isolate"/>
              <path id="パス_474" data-name="パス 474" d="M402.437,138.681l8.228,18.279c.051.979,1.089,1.624,2.062,1.756,2.109.284,2.634-.876,2.634-.876l-6.8-17.1C408.344,140.8,404.243,138.881,402.437,138.681Z" transform="translate(-390.892 -138.681)" fill="#ffec83"/>
            </g>
          </g>
        </g>
        <path id="パス_475" data-name="パス 475" d="M397.918,165.54h.01l-.01,2.439a.428.428,0,0,0,.251.35,1.348,1.348,0,0,0,1.22,0,.433.433,0,0,0,.254-.355l.026-21.473a10.9,10.9,0,0,1-1.729-1.041Z" transform="translate(-392.009 -91.26)" fill="#92b3cb"/>
        <path id="パス_476" data-name="パス 476" d="M408.124,172.458h.01l-.01,2.439a.428.428,0,0,0,.251.35,1.348,1.348,0,0,0,1.22,0,.433.433,0,0,0,.254-.355l.026-21.473a10.891,10.891,0,0,1-1.729-1.041Z" transform="translate(-389.486 -89.55)" fill="#92b3cb"/>
        <path id="パス_477" data-name="パス 477" d="M411.823,159.1h.01l-.01,2.44a.427.427,0,0,0,.251.35,1.348,1.348,0,0,0,1.22,0,.433.433,0,0,0,.254-.355l.026-21.473a10.841,10.841,0,0,1-1.729-1.041Z" transform="translate(-388.572 -92.852)" fill="#92b3cb"/>
        <path id="パス_478" data-name="パス 478" d="M421.96,165.951h.01l-.01,2.438a.428.428,0,0,0,.251.352,1.347,1.347,0,0,0,1.22,0,.433.433,0,0,0,.254-.355l.026-21.473a10.824,10.824,0,0,1-1.727-1.041Z" transform="translate(-386.066 -91.158)" fill="#92b3cb"/>
        <g id="グループ_232" data-name="グループ 232" transform="translate(4.038 45.061)">
          <path id="パス_479" data-name="パス 479" d="M429.283,145.921l-11.923-6.883a8.318,8.318,0,0,0-7.548,0l-11.845,6.883c-2.075,1.206-2.064,3.167.025,4.373l11.922,6.883a8.318,8.318,0,0,0,7.548,0l11.845-6.883C431.387,149.085,431.376,147.129,429.283,145.921Z" transform="translate(-396.418 -138.132)" fill="#ff836e"/>
        </g>
        <g id="グループ_234" data-name="グループ 234" transform="translate(1.378)">
          <g id="グループ_233" data-name="グループ 233">
            <path id="パス_480" data-name="パス 480" d="M409.467,139.523s-9.114-3.258-11.054-3.16c-4.965.247-4.065,4.772-4.065,4.772,6.048,2.433,20.627,11.248,24.772,8.385.17-.117,6.472-5.358,6.31-7.608-.054-.74-.181-1.9-.324-3.113C419.792,140.33,409.669,139.568,409.467,139.523Z" transform="translate(-394.285 -93.509)" fill="#ffec83"/>
            <path id="パス_481" data-name="パス 481" d="M423.129,113.354s-6.414-1.238-9.419.9c-2.628,1.867-8.01,5.254-6.472,7.881a68.137,68.137,0,0,1,.977,9.54c0,5.871-.464,8.081-1.2,13.977,0,0,.594,3.056,4.405,3.067,4.43.011,11.231-2.819,11.231-2.819a77.935,77.935,0,0,1,1.149-8.018c1.283-5.135,3.351-17.951,2.81-20.893A4.43,4.43,0,0,0,423.129,113.354Z" transform="translate(-391.15 -99.285)" fill="#6c90b1"/>
            <path id="パス_482" data-name="パス 482" d="M411.766,133.793c-.187,1.088-1.036,2.987-1.231,4.047a26.054,26.054,0,0,1-2.219,6.855,4.892,4.892,0,0,0,2.769.758c4.43.011,11.231-2.819,11.231-2.819a77.929,77.929,0,0,1,1.149-8.018,43.829,43.829,0,0,0,.779-8.422,33.275,33.275,0,0,0-7.322,2.733C414.124,130.413,412.958,131.442,411.766,133.793Z" transform="translate(-390.816 -96.022)" fill="#6c90b1" opacity="0.2" style="mix-blend-mode: multiply;isolation: isolate"/>
            <path id="パス_483" data-name="パス 483" d="M412.271,110.149l.087,4.756c0,1.729,5.89,1.085,5.89-.642l-.595-3.985Z" transform="translate(-389.839 -99.988)" fill="#df9877"/>
            <path id="パス_484" data-name="パス 484" d="M411.131,111.834c.474,2.861.939,2.41,3.46,2.563,0,0,5.367-.094,5.526-2.706l.822-4.805-10.279-2Z" transform="translate(-390.237 -101.289)" fill="#df9877"/>
            <path id="パス_485" data-name="パス 485" d="M414.07,102.24c-1.06.389-4.028,1.016-4.028,1.016a2.182,2.182,0,0,0,.833,2.627s2.623,2.129,2.5,4.166,1.3,3.515,2.82,4.869c1.1.985,2.69.064,2.69.064a10.393,10.393,0,0,0,2.543-9.456C420.71,101.832,415.57,101.691,414.07,102.24Z" transform="translate(-390.428 -102.002)" fill="#002d42"/>
            <path id="パス_486" data-name="パス 486" d="M412.141,108.675l.579,1.918c1.076.481.954-.9.867-2.054C413.466,106.973,412.141,108.675,412.141,108.675Z" transform="translate(-389.871 -100.55)" fill="#df9877"/>
          </g>
        </g>
        <path id="パス_487" data-name="パス 487" d="M422.319,125.7l-7.992,4.743a6.081,6.081,0,0,0-2.966,4.835l-2.381,25.965,18.811-9.837-.276-22.891A3.443,3.443,0,0,0,422.319,125.7Z" transform="translate(-389.274 -96.264)" fill="#ff836e"/>
        <path id="パス_488" data-name="パス 488" d="M409.832,117.243c-2.079-.669-3.213,6.836-3.213,6.836l-1.865,10.767s1.246,3.108,1.574,3.063c.2-.029,2.1,1.706,3.7-2.291l2.656-12.778S413.379,118.385,409.832,117.243Z" transform="translate(-390.319 -98.245)" fill="#6c90b1"/>
        <path id="パス_489" data-name="パス 489" d="M399.337,126.267l-.616-.886c-.463-.7-1.008-.3-1.008-.3a15.143,15.143,0,0,1,.977,2.089l3.032,2.461-.277-1.019C401.475,127.269,399.337,126.267,399.337,126.267Z" transform="translate(-392.059 -96.325)" fill="#df9877"/>
        <path id="パス_490" data-name="パス 490" d="M401.324,127.784c-2.728.107-1.876,1.957-1.876,1.957,1.876,2.22,5.256,5.968,8.145,6.349,3.265.433,3.6-2.326,3.6-2.326l-4.112-2.74Z" transform="translate(-391.662 -95.629)" fill="#6c90b1"/>
      </g>
      <g id="グループ_238" data-name="グループ 238" transform="translate(378.628 136.358)">
        <path id="パス_491" data-name="パス 491" d="M384.925,173.01h.01l-.01,2.438a.433.433,0,0,0,.252.352,1.343,1.343,0,0,0,1.22,0,.428.428,0,0,0,.253-.355l.026-21.472a10.826,10.826,0,0,1-1.727-1.041Z" transform="translate(-359.7 -111.185)" fill="#92b3cb"/>
        <path id="パス_492" data-name="パス 492" d="M379.583,149.211l4.994-1.075,1.811-7.012-6.641,4.243Z" transform="translate(-361.021 -114.104)" fill="#00272e"/>
        <path id="パス_493" data-name="パス 493" d="M395.063,179.86h.01l-.01,2.438a.425.425,0,0,0,.251.35,1.34,1.34,0,0,0,1.22,0,.432.432,0,0,0,.254-.355l.026-21.472a10.991,10.991,0,0,1-1.729-1.043Z" transform="translate(-357.194 -109.492)" fill="#92b3cb"/>
        <path id="パス_494" data-name="パス 494" d="M370.664,171.562s-3.3-.15-3.627-.173c-.274-.02-3.109-.424-2.134,1.257a4.071,4.071,0,0,0,1.53,1.073s4.635,1.537,5.076,1.569,2.255.248,2.628-1.085l-.5-1.993Z" transform="translate(-364.7 -106.636)" fill="#fcb698"/>
        <path id="パス_495" data-name="パス 495" d="M368.282,172.946c-.842-.2-1.941-.692-.414-1.525-.069,0-.8-.031-.831-.032-.274-.02-3.109-.424-2.134,1.257a4.071,4.071,0,0,0,1.53,1.073s4.635,1.537,5.076,1.569,2.255.248,2.628-1.085l-.217-.859C371.99,174.122,369.962,173.353,368.282,172.946Z" transform="translate(-364.7 -106.636)" fill="#002d42"/>
        <path id="パス_496" data-name="パス 496" d="M373.9,173.729a4.189,4.189,0,0,1-3.858.579,20.724,20.724,0,0,1-3.94-1.26,4.709,4.709,0,0,1-1.387-1.036h0a1.423,1.423,0,0,0,.182.468,4.071,4.071,0,0,0,1.53,1.073s4.635,1.537,5.076,1.569,2.255.248,2.628-1.085l-.1-.385C373.994,173.68,373.946,173.7,373.9,173.729Z" transform="translate(-364.696 -106.468)" fill="#002d42"/>
        <path id="パス_497" data-name="パス 497" d="M379.429,167.145s-1.5-.289-1.817-.39c-.262-.084-3.316-1.076-2.764.787.113.384.374,1.028,1.769,1.566a8.453,8.453,0,0,1,1.348.637,24.641,24.641,0,0,1,1.972,1.492c.579.392,2.734,1.086,3.087-.587l-.5-2.517Z" transform="translate(-362.208 -107.851)" fill="#fcb698"/>
        <path id="パス_498" data-name="パス 498" d="M380.85,170.261a5.944,5.944,0,0,1-1.934-1.019,16.356,16.356,0,0,1-2.422-1.636.26.26,0,0,1,0-.363,2.064,2.064,0,0,1,1.145-.481l-.026-.008c-.262-.084-3.316-1.076-2.764.787.113.384.374,1.028,1.769,1.566a8.453,8.453,0,0,1,1.348.637,24.641,24.641,0,0,1,1.972,1.492c.579.392,2.734,1.086,3.087-.587l-.095-.475A2.638,2.638,0,0,1,380.85,170.261Z" transform="translate(-362.208 -107.851)" fill="#002d42"/>
        <path id="パス_499" data-name="パス 499" d="M379.058,170.118a17.729,17.729,0,0,0-2.793-1.62,3.112,3.112,0,0,1-1.47-1.537,1.215,1.215,0,0,0,.051.445c.113.384.374,1.028,1.768,1.566a8.451,8.451,0,0,1,1.348.637,24.631,24.631,0,0,1,1.972,1.492c.579.392,2.734,1.086,3.087-.587l-.04-.2C381.93,171.559,380.206,171,379.058,170.118Z" transform="translate(-362.205 -107.717)" fill="#002d42"/>
        <path id="パス_500" data-name="パス 500" d="M375.481,155.839l4.055,14.719a1.522,1.522,0,0,0,.748.962,1.618,1.618,0,0,0,2.141-.387s-.619-7.963-1.413-12.74C379.364,157.347,377.241,156.774,375.481,155.839Z" transform="translate(-362.035 -110.466)" fill="#d5e0ee"/>
        <path id="パス_501" data-name="パス 501" d="M375.481,155.839l4.055,14.719a1.522,1.522,0,0,0,.748.962,1.618,1.618,0,0,0,2.141-.387s-.619-7.963-1.413-12.74C379.364,157.347,377.241,156.774,375.481,155.839Z" transform="translate(-362.035 -110.466)" fill="#6c90b1" opacity="0.1" style="mix-blend-mode: multiply;isolation: isolate"/>
        <path id="パス_502" data-name="パス 502" d="M373.279,155.1c-1.744-.349-2.562-.178-4.305-.476l.672,21.593c.587,1.5,2.189.994,2.875.3.283-.287,2.111-17.1.687-21.258C373.192,155.212,373.224,155.159,373.279,155.1Z" transform="translate(-363.643 -110.765)" fill="#d5e0ee"/>
        <path id="パス_503" data-name="パス 503" d="M369.752,176.215c.707.908,2.014.448,2.617-.163.253-.256,1.731-13.644,1.04-19.491C368.571,155.519,369.678,173.175,369.752,176.215Z" transform="translate(-363.491 -110.298)" fill="#6c90b1" opacity="0.1" style="mix-blend-mode: multiply;isolation: isolate"/>
        <path id="パス_504" data-name="パス 504" d="M381.227,186.367h.01l-.01,2.438a.428.428,0,0,0,.251.352,1.344,1.344,0,0,0,1.22,0,.432.432,0,0,0,.254-.355l.026-21.472a10.84,10.84,0,0,1-1.729-1.043Z" transform="translate(-360.615 -107.883)" fill="#92b3cb"/>
        <path id="パス_505" data-name="パス 505" d="M371.021,179.449h.01l-.01,2.44a.425.425,0,0,0,.251.35,1.34,1.34,0,0,0,1.22,0,.432.432,0,0,0,.254-.355l.026-21.472a10.938,10.938,0,0,1-1.729-1.043Z" transform="translate(-363.137 -109.594)" fill="#92b3cb"/>
        <g id="グループ_236" data-name="グループ 236" transform="translate(6.041 40.685)">
          <path id="パス_506" data-name="パス 506" d="M402.409,159.869l-11.923-6.883a8.318,8.318,0,0,0-7.548,0l-11.845,6.883c-2.075,1.206-2.064,3.167.025,4.373l11.922,6.883a8.318,8.318,0,0,0,7.548,0l11.846-6.883C404.513,163.033,404.5,161.077,402.409,159.869Z" transform="translate(-369.544 -152.08)" fill="#ff836e"/>
        </g>
        <g id="グループ_237" data-name="グループ 237" transform="translate(5.314 4.802)">
          <path id="パス_507" data-name="パス 507" d="M376.546,149.565c-4.813,2.022-1.893,5.656-.827,5.937,4.838,2.09,14.852,2.973,17.875,3.577a4.276,4.276,0,0,0,3.977-1.292L400.6,152.4l-6.5-4.332S382.333,148.753,376.546,149.565Z" transform="translate(-367.749 -117.187)" fill="#d5e0ee"/>
          <path id="パス_508" data-name="パス 508" d="M393.469,135.273l-5.776,5.569.293,6.421a10.308,10.308,0,0,0,3.562-2.345C390.029,140.952,394.129,139.454,393.469,135.273Z" transform="translate(-364.33 -120.352)" fill="#09425e"/>
          <path id="パス_509" data-name="パス 509" d="M373.949,152.533c-4.2.6-4.76,1.8-4.8,1.806A2.425,2.425,0,0,0,369,155.7s1.768,3.4,3.53,3.644a94.658,94.658,0,0,0,15.6,2.87,4.275,4.275,0,0,0,3.794-1.76l2.363-5.708-6.977-3.517S380.342,151.583,373.949,152.533Z" transform="translate(-368.961 -116.407)" fill="#d5e0ee"/>
          <path id="パス_510" data-name="パス 510" d="M383.838,157.668a33.743,33.743,0,0,1-12.407,1.207,4.115,4.115,0,0,0,.486.1,94.655,94.655,0,0,0,15.6,2.87,4.275,4.275,0,0,0,3.794-1.76l2.363-5.708-3.306-1.666A12.159,12.159,0,0,1,383.838,157.668Z" transform="translate(-368.35 -116.04)" fill="#6c90b1" opacity="0.2" style="mix-blend-mode: multiply;isolation: isolate"/>
          <path id="パス_511" data-name="パス 511" d="M393.514,130.217s-6.071,1.571-9.318,4.391c-2.009,1.745.047,2.943-.538,3.831-1.358,2.06-1.927,3.308-1.663,4.144a9.853,9.853,0,0,0,2.563,3.578s-1.169,4.09-1.72,5.393c-.323.762-1.561,2.917-1.561,2.917a5.217,5.217,0,0,0,2.547,5.943,5.611,5.611,0,0,0,4.239.281c5.519-1.568,5.382-8.072,5.382-8.072l.128-3.268a16.831,16.831,0,0,0,3.543-13C396.983,135.587,396.758,131.011,393.514,130.217Z" transform="translate(-365.958 -121.601)" fill="#002d42"/>
          <path id="パス_512" data-name="パス 512" d="M384.944,134c-.94.385-3.92,8.611-6.579,12.643a5.783,5.783,0,0,0-.368,3.229,1.523,1.523,0,0,0,1.5,1.248,2.709,2.709,0,0,0,2.365-1.094c2.4-3.724,4.2-6.416,5.349-8.466C388.882,138.588,390.618,131.678,384.944,134Z" transform="translate(-366.749 -120.782)" fill="#002d42"/>
          <path id="パス_513" data-name="パス 513" d="M383.974,128.435a5.744,5.744,0,0,0,.872,2.289c.641.768,2.716,1.195,3.068.851,0,0,4.521-1.146,4.309-3.6l.1-4.59-9.153-.074A49.331,49.331,0,0,0,383.974,128.435Z" transform="translate(-365.448 -123.309)" fill="#fcb698"/>
        </g>
        <path id="パス_514" data-name="パス 514" d="M395.445,139.651l-7.992,4.742a6.084,6.084,0,0,0-2.966,4.835l-2.38,25.965,18.81-9.837-.276-22.89A3.443,3.443,0,0,0,395.445,139.651Z" transform="translate(-360.397 -114.588)" fill="#ff836e"/>
        <path id="パス_515" data-name="パス 515" d="M390.343,128.549l-4.293,1.473.469,2.734s1.165,1.175,3.759.022c1.671-.743,1.142-1.87,1.142-1.87Z" transform="translate(-359.422 -117.212)" fill="#fcb698"/>
        <path id="パス_516" data-name="パス 516" d="M385.661,119.9c-1.877,1.02-3.547,2.617-2.24,5.485a3.3,3.3,0,0,1,1.182,2.556c.166,1.913,3.543,3.705,4.966,3.811,2.563.193,3.172-3.2,3.172-3.2s.768-1.793-.373-6.19C391.478,118.935,386.982,119.185,385.661,119.9Z" transform="translate(-360.187 -119.459)" fill="#ce994a"/>
        <path id="パス_517" data-name="パス 517" d="M384.625,125.27c-.6-.256-.784.609-.784.609s.784,2.083,1.271,2.242S385.224,125.527,384.625,125.27Z" transform="translate(-359.968 -118.034)" fill="#fcb698"/>
        <path id="パス_518" data-name="パス 518" d="M392.549,122c-2.306-1.346-3.972,1.089-3.972,1.089-.384,1.762,1.538,1.987,2.179,4.774a6.2,6.2,0,0,0,2.819,3.972c-.256-.289.609-3.621.7-4.262S394.855,123.348,392.549,122Z" transform="translate(-358.81 -118.931)" fill="#ce994a"/>
      </g>
      <g id="グループ_252" data-name="グループ 252" transform="translate(345.122 160.436)">
        <path id="パス_519" data-name="パス 519" d="M358.06,191.918h.01l-.01,2.438a.434.434,0,0,0,.251.352,1.344,1.344,0,0,0,1.22,0,.432.432,0,0,0,.254-.355l.026-21.472a10.835,10.835,0,0,1-1.727-1.043Z" transform="translate(-332.835 -130.589)" fill="#92b3cb"/>
        <path id="パス_520" data-name="パス 520" d="M368.2,198.768h.01l-.01,2.439a.427.427,0,0,0,.251.35,1.348,1.348,0,0,0,1.22,0,.433.433,0,0,0,.254-.355l.026-21.473a10.835,10.835,0,0,1-1.729-1.041Z" transform="translate(-330.328 -128.896)" fill="#92b3cb"/>
        <path id="パス_521" data-name="パス 521" d="M343.8,190.47s-3.3-.15-3.627-.175c-.274-.019-3.109-.423-2.135,1.257a4.064,4.064,0,0,0,1.532,1.074s4.635,1.537,5.076,1.569,2.255.248,2.628-1.085l-.5-1.994Z" transform="translate(-337.834 -126.04)" fill="#fff"/>
        <path id="パス_522" data-name="パス 522" d="M347.037,192.637a4.193,4.193,0,0,1-3.858.579,20.727,20.727,0,0,1-3.94-1.26,4.7,4.7,0,0,1-1.387-1.038h0a1.43,1.43,0,0,0,.182.468,4.065,4.065,0,0,0,1.532,1.074s4.635,1.537,5.076,1.569,2.255.248,2.628-1.085l-.1-.385C347.129,192.588,347.082,192.609,347.037,192.637Z" transform="translate(-337.83 -125.873)" fill="#ff836e"/>
        <path id="パス_523" data-name="パス 523" d="M352.563,186.052s-1.5-.289-1.816-.39c-.262-.084-3.316-1.076-2.764.787.113.383.374,1.028,1.769,1.565a8.473,8.473,0,0,1,1.347.639,24.417,24.417,0,0,1,1.972,1.492c.58.39,2.735,1.086,3.088-.587l-.5-2.517Z" transform="translate(-335.342 -127.255)" fill="#fff"/>
        <path id="パス_524" data-name="パス 524" d="M352.193,189.026a17.782,17.782,0,0,0-2.792-1.62,3.109,3.109,0,0,1-1.47-1.538,1.225,1.225,0,0,0,.051.447c.113.383.374,1.028,1.768,1.565a8.47,8.47,0,0,1,1.347.639,24.419,24.419,0,0,1,1.972,1.492c.58.39,2.735,1.086,3.088-.587l-.04-.2C355.065,190.466,353.341,189.905,352.193,189.026Z" transform="translate(-335.34 -127.121)" fill="#ff836e"/>
        <path id="パス_525" data-name="パス 525" d="M348.616,174.747l4.053,14.719a1.528,1.528,0,0,0,.75.962,1.618,1.618,0,0,0,2.141-.387s-.62-7.963-1.414-12.74C352.5,176.255,350.376,175.682,348.616,174.747Z" transform="translate(-335.169 -129.87)" fill="#8f644d"/>
        <path id="パス_526" data-name="パス 526" d="M348.616,174.747l4.053,14.719a1.528,1.528,0,0,0,.75.962,1.618,1.618,0,0,0,2.141-.387s-.62-7.963-1.414-12.74C352.5,176.255,350.376,175.682,348.616,174.747Z" transform="translate(-335.169 -129.87)" fill="#6c90b1" opacity="0.1" style="mix-blend-mode: multiply;isolation: isolate"/>
        <path id="パス_527" data-name="パス 527" d="M346.488,174.628c-1.744-.349-2.931-3.289-4.675-3.587,0,0-.022,7.951.091,10.627.147,3.5.95,14.077.95,14.077.587,1.5,2.188.994,2.875.3.283-.287,2.112-17.1.687-21.258C346.4,174.736,346.433,174.684,346.488,174.628Z" transform="translate(-336.851 -130.786)" fill="#8f644d"/>
        <path id="パス_528" data-name="パス 528" d="M339.638,191.519l.382.1a2.156,2.156,0,0,1,.832-1.281l-.45-.022A1.85,1.85,0,0,0,339.638,191.519Z" transform="translate(-337.388 -126.022)" fill="#ff836e"/>
        <path id="パス_529" data-name="パス 529" d="M354.361,205.275h.01l-.01,2.44a.431.431,0,0,0,.252.35,1.337,1.337,0,0,0,1.219,0,.427.427,0,0,0,.254-.355l.026-21.473a10.825,10.825,0,0,1-1.727-1.041Z" transform="translate(-333.749 -127.287)" fill="#92b3cb"/>
        <path id="パス_530" data-name="パス 530" d="M340.263,191.611l.38.027a2.156,2.156,0,0,1,.832-1.281l-.45-.022A2.167,2.167,0,0,0,340.263,191.611Z" transform="translate(-337.234 -126.016)" fill="#ff836e"/>
        <path id="パス_531" data-name="パス 531" d="M340.886,191.629l.415.045a2.157,2.157,0,0,1,.832-1.282l-.45-.021A2.048,2.048,0,0,0,340.886,191.629Z" transform="translate(-337.08 -126.008)" fill="#ff836e"/>
        <path id="パス_532" data-name="パス 532" d="M349.269,186.212l.338.147a4.486,4.486,0,0,1,1.317-.654l-.257-.057A2.534,2.534,0,0,0,349.269,186.212Z" transform="translate(-335.008 -127.175)" fill="#ff836e"/>
        <path id="パス_533" data-name="パス 533" d="M349.788,186.438l.321.1a5.448,5.448,0,0,1,1.328-.722l-.333-.069A4.3,4.3,0,0,0,349.788,186.438Z" transform="translate(-334.879 -127.151)" fill="#ff836e"/>
        <path id="パス_534" data-name="パス 534" d="M344.155,198.357h.01l-.01,2.44a.431.431,0,0,0,.252.35,1.348,1.348,0,0,0,1.22,0,.429.429,0,0,0,.253-.355l.026-21.473a10.826,10.826,0,0,1-1.727-1.041Z" transform="translate(-336.272 -128.997)" fill="#92b3cb"/>
        <path id="パス_535" data-name="パス 535" d="M351.567,185.849a3.519,3.519,0,0,0-1.142.768l.327.1a6.493,6.493,0,0,1,1.02-.652l-.05-.191Z" transform="translate(-334.722 -127.125)" fill="#ff836e"/>
        <g id="グループ_239" data-name="グループ 239" transform="translate(6.042 40.189)">
          <path id="パス_536" data-name="パス 536" d="M375.543,178.777l-11.922-6.883a8.318,8.318,0,0,0-7.548,0l-11.845,6.883c-2.075,1.206-2.064,3.167.025,4.373l11.922,6.883a8.318,8.318,0,0,0,7.548,0l11.845-6.883C377.648,181.941,377.637,179.985,375.543,178.777Z" transform="translate(-342.679 -170.988)" fill="#ff836e"/>
        </g>
        <path id="パス_537" data-name="パス 537" d="M350.563,168.828c-6.17-1.517-9.258-.152-8.739,2.913,0,0,2.605,4.379,4.366,4.622,7.518,2.221,16.745,1.325,16.745,1.325l4.565-3.555-7.738-3.7A80.308,80.308,0,0,1,350.563,168.828Z" transform="translate(-336.862 -131.487)" fill="#8f644d"/>
        <path id="パス_538" data-name="パス 538" d="M345.354,171.248s3.668,2.35,5.43,2.593c7.518,2.221,16-.19,16-.19l4.565-3.553-7.738-3.7S344.329,165.182,345.354,171.248Z" transform="translate(-335.985 -131.958)" fill="#8f644d"/>
        <path id="パス_539" data-name="パス 539" d="M368.414,166.472l-14.875,1.583-5.949,3.385s-3.866,4.742,1.2,6.856c2.825,1.181,6.063,4.5,12.275,3.213,4.226-.878,7.272-4.526,6.577-8.785C367.1,169.455,369.018,167.431,368.414,166.472Z" transform="translate(-335.772 -131.915)" fill="#002d42"/>
        <g id="グループ_250" data-name="グループ 250" transform="translate(3.376 15.45)">
          <path id="パス_540" data-name="パス 540" d="M357.781,164.066a.167.167,0,0,0-.007-.316l-3.682-2-.2-.11a.6.6,0,0,0-.543.015l-10.358,6.372a.166.166,0,0,0,.007.314l3.884,2.115a.6.6,0,0,0,.544-.015L352.2,167.5Z" transform="translate(-339.963 -148.575)" fill="#09425e"/>
          <path id="パス_541" data-name="パス 541" d="M353.758,165.489a.6.6,0,0,0-.543.015L350.3,167.3l-.609.375c-.148.091-.146.232.006.314l.319.173,2.1,1.144a.6.6,0,0,0,.543-.015l3.527-2.17a.166.166,0,0,0-.008-.314Z" transform="translate(-338.307 -147.622)" fill="#09425e"/>
          <g id="グループ_243" data-name="グループ 243">
            <g id="グループ_242" data-name="グループ 242" style="isolation: isolate">
              <g id="グループ_240" data-name="グループ 240" transform="translate(0.128 0.14)">
                <path id="パス_542" data-name="パス 542" d="M353.636,151.323l-12.622,7.844a.859.859,0,0,0-.37.686l.41,10.707,13.391-8.316-.41-10.707C354.028,151.288,353.849,151.193,353.636,151.323Z" transform="translate(-340.644 -151.264)" fill="#002d42"/>
              </g>
              <g id="グループ_241" data-name="グループ 241">
                <path id="パス_543" data-name="パス 543" d="M353.534,151.211l-12.622,7.842a.862.862,0,0,0-.372.687l.281,10.425a.493.493,0,0,0,.258.422l-.41-10.707a.859.859,0,0,1,.37-.686l12.622-7.844a.281.281,0,0,1,.278-.035l-.127-.14A.278.278,0,0,0,353.534,151.211Z" transform="translate(-340.541 -151.152)" fill="#09425e"/>
              </g>
            </g>
          </g>
          <path id="パス_544" data-name="パス 544" d="M363.855,164.092v.019l0,.02,0,.017,0,.019-.006.016-.009.02-.007.014-.015.022-.02.027,0,0-.024.025-.016.015-.02.016-.019.014-.032.022-12.93,7.953c-.02.012-.041.022-.062.034l-.017.008a.531.531,0,0,1-.056.022l-.014,0-.027.009-.029.009-.029.007-.029.006-.071.012-.022,0-.044,0h-.123l-.03,0-.031,0-.029,0-.034,0-.027,0-.039-.007-.022-.006c-.024-.006-.047-.012-.07-.02l-.034-.014-.017-.007-.049-.024-8.678-4.941a.317.317,0,0,1-.193-.254l.013.441a.316.316,0,0,0,.193.254l8.672,4.7a.426.426,0,0,0,.049.024l.018.007.032.012h0l.07.021h.008l.015,0,.039.007.014,0h.012l.035.005.015,0h.012l.032,0h.153l.044,0,.017,0h.005l.071-.012h0l.025-.006.029-.007.029-.009.027-.007h0l.01,0a.531.531,0,0,0,.056-.022l.017-.007a.606.606,0,0,0,.062-.034l12.93-7.953.021-.014.011-.009.019-.014.02-.016.016-.015.007-.006.016-.017v0l.019-.024,0-.005.015-.022.006-.011v0l.009-.02.005-.014v0l.005-.019,0-.015h0v-.04Z" transform="translate(-340.435 -147.954)" fill="#09425e"/>
          <g id="グループ_245" data-name="グループ 245" transform="translate(0.533 10.883)">
            <g id="グループ_244" data-name="グループ 244" style="isolation: isolate">
              <path id="パス_545" data-name="パス 545" d="M353.783,165.081a.6.6,0,0,0-.543.015l-2.918,1.795-.609.375a.166.166,0,0,0,.006.314l.319.173,2.1,1.144a.6.6,0,0,0,.543-.015l3.527-2.17a.166.166,0,0,0-.007-.314Z" transform="translate(-338.833 -158.606)" fill="#c5d5e7"/>
              <path id="パス_546" data-name="パス 546" d="M363.663,164.9l-8.6-4.923a1,1,0,0,0-.9.025l-1.1.675.226.122.226.123-10.727,6.6-.451-.246-1.185.661a.277.277,0,0,0,.011.524l8.679,4.943a1,1,0,0,0,.9-.025l12.931-7.955A.277.277,0,0,0,363.663,164.9Zm-5.319,3.088-3.527,2.17a.6.6,0,0,1-.543.015l-2.1-1.144-.319-.173a.166.166,0,0,1-.006-.314l.609-.375,2.918-1.795a.6.6,0,0,1,.543-.015l2.418,1.317A.166.166,0,0,1,358.344,167.985Z" transform="translate(-340.968 -159.878)" fill="#e5ecf4"/>
            </g>
          </g>
          <path id="パス_547" data-name="パス 547" d="M342.064,167.115l.452.246,10.727-6.6-.452-.246Z" transform="translate(-340.164 -148.838)" fill="#09425e"/>
          <g id="グループ_246" data-name="グループ 246" transform="translate(0.878 1.318)">
            <path id="パス_548" data-name="パス 548" d="M341.245,159.688l.257,9.21,12.015-7.391-.25-9.3Z" transform="translate(-341.245 -152.209)" fill="#d4e3e6"/>
          </g>
          <g id="グループ_249" data-name="グループ 249" transform="translate(0.876 1.335)">
            <g id="グループ_248" data-name="グループ 248" style="isolation: isolate">
              <g id="グループ_247" data-name="グループ 247">
                <path id="パス_549" data-name="パス 549" d="M341.243,159.614l.261,9.36,12.038-7.392-.288-9.359Z" transform="translate(-341.243 -152.223)" fill="#fff"/>
              </g>
            </g>
          </g>
          <path id="パス_550" data-name="パス 550" d="M354.251,161.286l-.2-.111a.6.6,0,0,0-.543.015l-10.358,6.372a.167.167,0,0,0,.007.316l3.885,2.114a.6.6,0,0,0,.543-.015l4.779-2.94,5.579-3.432a.166.166,0,0,0-.008-.314Z" transform="translate(-339.923 -148.689)" fill="#c5d5e7"/>
        </g>
        <g id="グループ_251" data-name="グループ 251" transform="translate(8.474 0)">
          <path id="パス_551" data-name="パス 551" d="M350.257,165.324l.031,0a12.344,12.344,0,0,0-1.3-.9,6.716,6.716,0,0,1-.636-.34c-.177-.074-.263-.008-.359.135-.061.09.08.251.193.358l-1.124-.478-1.014-.035c-.221.115-.215.231-.151.319l-.526-.019c-.459.239.055.48.055.48l.352.047-.832.007c-.459.238.054.48.054.48l.765.138.327.187-.026-.006-1.245-.262c-.46.239.054.48.054.48l1.427.54.7.38,0-.026a2.329,2.329,0,0,0,.405.317,7.5,7.5,0,0,0,2.09.624l1.449-1.735A5.829,5.829,0,0,0,350.257,165.324Z" transform="translate(-344.628 -132.512)" fill="#8f644d"/>
          <path id="パス_552" data-name="パス 552" d="M368.907,156.3c-.026-.783.373-5.348-2.734-6.575,0,0-6.228.73-9.828,3.081-2.229,1.456-.6,4.228-1.124,5.155a4.7,4.7,0,0,0-.091,5.055l.242,6.707-1.409,2.05s1.786,9.257,7.3,7.688,5.382-8.073,5.382-8.073l2.7-1.981Z" transform="translate(-342.321 -136.056)" fill="#ffec83"/>
          <path id="パス_553" data-name="パス 553" d="M365.9,159.828c.01.107.017.2.027.311C366.292,160.7,365.863,159.855,365.9,159.828Z" transform="translate(-339.371 -133.558)" fill="#6c90b1" opacity="0.2" style="mix-blend-mode: multiply;isolation: isolate"/>
          <path id="パス_554" data-name="パス 554" d="M368.551,160.25c-.04-.06-.08-.122-.14-.219-1.575-2.543-5.738,3.007-7.588,5.41-2.184,2.837-4.158,5.242-5.549,8.468,1.14,2.08,2.951,3.934,5.669,3.16,5.519-1.568,5.382-8.073,5.382-8.073l2.7-1.981S368.913,164.146,368.551,160.25Z" transform="translate(-341.997 -133.669)" fill="#6c90b1" opacity="0.2" style="mix-blend-mode: multiply;isolation: isolate"/>
          <path id="パス_555" data-name="パス 555" d="M356.416,153.532c-.788.641-.092,9.557-.438,14.96-2.443-.264-5.9,0-6.52-.136-1.146.639-1.764,1.28-1.286,2.216L357.3,174.2a2.045,2.045,0,0,0,2.219-1.645,64.917,64.917,0,0,0,1.258-13.733C360.775,155.412,361.173,149.665,356.416,153.532Z" transform="translate(-343.793 -135.433)" fill="#ffec83"/>
          <path id="パス_556" data-name="パス 556" d="M363.514,142.013l-9.136.379,1.31,6.179c.52,2.454,2.445,3.165,4.772,2.671,0,0,4.026-2.251,3.515-4.662Z" transform="translate(-342.218 -137.962)" fill="#8f644d"/>
          <path id="パス_557" data-name="パス 557" d="M356.006,139.727c-1.737,1.243-4.345,3.824-1.009,5.233,0,0,1.253.042,1.651,1.922s4.182,8.819,5.9,9.667c1.25.616,5.069-1.459,5.069-1.459s1.459-2.445-4.112-14.229C361.992,137.659,357.23,138.851,356.006,139.727Z" transform="translate(-342.463 -138.765)" fill="#002d42"/>
          <path id="パス_558" data-name="パス 558" d="M355.8,145.53l.433,2.043c.938.211,1.391-1.1,1.034-2.131C356.788,144.045,355.8,145.53,355.8,145.53Z" transform="translate(-341.866 -137.262)" fill="#8f644d"/>
        </g>
        <path id="パス_559" data-name="パス 559" d="M368.58,158.557l-7.993,4.743a6.08,6.08,0,0,0-2.965,4.835L355.241,194.1l18.811-9.837-.276-22.89A3.444,3.444,0,0,0,368.58,158.557Z" transform="translate(-333.531 -133.992)" fill="#ff836e"/>
      </g>
    </g>
    <rect id="長方形_259" data-name="長方形 259" width="292" height="75" rx="37.5" transform="translate(405 1359)" fill="#a4b7be"/>
    <text id="お金を払って_セミナーや塾で経営を学ぶ" data-name="お金を払って
セミナーや塾で経営を学ぶ" transform="translate(405 1379)" fill="#fff" font-size="14" font-family="HiraKakuPro-W6, Hiragino Kaku Gothic Pro"><tspan x="104.49" y="12">お金を払って</tspan><tspan x="62" y="36">セミナーや塾で経営を学ぶ</tspan></text>
  </g>
</svg>
