<svg xmlns="http://www.w3.org/2000/svg" width="292" height="219.475" viewBox="0 0 292 219.475">
  <g id="グループ_395" data-name="グループ 395" transform="translate(-753 -1943)">
    <rect id="長方形_258" data-name="長方形 258" width="292" height="75" rx="37.5" transform="translate(753 1943)" fill="#0089cd"/>
    <text id="やりたいことに_挑戦しやすい環境" data-name="やりたいことに
挑戦しやすい環境" transform="translate(753 1963)" fill="#fff" font-size="14" font-family="HiraKakuPro-W6, Hiragino Kaku Gothic Pro"><tspan x="97" y="12">やりたいことに</tspan><tspan x="90" y="36">挑戦しやすい環境</tspan></text>
    <path id="パス_32" data-name="パス 32" d="M9.165,0l9.165,12.332H0Z" transform="translate(908.331 2028.666) rotate(180)" fill="#0089cd"/>
    <g id="グループ_377" data-name="グループ 377" transform="translate(173.392 1795.541)">
      <g id="グループ_324" data-name="グループ 324" transform="translate(727.473 245.513)">
        <path id="パス_680" data-name="パス 680" d="M844.063,394.356a2.634,2.634,0,0,0-.775.128v-3.133l-.487-.29a73.356,73.356,0,0,0-15.015-6.691V360.216h10.076v-3.325H813.281v3.325h10.962v23.835c-7.408,1.784-15.862,6.788-16.233,7.009l-.487.29v3.133a2.653,2.653,0,1,0,1.882,2.532c0-.076-.016-.147-.022-.221h.134v-4.3c1.959-1.119,9.451-5.237,15.7-6.616,1.689,1.311,3.815,4.76,4.67,6.3v4.266a2.655,2.655,0,1,0,2.59-2.083,2.632,2.632,0,0,0-.6.073v-2.765l-.12-.223a39.136,39.136,0,0,0-3.021-4.692,75.77,75.77,0,0,1,12.553,5.743v4.3h.133c-.006.074-.022.146-.022.221a2.658,2.658,0,1,0,2.658-2.66Z" transform="translate(-777.764 -278.957)" fill="#0f3c7a"/>
        <g id="グループ_323" data-name="グループ 323">
          <path id="パス_681" data-name="パス 681" d="M846.195,302.062H829.362c-8.581,23.788,3.631,30.066,3.631,30.066s-17.312-2.892-20.992.722c-4.5,4.421-.043,9.52-.043,9.52h31.6c4.951-3.3,2.311-13.216-.33-20.815S846.195,302.062,846.195,302.062Z" transform="translate(-779.536 -262.493)" fill="#c9dbdb"/>
          <path id="パス_682" data-name="パス 682" d="M829.362,302.062c-8.581,23.788,3.631,30.066,3.631,30.066s-17.312-2.892-20.992.722a6.2,6.2,0,0,0-1.352,7.38,157.693,157.693,0,0,1,18.329-2.635c3.1-.262,6.2-.423,9.313-.551a25.481,25.481,0,0,0,2.781-.132c.227-.036,1.379-.588,1.241-.311.763-1.057.461-4.181.446-5.515-.033-2.84-.288-5.672-.3-8.512-.007-1.5.02-3.028.1-4.556-.457-7.269,3.637-15.956,3.637-15.956Z" transform="translate(-779.536 -262.493)" opacity="0.1"/>
          <path id="パス_683" data-name="パス 683" d="M841.972,278.494c-12.455-6.352-25.428-1.8-27.9,3.366-1.567,3.281,5.51,33.7,5.51,33.7l22.453,3.692c.665-15.392,1.437-32.335,1.651-38.122A2.888,2.888,0,0,0,841.972,278.494Z" transform="translate(-780.694 -254.484)" fill="#59bb80"/>
          <path id="パス_684" data-name="パス 684" d="M834.942,304.7c-3.788,5.17-8.3,8.919-14.281,10.233.577,2.609.968,4.293.968,4.293l22.453,3.692c.579-13.377,1.236-27.922,1.54-35.3-2.112,2.14-3.446,5.053-4.829,7.688A74.411,74.411,0,0,1,834.942,304.7Z" transform="translate(-782.74 -258.157)" opacity="0.06"/>
          <path id="パス_685" data-name="パス 685" d="M835.279,265.914l-5.9.129a69.516,69.516,0,0,0-.351,7.493c0,1.09.357,2.46,1.86,2.675,1.386.2,5.1.442,5.412-3.122C836.3,273.09,834.966,271.136,835.279,265.914Z" transform="translate(-785.251 -251.639)" fill="#ffb992"/>
          <path id="パス_686" data-name="パス 686" d="M835.283,265.914l-5.9.129s-.291,2.435-.343,6.322a10.17,10.17,0,0,0,6.367-2.318A20.945,20.945,0,0,1,835.283,265.914Z" transform="translate(-785.255 -251.639)" opacity="0.07"/>
          <path id="パス_687" data-name="パス 687" d="M838.765,251.724c-1.451-2.685-11.805-3.068-11.805-3.068s-7.411,16.428.15,16.925,6.934-2.087,6.934-2.087S840.624,255.163,838.765,251.724Z" transform="translate(-783.656 -246.457)" fill="#ffb992"/>
          <path id="パス_688" data-name="パス 688" d="M811.059,280.377c-3.966.521-5.782,8.822-9.15,17.138-2.968,7.329-9.879,17.8-9.879,17.8l10.329.178,12.349-22.926S814.081,279.98,811.059,280.377Z" transform="translate(-774.143 -255.979)" fill="#59bb80"/>
          <path id="パス_689" data-name="パス 689" d="M805.821,310.073a62.962,62.962,0,0,1-9.408,11.964l7.262.125,7.57-14.054q-.538-2.744-.833-5.543C808.99,305.169,807.306,307.664,805.821,310.073Z" transform="translate(-775.459 -262.644)" opacity="0.06"/>
          <path id="パス_690" data-name="パス 690" d="M834.329,246.01c-1.813-.652-6.842-.738-7.522.2-.357.49,0,3.857.13,3.883,8.192,1.763,9.2,4.755,9.246,5.294.039.49-2.093,8.1-1.508,8.343,1.726-2.977,5.648-6.757,6.155-11.064C841.214,249.41,836.142,246.663,834.329,246.01Z" transform="translate(-784.54 -245.513)" fill="#00314e"/>
          <path id="パス_691" data-name="パス 691" d="M839.346,264.026a3.637,3.637,0,0,0-1.859-.038l-1.977,2.853C837.6,268.831,840.522,264.741,839.346,264.026Z" transform="translate(-787.199 -251.026)" fill="#ffb992"/>
          <g id="グループ_322" data-name="グループ 322" transform="translate(0 61.036)">
            <path id="パス_692" data-name="パス 692" d="M798.993,344.148c-4.465.295-4.5,6.638-4.5,6.7-.108,2.038,6.923,38.911,6.923,38.911l6.512,1.348c-.111-5.9-1.358-14.858-1.31-19.323.206-18.884-3.627-22.141-3.627-22.141s9.928-7.723,8.821-9.346C811.175,339.369,799.674,344.1,798.993,344.148Z" transform="translate(-774.881 -334.974)" fill="#0f3c7a"/>
            <path id="パス_693" data-name="パス 693" d="M800.112,344.576c-6.548.3-4.563,7.74-1.561,9.832l33.79-4.745S807.374,344.245,800.112,344.576Z" transform="translate(-775.26 -336.29)" fill="#0f3c7a"/>
            <g id="グループ_320" data-name="グループ 320" transform="translate(8.208)">
              <path id="パス_694" data-name="パス 694" d="M817.316,333.253s-15.792-.366-21.952.515-2.243,6.552-.923,7.873c.069.07,31.265,5.065,36.074,4.72,6.161-.44,5.106-10.82,5.106-10.82Z" transform="translate(-782.34 -332.872)" fill="#0f3c7a"/>
              <path id="パス_695" data-name="パス 695" d="M786.529,332.741c-.665,5.623-8.332,51.729-8.332,51.729l5.561-.218c2.148-4.445,4.593-13.006,6.13-16.934,7.568-19.33,3.854-27.5,3.854-27.5A82.291,82.291,0,0,1,786.529,332.741Z" transform="translate(-778.197 -332.741)" fill="#0f3c7a"/>
            </g>
            <g id="グループ_321" data-name="グループ 321" transform="translate(8.208)" opacity="0.1">
              <path id="パス_696" data-name="パス 696" d="M817.316,333.253s-15.792-.366-21.952.515-2.243,6.552-.923,7.873c.069.07,31.265,5.065,36.074,4.72,6.161-.44,5.106-10.82,5.106-10.82Z" transform="translate(-782.34 -332.872)"/>
              <path id="パス_697" data-name="パス 697" d="M786.529,332.741c-.665,5.623-8.332,51.729-8.332,51.729l5.561-.218c2.148-4.445,4.593-13.006,6.13-16.934,7.568-19.33,3.854-27.5,3.854-27.5A82.291,82.291,0,0,1,786.529,332.741Z" transform="translate(-778.197 -332.741)"/>
            </g>
            <path id="パス_698" data-name="パス 698" d="M774.955,403.115c-3.113,4.368-7.976,6.471-8.394,7.37s.561,1.089,2.83.995,13.337-4.039,13.337-4.039a14.8,14.8,0,0,0-1.506-4.761Z" transform="translate(-766.467 -353.742)" fill="#00314e"/>
            <path id="パス_699" data-name="パス 699" d="M802.1,342.921c-1.626-.151-3.961-.525-5.475.234-4,2-2.288,8.388-2.292,8.453-.109,2.038,6.923,38.911,6.923,38.911l6.512,1.348c-.111-5.9-1.358-14.858-1.31-19.323.206-18.884-2.029-19.534-2.029-19.534l22.018-3.5S812.552,343.894,802.1,342.921Z" transform="translate(-774.726 -335.73)" fill="#0f3c7a"/>
          </g>
          <path id="パス_700" data-name="パス 700" d="M815.94,325.954l-6.112-1.483a9.65,9.65,0,0,0-1.693.5c-.633.311-6.7,3.553-6.7,3.553s.161.814,1.369.448l4.876-1.01,4.089,1.139s3.139.319,4.769-.834l3.163-.721-.194-1.66Z" transform="translate(-776.966 -269.222)" fill="#ffb992"/>
          <path id="パス_701" data-name="パス 701" d="M842.23,279.576c-5.015.98-.57,23.12.905,29.227l-20.959,3.441v3.436s17.21-.155,24.949-.337c.039.041.071.083.112.124,6.335-.793,3.112-23.19,1.821-29.015C847.748,280.539,844.357,279.16,842.23,279.576Z" transform="translate(-783.195 -255.721)" fill="#59bb80"/>
          <path id="パス_702" data-name="パス 702" d="M848.9,309.889c-3.888,9.014-17.747,10.729-26.265,10.8a3.489,3.489,0,0,1-.46-.035v.7s17.21-.155,24.949-.337c.039.041.071.083.112.124,4.861-.609,4.094-13.932,2.891-22.734C850.386,302.2,850.348,306.538,848.9,309.889Z" transform="translate(-783.195 -261.396)" opacity="0.06"/>
          <path id="パス_703" data-name="パス 703" d="M799.616,409.7c-4.242,3.9-10.581,4.256-11.191,5.09s.518,1.158,3.207,1.379,14.37-.178,14.37-.178a17.77,17.77,0,0,0,.041-5.13Z" transform="translate(-773.012 -294.815)" fill="#00314e"/>
        </g>
        <path id="パス_704" data-name="パス 704" d="M828.206,274.118l-1.979,1.932s-.346,2.823,1.732,4.211l1.485-1.982A4.649,4.649,0,0,1,828.206,274.118Z" transform="translate(-784.405 -254.102)" fill="#fff"/>
        <path id="パス_705" data-name="パス 705" d="M836.234,274.259c.1,3.369-5.542,4.112-5.542,4.112l.891,2.477s3.182-.3,4.454-1.288a4,4,0,0,0,1.733-4.161Z" transform="translate(-785.752 -254.145)" fill="#fff"/>
      </g>
      <g id="グループ_327" data-name="グループ 327" transform="translate(655.081 251.208)">
        <path id="パス_706" data-name="パス 706" d="M722.265,290.186s-5.928,6.559-3.261,11.044c0,0,10.131,12.778,11.731,13.739s1.281,2.242,3.094,2.349,5.866,0,5.866,0l1.707-3.951a26.813,26.813,0,0,1-7.915-5.226C730.072,304.724,724.4,291.361,722.265,290.186Z" transform="translate(-679.615 -264.622)" fill="#f63"/>
        <path id="パス_707" data-name="パス 707" d="M719.8,295.8c-.04-.1-.071-.194-.1-.29-1.18,2.219-2.049,5.036-.692,7.318,0,0,10.131,12.778,11.731,13.738s1.28,2.243,3.093,2.35,5.867,0,5.867,0l0-.012C730.449,314.855,723.6,305.19,719.8,295.8Z" transform="translate(-679.615 -266.221)" opacity="0.06"/>
        <path id="パス_708" data-name="パス 708" d="M700.887,396.933a2.571,2.571,0,0,0-.735.118v-2.86l-.461-.265a70.922,70.922,0,0,0-14.229-6.106V364.639h9.548V361.6H671.717v3.035h10.388v22.892c-7.02,1.628-15.032,6.194-15.383,6.4l-.462.265v2.86a2.57,2.57,0,0,0-.735-.118,2.429,2.429,0,1,0,2.518,2.427c0-.069-.015-.134-.021-.2h.126v-3.925c1.857-1.021,8.956-4.779,14.882-6.036,1.6,1.2,3.615,4.342,4.424,5.745v3.893a2.334,2.334,0,0,0-.063.526,2.52,2.52,0,1,0,2.518-2.427,2.6,2.6,0,0,0-.566.067v-2.523l-.114-.2a35.666,35.666,0,0,0-2.863-4.282,73.19,73.19,0,0,1,11.9,5.24v3.925h.126c-.006.068-.021.133-.021.2a2.52,2.52,0,1,0,2.518-2.427Z" transform="translate(-663.008 -286.067)" fill="#0f3c7a"/>
        <path id="パス_709" data-name="パス 709" d="M666.887,412.558a5.907,5.907,0,0,1-.626-.707v.288a2.572,2.572,0,0,0-.735-.117,2.429,2.429,0,1,0,2.518,2.427c0-.069-.015-.134-.021-.2h.126v-.623a5.458,5.458,0,0,1-.867-.683Z" transform="translate(-663.008 -301.156)" fill="#00314e"/>
        <path id="パス_710" data-name="パス 710" d="M675.455,364.639h10.387v21.185a11.477,11.477,0,0,1,3.264,1.219l.094-.031V364.639h9.548V361.6H675.455Z" transform="translate(-666.746 -286.067)" fill="#00314e"/>
        <path id="パス_711" data-name="パス 711" d="M700.376,411.943a2.6,2.6,0,0,0-.566.067v-.418a3.111,3.111,0,0,0-1.044.793,5.16,5.16,0,0,1-.845.741v.718a2.334,2.334,0,0,0-.063.526,2.52,2.52,0,1,0,2.518-2.427Z" transform="translate(-673.473 -301.078)" fill="#00314e"/>
        <path id="パス_712" data-name="パス 712" d="M716.017,412a2.57,2.57,0,0,0-.735.118v-.327a5.11,5.11,0,0,1-1.889,1.325v1.11h.126c-.005.068-.021.133-.021.2A2.52,2.52,0,1,0,716.017,412Z" transform="translate(-678.138 -301.139)" fill="#00314e"/>
        <path id="パス_713" data-name="パス 713" d="M679.89,338.768s11.647-5.765,3.463-27.61H667.3s5.351,10.923,2.833,17.9-5.036,16.081-.315,19.115h28.331a7.23,7.23,0,0,0-1.26-7.585C693.74,336.948,679.89,338.768,679.89,338.768Z" transform="translate(-664.255 -270.92)" fill="#ccdbdb"/>
        <path id="パス_714" data-name="パス 714" d="M680.831,338.768s11.647-5.765,3.463-27.61h-.72a6.28,6.28,0,0,1-.639.178c-.667.146-2.366-.3-3.054-.1-1.155,2.029-2.452,15.668-4.051,19.686-1.325,3.328-3.851,6.14-5.053,9.472a7.355,7.355,0,0,0-.458,3.144,1.561,1.561,0,0,1,.1.325H699.49a7.241,7.241,0,0,0-1.661-3.271C694.681,336.948,680.831,338.768,680.831,338.768Z" transform="translate(-665.196 -270.92)" opacity="0.1"/>
        <path id="パス_715" data-name="パス 715" d="M726.059,324.33l-5.666,1.982-3.226-.476-.2,2.338,3.069.4c1.653.951,4.6.357,4.6.357l3.777-1.466,4.722.515c1.18.237,1.26-.555,1.26-.555s-6.06-2.536-6.689-2.774A9.194,9.194,0,0,0,726.059,324.33Z" transform="translate(-679.212 -274.875)" fill="#ffb992"/>
        <g id="グループ_325" data-name="グループ 325" transform="translate(12.038 60.714)">
          <path id="パス_716" data-name="パス 716" d="M725.814,343.61c-5.689-1.795-18.1-3.19-18.1-3.19L689.883,342.4s-2.861,9.364,5.931,10.23c5.8.572,20.778.086,20.778.086s-.031.061-.084.173a42.151,42.151,0,0,1,12.173-1.464C729.583,349.511,730.895,345.213,725.814,343.61Z" transform="translate(-682.982 -340.42)" fill="#00314e"/>
          <path id="パス_717" data-name="パス 717" d="M740.809,351.231c-3.634-3.272-9.4,1-10.536,4.729-4.41,14.439-2.7,14.305-3.513,38.648l4.377.859s8.709-39.373,9.659-42.372C740.841,352.951,740.756,351.429,740.809,351.231Z" transform="translate(-694.189 -343.316)" fill="#00314e"/>
          <path id="パス_718" data-name="パス 718" d="M707.516,411.057h-4.4a34.887,34.887,0,0,0-1.311,4.877.625.625,0,0,0,.631.71h15.355a1.6,1.6,0,0,0-.134-1.348C716.082,414.284,710.918,413.565,707.516,411.057Z" transform="translate(-686.693 -361.631)" fill="#0f3c7a"/>
          <path id="パス_719" data-name="パス 719" d="M730.821,411.539H725.37a32.738,32.738,0,0,0-1.232,4.582.587.587,0,0,0,.593.667h14.427a1.505,1.505,0,0,0-.126-1.267C737.555,414.572,734.017,413.895,730.821,411.539Z" transform="translate(-693.4 -361.776)" fill="#0f3c7a"/>
          <path id="パス_720" data-name="パス 720" d="M714.757,343.669c-5.4-1.795-16.057-3.053-16.057-3.053l-18.066,1.84s-2.716,9.364,5.633,10.23c5.513.572,18.372.02,18.372.02s-4,12.244-8.344,38.135l5.71-.126s13.746-35.85,15.236-38.734C718.024,350.464,720.068,345.434,714.757,343.669Z" transform="translate(-680.212 -340.479)" fill="#00314e"/>
        </g>
        <path id="パス_721" data-name="パス 721" d="M694.446,281.107a71.87,71.87,0,0,0-7.437,1.961c-3.52,1.174-6.613,4.484-6.613,6.193,0,1.011.991,13.673,1.119,23.563a66.393,66.393,0,0,1-1.021,12.387l23.082-2.441s4.289-19.369,4.715-22.252,3.453-12.138,3.453-12.138A21.035,21.035,0,0,0,694.446,281.107Z" transform="translate(-668.229 -261.887)" fill="#f63"/>
        <path id="パス_722" data-name="パス 722" d="M687.272,294.358a15.848,15.848,0,0,1-3.916-7.519c-1.757,1.4-2.96,3.087-2.96,4.151,0,1.011.991,13.673,1.119,23.563a65.332,65.332,0,0,1-1.021,12.329l23.082-2.383s1.377-6.222,2.648-12.137C697.795,310.028,690.471,302.553,687.272,294.358Z" transform="translate(-668.229 -263.617)" opacity="0.06"/>
        <path id="パス_723" data-name="パス 723" d="M689.249,301.472c-.534-2.883,1.036-16.862-6.415-14.25,0,0-3.806,2.063-3.048,7.457.614,4.367,2.569,16.711,4.382,20.342s1.814,2.99,2.56,2.99,7.372.438,22.191.269l2.357-4.383-19-3.467A67.7,67.7,0,0,1,689.249,301.472Z" transform="translate(-668.016 -263.635)" fill="#f63"/>
        <path id="パス_724" data-name="パス 724" d="M697.485,316.315c-2.728-.26-5.673-.609-8.013-2.01a9.371,9.371,0,0,1-4.005-3.535,3.08,3.08,0,0,1-.418-2.421,53.533,53.533,0,0,1-1.74-6.345,39.012,39.012,0,0,1-.8-14.341,7.242,7.242,0,0,0-2.723,7.246c.614,4.368,2.569,16.711,4.382,20.342s1.814,2.99,2.56,2.99,7.372.438,22.191.269l.164-.306c-3.3-.528-6.59-1.249-10.009-1.686Z" transform="translate(-668.016 -263.865)" opacity="0.06"/>
        <path id="パス_725" data-name="パス 725" d="M699.736,272.267c.219,5.072-1.1,6.947-1.1,6.947.438,6.174,6.57,4.962,7.008.551a24.786,24.786,0,0,0-.219-7.278Z" transform="translate(-673.708 -259.241)" fill="#ffb992"/>
        <path id="パス_726" data-name="パス 726" d="M700.495,272.278a5.534,5.534,0,0,1,.643,2.73c0,.445.478,2.106,4.377,3.753a4.408,4.408,0,0,0,.762.179,23.974,23.974,0,0,0-.29-6.45Z" transform="translate(-674.265 -259.245)" opacity="0.07"/>
        <path id="パス_727" data-name="パス 727" d="M699.123,256.815c-2.688,2.6.56,11.659.56,11.659s-.779,2.9,6.229,4.659,4.818-15.658,4.818-15.658S701.221,254.789,699.123,256.815Z" transform="translate(-673.533 -254.374)" fill="#ffb992"/>
        <path id="パス_728" data-name="パス 728" d="M700.512,253.666c-2.847.22-4.162,1.764-4.381,5.734s2.629,11.688,2.629,11.688a18.368,18.368,0,0,1,1.642-4.575c-1.15-.166-1.15-1.158-1.15-3.143s1.971.166,1.971.166l.986-.5a9.348,9.348,0,0,1-.329-2.15c0-.993,2.136-1.269,6.3-1.269s3.5-4.19,3.5-4.19C710.148,255.871,703.359,253.445,700.512,253.666Z" transform="translate(-672.951 -253.652)" fill="#83634c"/>
        <g id="グループ_326" data-name="グループ 326" transform="translate(39.41 34.008)">
          <path id="パス_729" data-name="パス 729" d="M738.163,322.381h12.905l6.059-20.127H744.223Z" transform="translate(-724.985 -302.254)" fill="#00314e"/>
          <path id="パス_730" data-name="パス 730" d="M719.33,329.8a1.339,1.339,0,0,0,1.339,1.339H744.2a1.339,1.339,0,0,0,1.339-1.339v-.276h-26.2Z" transform="translate(-719.33 -310.444)" fill="#00314e"/>
        </g>
      </g>
      <g id="グループ_330" data-name="グループ 330" transform="translate(636.608 305.414)">
        <g id="グループ_329" data-name="グループ 329">
          <g id="グループ_328" data-name="グループ 328" transform="translate(0 1.075)">
            <path id="パス_731" data-name="パス 731" d="M636.608,393.1h1.624l11.8-60.445h-6.5Z" transform="translate(-636.608 -332.657)" fill="#8696ab"/>
            <path id="パス_732" data-name="パス 732" d="M870.524,332.657l11.8,60.445h1.624l-6.921-60.445Z" transform="translate(-706.848 -332.657)" fill="#8696ab"/>
          </g>
          <rect id="長方形_436" data-name="長方形 436" width="175.11" height="5.933" transform="translate(0.779)" fill="#f7f9f9"/>
        </g>
      </g>
      <g id="グループ_331" data-name="グループ 331" transform="translate(731.414 290.547)">
        <path id="パス_733" data-name="パス 733" d="M778.436,324.7H799.9a1.568,1.568,0,0,0,.889-1.411l-3.385-11.848a1.571,1.571,0,0,0-1.57-1.572H775.731a1.571,1.571,0,0,0-1.57,1.572l3.385,11.848A1.569,1.569,0,0,0,778.436,324.7Z" transform="translate(-772.718 -309.873)" fill="#00314e"/>
        <path id="パス_734" data-name="パス 734" d="M792.752,328.13l2.907-5.148,2.124,5.148h.757l-2.655-6.842H775.46L772.1,328.13Z" transform="translate(-772.099 -313.301)" fill="#0f3c7a"/>
      </g>
      <g id="グループ_333" data-name="グループ 333" transform="translate(781.506 286.269)">
        <rect id="長方形_437" data-name="長方形 437" width="0.854" height="8.552" transform="matrix(0.988, -0.158, 0.158, 0.988, 0.376, 2.029)" fill="#b1dbf1"/>
        <rect id="長方形_438" data-name="長方形 438" width="8.932" height="1.044" transform="translate(4.37 8.724) rotate(-77.615)" fill="#0093e0"/>
        <g id="グループ_332" data-name="グループ 332" transform="translate(2.468 0.293)">
          <path id="パス_735" data-name="パス 735" d="M847.689,304.177l-.475,3.231.665,5.987,1.614-.285-.57-6.082Z" transform="translate(-847.214 -304.177)" fill="#00314e"/>
          <path id="パス_736" data-name="パス 736" d="M847.214,307.408l1.709-.38-1.234-2.851Z" transform="translate(-847.214 -304.177)" fill="#ffb992"/>
          <path id="パス_737" data-name="パス 737" d="M847.621,305.7l.854-.19-.664-1.33Z" transform="translate(-847.337 -304.177)" fill="#0f3c7a"/>
        </g>
        <path id="パス_738" data-name="パス 738" d="M844.826,325.821h5.885l1.139-12.681h-8.164Z" transform="translate(-843.687 -306.576)" fill="#fff"/>
      </g>
      <g id="グループ_335" data-name="グループ 335" transform="translate(637.387 294.379)">
        <path id="パス_739" data-name="パス 739" d="M638.594,326.339h5.55l.872-10.989h-7.295Z" transform="translate(-637.722 -315.35)" fill="#fff"/>
        <g id="グループ_334" data-name="グループ 334" transform="translate(4.053 2.004)">
          <path id="パス_740" data-name="パス 740" d="M646.553,318.214a3.043,3.043,0,1,0,3.04,3.043A3.044,3.044,0,0,0,646.553,318.214Zm0,5a1.961,1.961,0,1,1,1.959-1.961A1.962,1.962,0,0,1,646.553,323.218Z" transform="translate(-643.514 -318.214)" fill="#fff"/>
        </g>
      </g>
    </g>
  </g>
</svg>
