<svg xmlns="http://www.w3.org/2000/svg" xmlns:xlink="http://www.w3.org/1999/xlink" width="292" height="242.537" viewBox="0 0 292 242.537">
  <defs>
    <linearGradient id="linear-gradient" x1="0.032" y1="0.907" x2="0.661" y2="0.292" gradientUnits="objectBoundingBox">
      <stop offset="0" stop-color="#b2b2b2"/>
      <stop offset="1" stop-color="#fff"/>
    </linearGradient>
    <linearGradient id="linear-gradient-3" x1="0.117" y1="0.909" x2="0.667" y2="0.271" xlink:href="#linear-gradient"/>
    <linearGradient id="linear-gradient-4" x1="0.195" y1="0.811" x2="0.76" y2="0.165" xlink:href="#linear-gradient"/>
  </defs>
  <g id="グループ_394" data-name="グループ 394" transform="translate(-383 -1943)">
    <g id="グループ_372" data-name="グループ 372" transform="translate(-22 584)">
      <path id="パス_33" data-name="パス 33" d="M9.165,0l9.165,12.332H0Z" transform="translate(560.331 1444.666) rotate(180)" fill="#a4b7be"/>
      <rect id="長方形_259" data-name="長方形 259" width="292" height="75" rx="37.5" transform="translate(405 1359)" fill="#a4b7be"/>
      <text id="常に可能性を潰される" transform="translate(405 1390)" fill="#fff" font-size="14" font-family="HiraKakuPro-W6, Hiragino Kaku Gothic Pro"><tspan x="76" y="12">常に可能性を潰される</tspan></text>
      <g id="グループ_376" data-name="グループ 376" transform="translate(334.551 1590.889)">
        <g id="グループ_343" data-name="グループ 343" transform="translate(230.314 -141.33)">
          <path id="パス_741" data-name="パス 741" d="M228.109-41.116l4.444,5.731,22.8-12.53-6.8-4.059Z" transform="translate(-205.508 182.864)" fill="url(#linear-gradient)" style="mix-blend-mode: multiply;isolation: isolate"/>
          <path id="パス_742" data-name="パス 742" d="M217.614-46.867l4.444,5.731,22.8-12.53-6.8-4.059Z" transform="translate(-210.149 180.32)" fill="url(#linear-gradient)" style="mix-blend-mode: multiply;isolation: isolate"/>
          <g id="グループ_342" data-name="グループ 342" transform="translate(0)">
            <g id="グループ_341" data-name="グループ 341">
              <path id="パス_743" data-name="パス 743" d="M217.164-95.317,214.2-90.879l-.414,4.749a1.225,1.225,0,0,0,1.027-.237,13.82,13.82,0,0,0,1.046,4.439.934.934,0,0,0,1.113-.463l.249.472c1.611-.076.767-1.97.767-1.97l-.029-1.448.493,1.775c1.135.382,1.1-1.06,1.1-1.06l-.294-2.223.44-2.227.264-1.4a4.987,4.987,0,0,0-.723-3.692Z" transform="translate(-211.841 163.695)" fill="#f7b7a9"/>
              <path id="パス_744" data-name="パス 744" d="M220.508-94.116a5.94,5.94,0,0,1-5.189-2l-.674,2.746c2.964,3.923,5.528,1.455,5.528,1.455l.847-2.122h-.007C220.841-94.058,220.675-94.089,220.508-94.116Z" transform="translate(-211.462 163.342)" fill="#e5e5e5"/>
              <path id="パス_745" data-name="パス 745" d="M225.28-127.631c-4.239-.867-5.944,9.977-5.944,9.977L217.745-101l-3.216,19.749c3.254,3.686,6.846,1.982,6.846,1.982l5.163-19.182L229.4-117.5S230.829-126.5,225.28-127.631Z" transform="translate(-211.514 149.383)" fill="#23393d"/>
              <path id="パス_746" data-name="パス 746" d="M226.176-40.088c-1,1.01-3.213,2.466-3.467,3.864l-.037.209c1.5,3.14,5.635,2,5.635,2l9.2-5.121a2.407,2.407,0,0,0,1.229-2.1v-3.014l-7.3-1.1Z" transform="translate(-207.913 185.793)" fill="#23393d"/>
              <path id="パス_747" data-name="パス 747" d="M215.612-45.415c-4.876,2.584-3.184,4.673-1.183,5.346,2.28.766,7.475-2.762,7.475-2.762l4.842-1.653a2.361,2.361,0,0,0,1.207-2.061v-2.961l-7.174-1.079Z" transform="translate(-212.438 183.478)" fill="#23393d"/>
              <path id="パス_748" data-name="パス 748" d="M223.526-95.223c-2.491-1.224-3.587.3-6.2-1.2,0,0,.146,11.809,0,14.973-.577,12.559-.13,51.794-.13,51.794s1.963,3.819,8.72,1.829l2.789-44.25,3.383,50.03s1.761,4.455,9.137,1.119l1.1-32.56,3.829-40.18C246-93.661,230.233-91.925,223.526-95.223Z" transform="translate(-210.405 163.206)" fill="#2c545c"/>
              <path id="パス_749" data-name="パス 749" d="M228.847-80.987s-1.265-.043-7.136-1.9c2.142,1.611,4.842,3.591,4.842,3.591l3.473,51.256s.942,2.372,4.321,2.355c-1.775-11.8-3.1-25.386-4.056-37.3Z" transform="translate(-208.337 169.194)" opacity="0.07"/>
              <path id="パス_750" data-name="パス 750" d="M220.512-54.261c-.163-10.75-2.784-38.22-3.108-38.85,0,2.247-.025,9.131-.074,10.2-.577,12.559-.13,51.794-.13,51.794a5.1,5.1,0,0,0,3.6,2.256,41.733,41.733,0,0,1-.277-5.726C220.541-40.018,220.6-48.835,220.512-54.261Z" transform="translate(-210.405 164.671)" opacity="0.07"/>
              <path id="パス_751" data-name="パス 751" d="M242.878-122.662l-7.205-4.7-4.464-.78h-3.819a2.764,2.764,0,0,1-1.064,1.438,21.524,21.524,0,0,1-6.081,2.768c-1.527,8-1.02,15.647-.753,23.874a113.787,113.787,0,0,1-.981,19.553c1.878,1.431,5.485,3.3,12.085,4.19,12.011,1.618,12.65-3.831,12.65-3.831L247.877-114A8.759,8.759,0,0,0,242.878-122.662Z" transform="translate(-209.753 149.176)" fill="#e5e5e5"/>
              <path id="パス_752" data-name="パス 752" d="M219.538-121.443c-1.168,3.663-.971,22.831-.971,22.831l-1.712,20.39s2.922,5.443,6.665,1.872c1.656-1.582.855-5.923,2.475-6.724q-.115-9.11-.052-18.221c.025-4.545-1.653,2.287-1.874-2.253-.219-4.519-.787-17.637,3.148-24.59C221.988-128.158,220.74-125.217,219.538-121.443Z" transform="translate(-210.485 149.18)" fill="#23393d"/>
              <path id="パス_753" data-name="パス 753" d="M241.968-123.106l-6.186-4.038c-1.333,2.136-2.675,4.265-4.067,6.365-1.147,1.726-8.779,15.6-8.779,15.6s0-.14-.009-.4c-.033.074-.068.146-.105.216-.516,8.714-1.04,20.255-2.254,28.891.224,2.85,7.624,6.675,12.165,6.228,9.761-.963,10.978-4.05,10.978-4.05l3.255-40.149A8.759,8.759,0,0,0,241.968-123.106Z" transform="translate(-208.843 149.62)" fill="#23393d"/>
              <g id="グループ_340" data-name="グループ 340" transform="translate(18.071 85.334)">
                <g id="グループ_338" data-name="グループ 338" transform="translate(0 0.34)">
                  <g id="グループ_337" data-name="グループ 337">
                    <path id="パス_754" data-name="パス 754" d="M255.284-82.424l-1.135-.65a1.69,1.69,0,0,0-1.25-.172l-26.545,7.915a.974.974,0,0,0-.733.881l-.626,20.412c-.048.723-.006,1.067.881,1.519L228.49-51.1a2.029,2.029,0,0,0,1.5.11l26.064-8.257a1.409,1.409,0,0,0,.982-1.419l0-19.368A3.509,3.509,0,0,0,255.284-82.424Z" transform="translate(-224.962 83.337)" fill="#23393d"/>
                    <path id="パス_755" data-name="パス 755" d="M226.36-77.47a.974.974,0,0,0-.733.881L225-56.176c-.048.723-.186,1.067.881,1.519l2.613,1.415a2.029,2.029,0,0,0,1.5.11s-.071-15.337-.133-21.647a12.405,12.405,0,0,1,.431-3.682Z" transform="translate(-224.968 85.475)" fill="#23393d"/>
                    <path id="パス_756" data-name="パス 756" d="M255.855-82.008l-2.117-1.17a1.114,1.114,0,0,0-.825-.113l-26.622,7.935a.95.95,0,0,0-.834.691c.293-.531.678-.322.678-.322l2.771,1.54a1.238,1.238,0,0,1,.632,1l.57,8.328c.076,1.125,1.669,2.038,2.8,2.09,16.072.723,22.149-7.141,23.556-9.3a2.253,2.253,0,0,0,.368-1.36l-.019-7.769A1.9,1.9,0,0,0,255.855-82.008Z" transform="translate(-224.752 83.325)" fill="#25464d"/>
                    <path id="パス_757" data-name="パス 757" d="M255.855-82.008l-2.117-1.17a1.114,1.114,0,0,0-.825-.113l-26.622,7.935a.95.95,0,0,0-.834.691c.293-.531.678-.322.678-.322l3.029,1.735c1-.1,26.762-7.823,27.377-8A1.809,1.809,0,0,0,255.855-82.008Z" transform="translate(-224.752 83.325)" fill="#25464d"/>
                    <path id="パス_758" data-name="パス 758" d="M237.9-67.7l3.575-1.131V-70.4l-3.575,1.1Z" transform="translate(-219.251 89.042)" fill="#edc07a"/>
                  </g>
                </g>
                <g id="グループ_339" data-name="グループ 339" transform="translate(12.798)">
                  <path id="パス_759" data-name="パス 759" d="M241.091-83.233a1.649,1.649,0,0,0-1.493-.248l-4.005,1.258a2.492,2.492,0,0,0-1.751,2.387v2.178c0,.4.322.512.721.512s.721-.113.721-.512v-2.178a1.059,1.059,0,0,1,.741-1.012l4-1.256a.229.229,0,0,1,.208.035.227.227,0,0,1,.1.187v2.3c0,.4.322.512.721.512s.721-.113.721-.512v-2.3A1.662,1.662,0,0,0,241.091-83.233Z" transform="translate(-233.842 83.56)" fill="#23393d"/>
                </g>
              </g>
              <path id="パス_760" data-name="パス 760" d="M236.069-88.91l-.277-.082-.049-.014,0,.186-2.022,6.48.447,3.763a2.482,2.482,0,0,1,1.53-1.275l.176-.626s.829.483.932.761a.889.889,0,0,1-.231,1.08l-.759.312c-.149.787.376,1.248,1.6,1.269.232,0,2.116-.18,2.116-.18l1.633-.958.763-3.245-.907-5.991Z" transform="translate(-203.025 166.486)" fill="#f7b7a9"/>
              <path id="パス_761" data-name="パス 761" d="M240.388-89.625a5.775,5.775,0,0,1-5.537-.525l.1,2.918c3.921,3.063,5.714-.111,5.714-.111l.237-2.347,0,0C240.724-89.661,240.557-89.645,240.388-89.625Z" transform="translate(-202.526 165.98)" fill="#e5e5e5"/>
              <path id="パス_762" data-name="パス 762" d="M236.695-123.5c-4.327-.006-3.841,11.317-3.841,11.317L234.608-95l.776,20.644c3.923,3.062,7.1.6,7.1.6l1.245-20.471-.985-19.863S242.358-123.487,236.695-123.5Z" transform="translate(-203.417 151.233)" fill="#23393d"/>
              <path id="パス_763" data-name="パス 763" d="M223.768-132.662v7.836a4.791,4.791,0,0,0,4.79,4.793,4.791,4.791,0,0,0,4.79-4.793l-.705-7.836Z" transform="translate(-207.428 147.179)" fill="#f7b7a9"/>
              <path id="パス_764" data-name="パス 764" d="M223.768-132.662v7.836a4.715,4.715,0,0,0,.081.8,16.319,16.319,0,0,0,9.416-1.712l-.623-6.923Z" transform="translate(-207.428 147.179)" opacity="0.07"/>
              <path id="パス_765" data-name="パス 765" d="M225.357-122.356l1.183,3.711a11.326,11.326,0,0,0,7.976-7.116l-2.1-3.254A9.994,9.994,0,0,1,225.357-122.356Z" transform="translate(-206.725 148.792)" fill="#fff"/>
              <path id="パス_766" data-name="パス 766" d="M224.085-127.949c-1.875,1.868-.624,7.73-.624,7.73a14.6,14.6,0,0,1,2.916-2.609A5.69,5.69,0,0,1,224.085-127.949Z" transform="translate(-207.744 149.264)" fill="#fff"/>
              <path id="パス_767" data-name="パス 767" d="M237.759-125.019l-3.052-3.265c-4.057,6.526-10.776,17.982-12.876,24.161-.359,1.057.2,3.669.2,3.669,1.112-3.029,2.942-4.765,5.923-8.178a66.9,66.9,0,0,1,8.351-7.818l-2.051-.875h1.686Z" transform="translate(-208.337 149.116)" fill="#23393d"/>
              <path id="パス_768" data-name="パス 768" d="M220.912-121.85l1.364.591h-1.829s-.062,16.449,2.145,20.924c0,0-1.041-15,2.863-24.785v-3.437S221.618-126.008,220.912-121.85Z" transform="translate(-208.896 148.995)" fill="#23393d"/>
              <path id="パス_769" data-name="パス 769" d="M222.074-128.36c0,4.083,2.047,5.863,5.918,5.863,0,0,7.168-2.227,7.168-6.238l.808-7.425-13.893-2.478Z" transform="translate(-208.177 144.537)" fill="#f7b7a9"/>
              <path id="パス_770" data-name="パス 770" d="M224.27-140.961c-6.008,3.774-1.747,5.76-1.747,5.76s9.758.238,9.842,1.884c.023.482-.482,3.384-.482,3.384l1.152.842.8-1.36.414,6.841a14.622,14.622,0,0,0,3.583-6.676c.475-1.907,1.574-5.974-.026-7.992C234.533-142.414,229.778-144.42,224.27-140.961Z" transform="translate(-208.626 142.728)" fill="#23393d"/>
              <path id="パス_771" data-name="パス 771" d="M229.921-133.968v3.4c1.421.652,2.586-1.285,2.364-3.045C231.986-136,229.921-133.968,229.921-133.968Z" transform="translate(-204.706 146.245)" fill="#f7b7a9"/>
              <path id="パス_772" data-name="パス 772" d="M225.572-124.051l-1.22,1-1.017,1.109.357,2.1,1.979.324,1.569-1.929-.725-2.275Z" transform="translate(-207.619 150.988)" fill="#ed7f53"/>
              <path id="パス_773" data-name="パス 773" d="M222.175-115.228a58.95,58.95,0,0,0-.32,7.71l3.793-8.306.684-4.986-1.979-.325A40.585,40.585,0,0,0,222.175-115.228Z" transform="translate(-208.281 152.278)" fill="#ed7f53"/>
            </g>
          </g>
        </g>
        <g id="グループ_347" data-name="グループ 347" transform="translate(153.227 -145.889)">
          <g id="グループ_346" data-name="グループ 346">
            <path id="パス_774" data-name="パス 774" d="M170.9-49.194l14.33,9.479,20.73-9.785-16.274-8.225Z" transform="translate(-145.413 184.879)" opacity="0.9" fill="url(#linear-gradient-3)" style="mix-blend-mode: multiply;isolation: isolate"/>
            <path id="パス_775" data-name="パス 775" d="M162.415-43.087l11.259,8.108,20.73-9.785-13.2-6.854Z" transform="translate(-149.163 187.579)" opacity="0.9" fill="url(#linear-gradient-4)" style="mix-blend-mode: multiply;isolation: isolate"/>
            <g id="グループ_345" data-name="グループ 345">
              <g id="グループ_344" data-name="グループ 344">
                <path id="パス_776" data-name="パス 776" d="M188.282-104.025c-1.6,1.2-.786,2.791,0,2.985s1.359-.241,2.9-2.081,1.1-2.556,1.1-2.556C190.284-106.026,189.883-105.225,188.282-104.025Z" transform="translate(-138.131 163.636)" fill="#1a1a1a"/>
                <path id="パス_777" data-name="パス 777" d="M203.092-99.553a27.738,27.738,0,0,1-5.2-2.631h1.7a.991.991,0,0,0,1-1.171,23.547,23.547,0,0,1-6-1.5,3.757,3.757,0,0,0-3.407-.179c-4.992-.795-3.326,1.878-3.326,1.878a22.834,22.834,0,0,1,2.83,3.073,16.993,16.993,0,0,0,6.8,2.91,6.124,6.124,0,0,0,4.4-.929C203.281-98,203.581-99.417,203.092-99.553Z" transform="translate(-138.031 163.816)" fill="#f7b7a9"/>
                <path id="パス_778" data-name="パス 778" d="M187.2-102.4l2.51,1.243a3.559,3.559,0,0,1,2.645-3.861l-2.7-1.036C188.353-106.049,187.2-102.4,187.2-102.4Z" transform="translate(-138.202 163.508)" fill="#e5e5e5"/>
                <path id="パス_779" data-name="パス 779" d="M179.593-126.386a8.93,8.93,0,0,0-7.454-4.318s3.891,12.39,1.24,12.553a11.546,11.546,0,0,1-2.338-.118l5.968,8.765L178.7-94.14l16.8,4.132a1.747,1.747,0,0,1-.1-1.535c.571-1.445,2.27-3.366,4.1-3.1l-13.809-8.4S181.831-122.8,179.593-126.386Z" transform="translate(-145.348 152.604)" fill="#2c545c"/>
                <path id="パス_780" data-name="パス 780" d="M195.592-93.057A23.264,23.264,0,0,1,184.34-102.3c-5.478-8.752-2.7-19.478-11.189-25.9.932,3.672,1.935,8.832.229,8.938a11.546,11.546,0,0,1-2.338-.118l5.968,8.765L178.7-95.249l16.8,4.132a1.747,1.747,0,0,1-.1-1.535C195.451-92.783,195.523-92.92,195.592-93.057Z" transform="translate(-145.348 153.713)" opacity="0.09"/>
                <path id="パス_781" data-name="パス 781" d="M174.24-42.282l-5.967-5.969-8.286,1.245v3.421a2.726,2.726,0,0,0,1.395,2.38l10.442,5.812s4.693,1.3,6.392-2.267l-.042-.237C177.886-39.484,175.374-41.135,174.24-42.282Z" transform="translate(-150.237 189.069)" fill="#23393d"/>
                <path id="パス_782" data-name="パス 782" d="M185.146-47.66l-5.967-5.969-8.286,1.245v3.421a2.728,2.728,0,0,0,1.395,2.38l5.592,1.91s6,4.073,8.633,3.187C188.825-42.264,190.78-44.674,185.146-47.66Z" transform="translate(-145.414 186.69)" fill="#23393d"/>
                <path id="パス_783" data-name="パス 783" d="M186.1-98.312c-2.681,1.536-3.808-.026-6.366,1.232-6.891,3.389-23.088,1.605-23.252,1.6l3.929,70.695c8.984,4.778,11.284-1.139,11.284-1.139l1.99-53.194,2.869,47.6c8.417,2.59,10.116-2.186,10.116-2.186s.023-36.316-.57-49.218C185.946-86.178,186.1-98.312,186.1-98.312Z" transform="translate(-151.789 166.929)" fill="#7c9094"/>
                <path id="パス_784" data-name="パス 784" d="M168.595-88.121c-.094.725-.206,1.451-.353,2.179-.777,3.852,3.15,49.912,3.15,49.912a15.185,15.185,0,0,0,4.539.751c-.824-4.151-1.284-8.394-1.712-12.422C172.776-61.236,168.707-88.109,168.595-88.121Z" transform="translate(-146.632 171.436)" opacity="0.09"/>
                <path id="パス_785" data-name="パス 785" d="M179.73-97.08c-6.891,3.389-23.088,1.605-23.252,1.6l3.929,70.695a18.243,18.243,0,0,0,3.259,1.374c-1.8-6.819-3.832-39.43-.583-46.834,2.841-10.342,10.736-15.337,21.151-19.665a4.065,4.065,0,0,1,1.8-.34c.014-4.035.063-8.061.063-8.061C183.415-96.776,182.288-98.338,179.73-97.08Z" transform="translate(-151.789 166.929)" opacity="0.09"/>
                <path id="パス_786" data-name="パス 786" d="M183.957-102.058c.274-8.453.8-16.307-.773-24.53a22.144,22.144,0,0,1-6.248-2.843,2.856,2.856,0,0,1-1.095-1.477h-3.923l-4.586.8-7.4,4.834c-3.539,1.933-5.348,4.873-5.136,8.9L159.551-81.6s.656,5.6,13,3.934c6.78-.913,10.487-2.835,12.416-4.305A116.818,116.818,0,0,1,183.957-102.058Z" transform="translate(-152.542 152.514)" fill="#e5e5e5"/>
                <path id="パス_787" data-name="パス 787" d="M177.918-124.02c-1.236-3.877-2.518-6.9-7.891-6.878,4.044,7.143,3.46,20.623,3.235,25.265-.226,4.664-1.95-2.355-1.925,2.315q.052,9.361-.053,18.722c1.666.822.842,5.283,2.544,6.907,3.844,3.671,6.846-1.923,6.846-1.923l-1.76-20.95S179.117-120.256,177.918-124.02Z" transform="translate(-145.797 152.518)" fill="#2c545c"/>
                <path id="パス_788" data-name="パス 788" d="M172.189-125.436a83.129,83.129,0,0,1,.687,17.388c-.225,4.664-1.948-2.355-1.924,2.315q.052,9.361-.053,18.722c1.664.822.842,5.283,2.544,6.907,1.612,1.539,3.072,1.442,4.229.818a179.155,179.155,0,0,1-3.1-23.5C174.117-111.1,174.969-118.294,172.189-125.436Z" transform="translate(-145.412 154.934)" opacity="0.09"/>
                <path id="パス_789" data-name="パス 789" d="M179.492-107.717c0,.261-.007.405-.007.405s-7.843-14.252-9.021-16.026c-1.429-2.156-2.81-4.345-4.178-6.539l-6.356,4.149c-3.539,1.933-5.348,4.873-5.136,8.9l3.345,41.251s1.25,3.171,11.28,4.162c4.666.459,12.269-3.471,12.5-6.4-1.248-8.873-1.785-20.732-2.315-29.684C179.562-107.568,179.526-107.642,179.492-107.717Z" transform="translate(-152.542 152.97)" fill="#2c545c"/>
                <path id="パス_790" data-name="パス 790" d="M159.929-126.8c-3.539,1.933-5.348,4.873-5.136,8.9l3.345,41.251s1.25,3.171,11.28,4.162a9.388,9.388,0,0,0,1.972-.039c-8.672-16.1-10.2-36.984-10.482-54.915Z" transform="translate(-152.542 154.047)" opacity="0.09"/>
                <path id="パス_791" data-name="パス 791" d="M154.776-83.82a22.853,22.853,0,0,1,2.626.466c.27.023.539.037.809.036a7.971,7.971,0,0,1,1.992.128l0-.023.14-8.6-5.421,1.569Z" transform="translate(-152.542 169.804)" fill="#f7b7a9"/>
                <path id="パス_792" data-name="パス 792" d="M157.607-84.329l1.393,1-.088,2.371c0,2.075,1.451,1.937,1.451,1.937l.3-6.858-1.793-6.35Z" transform="translate(-151.29 169.621)" fill="#f7b7a9"/>
                <path id="パス_793" data-name="パス 793" d="M155.137-92.426c-.173-.019-.346-.036-.524-.062l-.006,0,.242,2.336s1.843,3.157,5.873.11l.1-2.9A6.107,6.107,0,0,1,155.137-92.426Z" transform="translate(-152.616 169.302)" fill="#e5e5e5"/>
                <path id="パス_794" data-name="パス 794" d="M160.457-126.129c-5.819.009-6.219,9.362-6.219,9.362L153.227-97l1.278,20.37s3.27,2.45,7.3-.6l.8-20.542,1.8-17.094S164.9-126.135,160.457-126.129Z" transform="translate(-153.227 154.627)" fill="#2c545c"/>
                <path id="パス_795" data-name="パス 795" d="M159.429-126.055c-4.84,1.034-5.191,9.255-5.191,9.255l-1.011,19.763,1.276,20.37a5.79,5.79,0,0,0,4.853.669c-1.774-5.662-2.411-11.255-2.626-18.129-.332-10.642-.438-21.391,2.6-31.693C159.359-125.906,159.4-125.973,159.429-126.055Z" transform="translate(-153.227 154.66)" opacity="0.09"/>
                <path id="パス_796" data-name="パス 796" d="M163.482-127.5a4.924,4.924,0,0,0,4.921,4.925,4.924,4.924,0,0,0,4.922-4.925v-8.049h-9.118Z" transform="translate(-148.692 150.463)" fill="#f7b7a9"/>
                <path id="パス_797" data-name="パス 797" d="M163.659-130.332a.733.733,0,0,1,.166.173c2.081,3.29,5.556,5.081,9.288,2.944.039-.022.075-.05.112-.074,0-.071.022-.136.022-.208v-8.049h-9.118Z" transform="translate(-148.613 150.463)" fill="#dea498"/>
                <path id="パス_798" data-name="パス 798" d="M154.937-89.339l-.524,5.7.966,2.72,2.012,1.467s1.141,1.715,1.272,1.91a.749.749,0,0,0,1.338-.59l-.16-.824-.163-2.563.734-3.079Z" transform="translate(-152.703 170.898)" fill="#f7b7a9"/>
                <path id="パス_799" data-name="パス 799" d="M164.309-131.8l-2.159,3.343a11.639,11.639,0,0,0,8.195,7.314l1.214-3.813C165.857-126.249,164.309-131.8,164.309-131.8Z" transform="translate(-149.281 152.119)" fill="#fff"/>
                <path id="パス_800" data-name="パス 800" d="M168.674-125.441a14.97,14.97,0,0,1,3,2.68s1.285-6.023-.64-7.942A5.853,5.853,0,0,1,168.674-125.441Z" transform="translate(-146.396 152.604)" fill="#fff"/>
                <path id="パス_801" data-name="パス 801" d="M164.123-131.048l-3.135,3.353,1.865,7.9h1.732l-2.107.9a68.769,68.769,0,0,1,8.58,8.033c3.063,3.506,4.944,5.29,6.086,8.4,0,0,.577-2.683.208-3.77C175.2-112.571,168.292-124.343,164.123-131.048Z" transform="translate(-149.795 152.452)" fill="#56767d"/>
                <path id="パス_802" data-name="パス 802" d="M173.416-123.83l1.4-.607c-.724-4.273-4.667-6.891-4.667-6.891v3.532c4.011,10.048,2.941,25.464,2.941,25.464,2.267-4.6,2.2-21.5,2.2-21.5Z" transform="translate(-145.742 152.328)" fill="#56767d"/>
                <path id="パス_803" data-name="パス 803" d="M162.979-131.511c0,4.12,7.366,6.408,7.366,6.408,3.976,0,6.079-1.827,6.079-6.023v-10.56l-14.274,2.547Z" transform="translate(-149.281 147.747)" fill="#f7b7a9"/>
                <path id="パス_804" data-name="パス 804" d="M175.333-144.073c-5.659-3.554-10.546-1.493-13.913,2.756-1.644,2.074-.513,6.251-.026,8.211a15.018,15.018,0,0,0,3.681,6.859l.425-7.028.826,1.4,1.184-.864s-.519-2.983-.495-3.477c.085-1.692,10.112-1.934,10.112-1.934S181.506-140.2,175.333-144.073Z" transform="translate(-149.984 145.889)" fill="#81524f"/>
                <path id="パス_805" data-name="パス 805" d="M162.309-136.526c-.226,1.809.969,3.8,2.43,3.128v-3.49S162.617-138.978,162.309-136.526Z" transform="translate(-149.223 149.502)" fill="#f7b7a9"/>
                <path id="パス_806" data-name="パス 806" d="M169.683-126.7l-.968.335-.745,2.338,1.612,1.982,2.033-.333.366-2.157-1.045-1.139Z" transform="translate(-146.707 154.375)" fill="#ed7f53"/>
                <path id="パス_807" data-name="パス 807" d="M171.121-123.7l-2.034.333.7,5.123,3.9,8.535a60.736,60.736,0,0,0-.329-7.924A41.853,41.853,0,0,0,171.121-123.7Z" transform="translate(-146.213 155.701)" fill="#ed7f53"/>
              </g>
            </g>
          </g>
        </g>
        <path id="パス_808" data-name="パス 808" d="M164.254-142.728c.953,1.377,1.236,2.758.676,3.457a1.326,1.326,0,0,1-1.061.511,1.354,1.354,0,0,1-.911-.78C162.571-140.374,163.109-141.632,164.254-142.728Z" transform="translate(4.248 1.398)" fill="#89b8c1"/>
        <path id="パス_809" data-name="パス 809" d="M162.745-139.972c.953,1.376,1.236,2.758.676,3.457a1.33,1.33,0,0,1-1.063.509,1.344,1.344,0,0,1-.91-.78C161.062-137.618,161.6-138.877,162.745-139.972Z" transform="translate(3.581 2.617)" fill="#89b8c1"/>
        <path id="パス_810" data-name="パス 810" d="M161.583-143.063c.953,1.376,1.236,2.758.676,3.457a1.33,1.33,0,0,1-1.063.509,1.344,1.344,0,0,1-.91-.78C159.9-140.709,160.438-141.968,161.583-143.063Z" transform="translate(3.067 1.25)" fill="#89b8c1"/>
      </g>
    </g>
  </g>
</svg>
