<svg xmlns="http://www.w3.org/2000/svg" xmlns:xlink="http://www.w3.org/1999/xlink" width="232.774" height="241.648" viewBox="0 0 232.774 241.648">
  <defs>
    <linearGradient id="linear-gradient" y1="0.5" x2="1" y2="0.5" gradientUnits="objectBoundingBox">
      <stop offset="0" stop-color="#2842a2"/>
      <stop offset="0.283" stop-color="#3258b4"/>
      <stop offset="0.742" stop-color="#4176cf"/>
      <stop offset="1" stop-color="#4782d9"/>
    </linearGradient>
  </defs>
  <g id="Layer_14" data-name="Layer 14" transform="translate(-241.388 -99.081)">
    <path id="パス_259" data-name="パス 259" d="M409.174,272.06,324.85,320.475l-11.2-6.467,84.324-48.415Z" transform="translate(54.265 20.254)" fill="#f0f2f8"/>
    <path id="パス_260" data-name="パス 260" d="M384.764,264.518l-56.715,32.335-11.2-6.467,56.715-32.334Z" transform="translate(56.667 14.59)" fill="#f0f2f8"/>
    <path id="パス_261" data-name="パス 261" d="M391.106,256.977,290.3,315.179l-11.2-6.467L379.9,250.51Z" transform="translate(28.317 8.927)" fill="#f0f2f8"/>
    <path id="パス_262" data-name="パス 262" d="M371.444,249.435,287.172,297.72l-11.2-6.467,84.271-48.284Z" transform="translate(25.971 3.263)" fill="#f0f2f8"/>
    <path id="パス_263" data-name="パス 263" d="M347.033,241.894l-56.662,33-11.2-6.467,56.663-33Z" transform="translate(28.373 -2.4)" fill="#f0f2f8"/>
    <path id="パス_264" data-name="パス 264" d="M353.4,234.352l-100.809,58.2-11.2-6.467,100.809-58.2Z" transform="translate(0 -8.064)" fill="#f0f2f8"/>
    <path id="パス_265" data-name="パス 265" d="M322.153,226.811l-57.264,32.511-11.2-6.467,57.264-32.512Z" transform="translate(9.237 -13.727)" fill="#f0f2f8"/>
    <g id="グループ_153" data-name="グループ 153" transform="translate(325.291 99.081)">
      <path id="パス_266" data-name="パス 266" d="M516.238,116.58l-131.45-76.5a3.773,3.773,0,0,0-5.636,2.753l-.317,2.328v92.762a7.221,7.221,0,0,0,3.595,6.244l131.227,76.615H515.3a4.532,4.532,0,0,0,4.532-4.532V122.825A7.221,7.221,0,0,0,516.238,116.58Z" transform="translate(-374.313 -39.567)" fill="url(#linear-gradient)"/>
      <path id="パス_267" data-name="パス 267" d="M512.638,118.132,382.5,42.553a2.443,2.443,0,0,0-3.67,2.113v93.114a7.221,7.221,0,0,0,3.595,6.244L512.563,219.6a2.443,2.443,0,0,0,3.67-2.113V124.376A7.223,7.223,0,0,0,512.638,118.132Z" transform="translate(-374.313 -38.72)" fill="#f7f9f9"/>
      <path id="パス_268" data-name="パス 268" d="M516.232,128.356v-2.7c-.342-.185-.683-.373-1.029-.565a19.852,19.852,0,0,0-5.728-2.435c-5.438-1.062-10.733.878-14.74,2.685a20.239,20.239,0,0,0-5.484,4.042c-2.286,2.148-4.088,3.833-7.254,3.481-4.085-.472-6.367-5.794-8.2-10.071-.29-.678-.569-1.329-.842-1.932-.483-1.062-.93-2.134-1.379-3.2-2.271-5.429-4.623-11.044-11.12-14.745-5.648-3.217-12.258-2.675-18.6,1.528-.757.5-1.523,1.032-2.3,1.569-4.349,3.018-8.849,6.141-13.5,5.152-2.443-.516-4.931-2.924-7.567-5.474-3.616-3.5-7.714-7.462-13.212-8.2-6.188-.83-11.128-.173-15.112,2.02a37.326,37.326,0,0,0-5.79,4.467,69.177,69.177,0,0,1-5.538,4.479v2.885a58.56,58.56,0,0,0,7.114-5.553,35.89,35.89,0,0,1,5.373-4.174c3.515-1.937,7.974-2.507,13.633-1.746,4.716.636,8.35,4.15,11.863,7.549,2.891,2.8,5.622,5.438,8.738,6.1,5.663,1.193,10.818-2.374,15.364-5.526.76-.527,1.512-1.048,2.255-1.54,3.217-2.131,9.583-5.15,16.09-1.444,5.788,3.3,7.881,8.294,10.095,13.585.455,1.089.915,2.183,1.405,3.266.267.59.54,1.225.823,1.886,1.968,4.591,4.663,10.88,10.131,11.51a9.568,9.568,0,0,0,1.126.067c3.6,0,5.858-2.123,8.048-4.183a18.073,18.073,0,0,1,4.827-3.6c3.682-1.66,8.522-3.448,13.294-2.516a17.843,17.843,0,0,1,5.022,2.177C514.76,127.591,515.489,127.991,516.232,128.356Z" transform="translate(-374.313 -21.167)" fill="#e6e7e8"/>
      <g id="グループ_152" data-name="グループ 152" transform="translate(0 79.138)">
        <path id="パス_269" data-name="パス 269" d="M483.3,138.339a10.259,10.259,0,0,1-1.177-.069c-6.136-.709-9.983-6.5-12.127-11.231-.8-1.77-1.507-3.628-2.188-5.425-1.867-4.937-3.633-9.6-7.388-13.036-5.641-5.169-13.327-.771-15.549.7-.56.372-1.124.753-1.693,1.139-4.657,3.15-9.931,6.723-15.835,5.945-4.916-.647-8.526-4.039-12.019-7.321-2.732-2.567-5.557-5.222-8.911-6.4-3.932-1.379-8.812-.721-13.4,1.8a35.994,35.994,0,0,0-5.376,4.175c-3.3,2.877-7.047,6.136-11.422,7.707l-.812-2.259c3.952-1.417,7.515-4.52,10.658-7.258a37.321,37.321,0,0,1,5.793-4.467c5.181-2.853,10.775-3.568,15.348-1.966,3.835,1.345,6.847,4.177,9.761,6.915,3.362,3.159,6.539,6.144,10.689,6.69,4.993.656,9.664-2.5,14.175-5.553.577-.391,1.147-.776,1.715-1.152,6.905-4.575,13.819-4.749,18.494-.468,4.177,3.824,6.126,8.975,8.013,13.956.666,1.762,1.357,3.584,2.129,5.284,1.888,4.167,5.2,9.258,10.215,9.839,3.861.443,6.853-2.028,10-4.65a40.739,40.739,0,0,1,3.876-2.976,20.457,20.457,0,0,1,14.9-2.771,19.933,19.933,0,0,1,5.727,2.435c2.374,1.317,4.612,2.564,7.044,2.22l.338,2.377c-3.221.455-5.929-1.045-8.547-2.5a16.266,16.266,0,0,0-18.158.255,38.4,38.4,0,0,0-3.641,2.8C490.961,135.559,487.622,138.339,483.3,138.339Z" transform="translate(-375.408 -99.539)" fill="#ffc107"/>
      </g>
      <path id="パス_270" data-name="パス 270" d="M458,119.966h-.6V177.3l.6.348Z" transform="translate(-349.201 -13.872)" fill="#2842a2"/>
      <path id="パス_271" data-name="パス 271" d="M395.466,138.011l.6.348V94.382h-.6Z" transform="translate(-368.997 -22.049)" fill="#2842a2"/>
      <path id="パス_272" data-name="パス 272" d="M414.184,149.473l.6.348V103.4h-.6Z" transform="translate(-363.015 -19.165)" fill="#2842a2"/>
      <path id="パス_273" data-name="パス 273" d="M436.3,169.307l.6.349V94.382h-.6Z" transform="translate(-355.946 -22.049)" fill="#2842a2"/>
      <path id="パス_274" data-name="パス 274" d="M396.843,94.679c0,.677-.414,1.226-.925,1.226a1.108,1.108,0,0,1-.926-1.226c0-.677.414-1.227.926-1.227S396.843,94,396.843,94.679Z" transform="translate(-369.149 -22.346)" fill="#2842a2"/>
      <path id="パス_275" data-name="パス 275" d="M415.561,103.7c0,.678-.414,1.227-.925,1.227s-.926-.549-.926-1.227a1.108,1.108,0,0,1,.926-1.226C415.147,102.474,415.561,103.023,415.561,103.7Z" transform="translate(-363.167 -19.462)" fill="#2842a2"/>
      <path id="パス_276" data-name="パス 276" d="M437.678,94.679c0,.677-.414,1.226-.925,1.226a1.108,1.108,0,0,1-.926-1.226c0-.677.414-1.227.926-1.227S437.678,94,437.678,94.679Z" transform="translate(-356.098 -22.346)" fill="#2842a2"/>
      <ellipse id="楕円形_73" data-name="楕円形 73" cx="0.926" cy="1.226" rx="0.926" ry="1.226" transform="translate(107.578 104.868)" fill="#2842a2"/>
    </g>
  </g>
</svg>
