<svg xmlns="http://www.w3.org/2000/svg" width="22.34" height="32.494" viewBox="0 0 22.34 32.494">
  <path id="lightbulb" d="M11.17,5.077A6.1,6.1,0,0,0,5.077,11.17a1.015,1.015,0,0,0,2.031,0A4.066,4.066,0,0,1,11.17,7.108a1.015,1.015,0,0,0,0-2.031ZM6.1,29.141a1.009,1.009,0,0,0,.17.561L7.822,32.04a1.016,1.016,0,0,0,.845.453h5a1.014,1.014,0,0,0,.845-.453L16.073,29.7a1.021,1.021,0,0,0,.17-.561l0-2.74H6.094ZM11.17,0A11.164,11.164,0,0,0,2.765,18.518a18.162,18.162,0,0,1,3.327,5.849v0H9.138v-.008A3,3,0,0,0,9,23.47a20.012,20.012,0,0,0-3.946-6.96,8.123,8.123,0,1,1,12.229,0,20.057,20.057,0,0,0-3.941,6.947,3.015,3.015,0,0,0-.141.908v.006h3.046v0a18.148,18.148,0,0,1,3.327-5.849A11.165,11.165,0,0,0,11.17,0Z" fill="#fff"/>
</svg>
