<svg xmlns="http://www.w3.org/2000/svg" width="67.38" height="60.74" viewBox="0 0 67.38 60.74">
  <g id="グループ_396" data-name="グループ 396" transform="translate(-1011 -1015)">
    <g id="グループ_154" data-name="グループ 154" transform="translate(1011 1015)">
      <path id="パス_277" data-name="パス 277" d="M146.5,120.5c3.7-1.178,2.631-4.309,2.631-4.309V105.158H133.3v10.933h0S135.164,121.954,146.5,120.5Z" transform="translate(-129.947 -80.72)" fill="#efa873"/>
      <path id="パス_278" data-name="パス 278" d="M133.3,105.517a14.3,14.3,0,0,0,15.83,6.941v-7.3H133.3Z" transform="translate(-129.947 -80.72)" opacity="0.1"/>
      <ellipse id="楕円形_74" data-name="楕円形 74" cx="14.308" cy="14.308" rx="14.308" ry="14.308" transform="translate(0.706 1.838)" fill="#efa873"/>
      <path id="パス_279" data-name="パス 279" d="M155.208,91.486c4.71-.655,5.991-5.213,3.669-8.983a17.681,17.681,0,0,0-14.32-7.393,15.135,15.135,0,0,0-13.84,21.262,15.2,15.2,0,0,0,8.765-8.7c-.21.506,5.128,2.593,5.483,2.709A24.425,24.425,0,0,0,155.208,91.486Z" transform="translate(-129.223 -75.109)" fill="#333"/>
      <path id="パス_280" data-name="パス 280" d="M146.538,127.954l1.372,2.4,3.116-.116h0l1.69-3.554-3.373-2.343Z" transform="translate(-132.419 -84.303)" fill="#2c3e50"/>
      <path id="パス_281" data-name="パス 281" d="M145.725,123.011h0c-11.335,1.452-13.2-4.411-13.2-4.411h0a3.62,3.62,0,0,0-3.353,1.749c2.576,6.359,13.315,7.567,13.315,7.567l.8-1.035,2.8-3.608Z" transform="translate(-129.177 -83.228)" fill="#e6e6e6"/>
      <path id="パス_282" data-name="パス 282" d="M155.512,120.383s-2.543-1.813-3.353-1.658c0,0,1.072,3.131-2.631,4.309h0l.374.26,3.373,2.343.86.6A4.458,4.458,0,0,0,155.512,120.383Z" transform="translate(-132.977 -83.252)" fill="#e6e6e6"/>
      <path id="パス_283" data-name="パス 283" d="M148.224,131.629l1.193,13.978,2.309.79,2.164-.836L151.34,131.6h0Z" transform="translate(-132.734 -85.657)" fill="#2c3e50"/>
      <path id="パス_284" data-name="パス 284" d="M134.554,101.492a2.571,2.571,0,1,1-2.571-2.571A2.571,2.571,0,0,1,134.554,101.492Z" transform="translate(-129.221 -79.555)" fill="#efa873"/>
    </g>
    <g id="グループ_155" data-name="グループ 155" transform="translate(1047.598 1015)">
      <path id="パス_277-2" data-name="パス 277" d="M146.5,120.5c3.7-1.178,2.631-4.309,2.631-4.309V105.158H133.3v10.933h0S135.164,121.954,146.5,120.5Z" transform="translate(-129.947 -80.72)" fill="#efa873"/>
      <path id="パス_278-2" data-name="パス 278" d="M133.3,105.517a14.3,14.3,0,0,0,15.83,6.941v-7.3H133.3Z" transform="translate(-129.947 -80.72)" opacity="0.1"/>
      <ellipse id="楕円形_74-2" data-name="楕円形 74" cx="14.308" cy="14.308" rx="14.308" ry="14.308" transform="translate(0.706 1.838)" fill="#efa873"/>
      <path id="パス_279-2" data-name="パス 279" d="M155.208,91.486c4.71-.655,5.991-5.213,3.669-8.983a17.681,17.681,0,0,0-14.32-7.393,15.135,15.135,0,0,0-13.84,21.262,15.2,15.2,0,0,0,8.765-8.7c-.21.506,5.128,2.593,5.483,2.709A24.425,24.425,0,0,0,155.208,91.486Z" transform="translate(-129.223 -75.109)" fill="#333"/>
      <path id="パス_280-2" data-name="パス 280" d="M146.538,127.954l1.372,2.4,3.116-.116h0l1.69-3.554-3.373-2.343Z" transform="translate(-132.419 -84.303)" fill="#2c3e50"/>
      <path id="パス_281-2" data-name="パス 281" d="M145.725,123.011h0c-11.335,1.452-13.2-4.411-13.2-4.411h0a3.62,3.62,0,0,0-3.353,1.749c2.576,6.359,13.315,7.567,13.315,7.567l.8-1.035,2.8-3.608Z" transform="translate(-129.177 -83.228)" fill="#e6e6e6"/>
      <path id="パス_282-2" data-name="パス 282" d="M155.512,120.383s-2.543-1.813-3.353-1.658c0,0,1.072,3.131-2.631,4.309h0l.374.26,3.373,2.343.86.6A4.458,4.458,0,0,0,155.512,120.383Z" transform="translate(-132.977 -83.252)" fill="#e6e6e6"/>
      <path id="パス_283-2" data-name="パス 283" d="M148.224,131.629l1.193,13.978,2.309.79,2.164-.836L151.34,131.6h0Z" transform="translate(-132.734 -85.657)" fill="#2c3e50"/>
      <path id="パス_284-2" data-name="パス 284" d="M134.554,101.492a2.571,2.571,0,1,1-2.571-2.571A2.571,2.571,0,0,1,134.554,101.492Z" transform="translate(-129.221 -79.555)" fill="#efa873"/>
    </g>
  </g>
</svg>
