<svg xmlns="http://www.w3.org/2000/svg" width="185.005" height="224.73" viewBox="0 0 185.005 224.73">
  <g id="グループ_160" data-name="グループ 160" transform="translate(-867.24 -759.309)">
    <g id="グループ_159" data-name="グループ 159" transform="translate(867.24 872.99)">
      <path id="パス_285" data-name="パス 285" d="M1043.111,991.142l-100.2,50.536-75.673-37.967L967.433,953.7Z" transform="translate(-867.24 -930.629)" fill="#f5e8c8"/>
      <path id="パス_286" data-name="パス 286" d="M1043.111,984.607l-100.2,50.536L867.24,997.175l100.193-50.012Z" transform="translate(-867.24 -928.691)" fill="#fff8e5"/>
      <g id="グループ_158" data-name="グループ 158">
        <path id="パス_287" data-name="パス 287" d="M1043.111,977.956l-100.2,50.536L867.24,990.524l100.193-50.012Z" transform="translate(-867.24 -926.719)" fill="#f5e8c8"/>
        <path id="パス_288" data-name="パス 288" d="M1043.111,971.42l-100.2,50.536L867.24,983.989l100.193-50.012Z" transform="translate(-867.24 -924.781)" fill="#fff8e5"/>
        <path id="パス_289" data-name="パス 289" d="M1043.111,964.885l-100.2,50.536L867.24,977.453l100.193-50.012Z" transform="translate(-867.24 -922.843)" fill="#f5e8c8"/>
        <path id="パス_290" data-name="パス 290" d="M1043.111,958.349l-100.2,50.536L867.24,970.918l100.193-50.012Z" transform="translate(-867.24 -920.906)" fill="#fff8e5"/>
        <g id="グループ_156" data-name="グループ 156" transform="translate(16.252 18.879)">
          <path id="パス_291" data-name="パス 291" d="M1034.7,979.261l-2.85,1.51-62.876-31.52,2.85-1.51Z" transform="translate(-913.658 -947.741)" fill="#ccc"/>
          <path id="パス_292" data-name="パス 292" d="M1021.6,985.8l-2.85,1.51-62.876-31.52,2.85-1.51Z" transform="translate(-909.772 -949.681)" fill="#ccc"/>
          <path id="パス_293" data-name="パス 293" d="M1008.491,992.342l-2.85,1.51-62.876-31.52,2.85-1.51Z" transform="translate(-905.885 -951.62)" fill="#ccc"/>
          <path id="パス_294" data-name="パス 294" d="M995.385,998.883l-2.85,1.51-62.876-31.52,2.85-1.51Z" transform="translate(-901.999 -953.559)" fill="#ccc"/>
          <path id="パス_295" data-name="パス 295" d="M982.279,1005.423l-2.85,1.51-62.876-31.52,2.85-1.51Z" transform="translate(-898.113 -955.499)" fill="#ccc"/>
          <path id="パス_296" data-name="パス 296" d="M969.173,1011.963l-2.85,1.51-62.876-31.52,2.85-1.51Z" transform="translate(-894.227 -957.438)" fill="#ccc"/>
          <path id="パス_297" data-name="パス 297" d="M956.067,1018.5l-2.85,1.51-62.876-31.52,2.85-1.51Z" transform="translate(-890.341 -959.377)" fill="#ccc"/>
        </g>
        <g id="グループ_157" data-name="グループ 157" transform="translate(79.837 9.156)">
          <path id="パス_298" data-name="パス 298" d="M1059.558,965.441l-2.85,1.51-62.876-31.52,2.85-1.51Z" transform="translate(-984.612 -933.921)" fill="#ccc"/>
          <path id="パス_299" data-name="パス 299" d="M1046.453,971.982l-2.85,1.51-62.876-31.52,2.85-1.51Z" transform="translate(-980.727 -935.861)" fill="#ccc"/>
        </g>
      </g>
    </g>
    <path id="パス_300" data-name="パス 300" d="M1062.363,836.3,929.55,760.16a6.282,6.282,0,0,0-9.422,5.44v72.685a11.13,11.13,0,0,0,5.558,9.634l57.193,32.517,29.215,17.09,46.35,27.437a6.282,6.282,0,0,0,9.482-5.406V845.94A11.126,11.126,0,0,0,1062.363,836.3Z" transform="translate(-15.682)" fill="#0089cd"/>
    <path id="パス_301" data-name="パス 301" d="M920.128,777.9v64.035a11.13,11.13,0,0,0,5.558,9.634l50.273,29.057,5.957,21.836a5.264,5.264,0,0,0,7.47,3.3l15.788-8.05,46.349,27.437a6.282,6.282,0,0,0,9.482-5.406V854.777a11.129,11.129,0,0,0-5.564-9.637L929.55,772.456A6.282,6.282,0,0,0,920.128,777.9Z" transform="translate(-15.682 -3.646)" fill="#f7f9f9" stroke="#0089cd" stroke-width="4"/>
    <path id="パス_242" data-name="パス 242" d="M1033.807,883.44a9.163,9.163,0,0,0-1.871-6.672l-.712-.376c-3.585-1.9-7.179-2.058-9.61-.423a5.226,5.226,0,0,0-2.306,3.743,7.7,7.7,0,0,0,.188,2.853.969.969,0,0,1,.021.364.8.8,0,0,1-.732.7,1.152,1.152,0,0,1-1.183-.872,9.678,9.678,0,0,1-.233-3.6,6.793,6.793,0,0,1,3-4.86,10.681,10.681,0,0,1,10.08-.3c.43-5.194-3.314-10.469-8.615-12.067a11.733,11.733,0,0,0-8.308-9,9.193,9.193,0,0,0-6.7.579l.14.1-.414.279a6.375,6.375,0,0,0-2.715,4.592q-.056.414-.073.835a10.58,10.58,0,0,0,3.426,8.021,6.773,6.773,0,0,1,3.32-1.116,1.153,1.153,0,0,1,1.17.891.964.964,0,0,1,.018.344.806.806,0,0,1-.749.706,4.355,4.355,0,0,0-4.316,3.9c-.027.2-.044.407-.051.614,0,.031-.007.062-.013.092a.817.817,0,0,1-1,.691,1.157,1.157,0,0,1-.68-.4,1.088,1.088,0,0,1-.261-.729,6.486,6.486,0,0,1,1.248-3.749,12.668,12.668,0,0,1-4.065-9.623q.019-.515.088-1.02a8.045,8.045,0,0,1,2.88-5.326,12.843,12.843,0,0,0-2.677-1.078,9.79,9.79,0,0,0-11.738,4.706l.075.041-.09.306c-1.02,3.422-.539,6.2,1.48,8.531a1.072,1.072,0,0,1,.269.839.811.811,0,0,1-.286.518,1.013,1.013,0,0,1-1.375-.215,10.062,10.062,0,0,1-2.51-5.652,3.361,3.361,0,0,0-2.633,2.583,3.26,3.26,0,0,0,.1,1.287.987.987,0,0,1,.027.387.8.8,0,0,1-.708.7,1.149,1.149,0,0,1-1.2-.846,5.283,5.283,0,0,1-.158-2.091c.279-2.044,2.037-3.635,4.479-4.055.032-.005.063-.009.094-.011a14.083,14.083,0,0,1,.559-2.8c-.189-.065-.377-.125-.569-.177a8.156,8.156,0,0,0-4.7.051,6.844,6.844,0,0,0-4.722,5.718,8.2,8.2,0,0,0-.024,1.975,5.759,5.759,0,0,0-4.594,4.969,8.223,8.223,0,0,0,5,8.312l-.011.078,19.027,5.239a7.486,7.486,0,0,0,2,5.209,29.483,29.483,0,0,0,4.618,3.655,4.873,4.873,0,0,1,1.748,1.531,5.575,5.575,0,0,1,.514,2.25,37.1,37.1,0,0,0,1.933,7.62,3.412,3.412,0,0,0,.461,1.011,2.526,2.526,0,0,0,2.389.708,1.446,1.446,0,0,0,.953-.35c.583-.628,0-1.763-.369-2.657a8.878,8.878,0,0,1-.12-5.408,3.193,3.193,0,0,1,.872-1.79c.9-.736,2.261-.195,3.393.31a13.378,13.378,0,0,0,4.433,1.308,5,5,0,0,0,4.061-1.4,4.225,4.225,0,0,0,.713-4.476A7.061,7.061,0,0,0,1033.807,883.44Zm-25.8-5.746a4.728,4.728,0,0,1,5.216-1.349,1.137,1.137,0,0,1,.811,1.195l0,.027a.785.785,0,0,1-.392.571.917.917,0,0,1-.726.064,2.773,2.773,0,0,0-3.42,4.085,1.044,1.044,0,0,1,.108.408c-.5-.1-1-.182-1.5-.248-.212-.027-.4-.047-.573-.066a5.242,5.242,0,0,1-.379-2.649A4.12,4.12,0,0,1,1008.009,877.694ZM997.915,873.3a5.985,5.985,0,0,0-5.189-2.054,4.143,4.143,0,0,0-3.305,3.474.783.783,0,0,1-.421.548.933.933,0,0,1-.732.03,1.145,1.145,0,0,1-.769-1.178c0-.024.006-.048.01-.071a5.693,5.693,0,0,1,4.616-4.725,8.145,8.145,0,0,1,7.105,2.744,1.091,1.091,0,0,1,.309.881.8.8,0,0,1-.247.488.844.844,0,0,1-.676.215,1.133,1.133,0,0,1-.7-.352Z" transform="translate(-31.609 -27.205)" fill="#0089cd"/>
  </g>
</svg>
