<svg xmlns="http://www.w3.org/2000/svg" width="293.978" height="225.284" viewBox="0 0 293.978 225.284">
  <g id="グループ_391" data-name="グループ 391" transform="translate(-824 -468.971)">
    <path id="パス_256" data-name="パス 256" d="M663.8,260.663c-3.253-6.109-8.375-15.276-17.486-16.17-10.178-1-19.8,8.88-23.865,15.734-4.54,7.658-14.745,20.712-26.931,17.742-12.106-2.95-13.242-18.074-13.7-26.674-.922-17.107-1.551-48.5-28.168-51.54-25.371-2.9-34.989,17.442-45.161,32.944-7.381,11.25-22.916,25.581-40.1,19.722-12.106-4.131-18.767-15.127-24.461-24.357-11.011-17.842-23.156-37.524-49.177-22.3a194.2,194.2,0,0,0-23.88,17.971v8.892c0,4.675,2.93,9,7.69,11.346L657,381.33c3.485,1.718,7.853-.416,7.853-3.839V262.857C664.5,262.126,664.179,261.37,663.8,260.663Z" transform="translate(453.129 269.495)" fill="#ffc107" opacity="0.109"/>
    <g id="グループ_151" data-name="グループ 151" transform="translate(935.425 491.283)">
      <path id="パス_244" data-name="パス 244" d="M525.581,312.076c7.248-4.186,7.248-11.032,0-15.218s-19.107-4.186-26.356,0-7.248,11.032,0,15.218S518.336,316.26,525.581,312.076Z" transform="translate(-493.79 -172.439)" fill="#0089cd"/>
      <path id="パス_245" data-name="パス 245" d="M511.105,320.576c7.248-4.186,7.248-11.034,0-15.218s-19.107-4.186-26.356,0-7.248,11.032,0,15.215S503.857,324.759,511.105,320.576Z" transform="translate(-442.702 -159.443)" fill="#6dbee6"/>
      <path id="パス_246" data-name="パス 246" d="M530.4,371.3H493.789V250.015h37.229Z" transform="translate(-493.789 -239.268)" fill="#0089cd"/>
      <path id="パス_247" data-name="パス 247" d="M515.924,361.381H479.313V269.721h37.229Z" transform="translate(-442.702 -209.136)" fill="#6dbee6"/>
      <path id="パス_248" data-name="パス 248" d="M525.581,264.12c7.248-4.186,7.248-11.032,0-15.218s-19.107-4.183-26.356,0-7.248,11.032,0,15.218S518.336,268.306,525.581,264.12Z" transform="translate(-493.79 -245.766)" fill="#1eadf4"/>
      <path id="パス_249" data-name="パス 249" d="M511.105,283.826c7.248-4.183,7.248-11.032,0-15.218s-19.107-4.183-26.356,0-7.248,11.032,0,15.218S503.857,288.012,511.105,283.826Z" transform="translate(-442.702 -215.633)" fill="#9cd7f4"/>
      <g id="グループ_149" data-name="グループ 149" transform="translate(73.222 102.158)">
        <path id="パス_250" data-name="パス 250" d="M496.423,328.257c7.16-4.186,7.16-11.032,0-15.218s-18.877-4.186-26.037,0-7.16,11.032,0,15.218S489.263,332.442,496.423,328.257Z" transform="translate(-465.015 -249.856)" fill="#b8e0f4"/>
        <path id="パス_251" data-name="パス 251" d="M501.6,349.966H464.837V290.408h37.229Z" transform="translate(-464.837 -279.661)" fill="#b8e0f4"/>
        <path id="パス_252" data-name="パス 252" d="M496.629,304.513c7.248-4.183,7.248-11.032,0-15.217s-19.107-4.183-26.356,0-7.248,11.034,0,15.217S489.381,308.7,496.629,304.513Z" transform="translate(-464.837 -286.158)" fill="#e0f2fa"/>
      </g>
      <g id="グループ_150" data-name="グループ 150" transform="translate(110.45 145.39)">
        <path id="パス_253" data-name="パス 253" d="M481.7,335.876c7.16-4.183,7.16-11.032,0-15.215s-18.877-4.186-26.037,0-7.16,11.034,0,15.217S474.543,340.062,481.7,335.876Z" transform="translate(-450.295 -281.434)" fill="#2842a2"/>
        <path id="パス_254" data-name="パス 254" d="M486.881,343.1H450.117V307.5h37.229Z" transform="translate(-450.117 -296.755)" fill="#2842a2"/>
        <path id="パス_255" data-name="パス 255" d="M481.909,321.607c7.248-4.186,7.248-11.032,0-15.218s-19.107-4.183-26.356,0-7.248,11.032,0,15.218S474.661,325.793,481.909,321.607Z" transform="translate(-450.117 -303.252)" fill="#4782d9"/>
      </g>
    </g>
  </g>
</svg>
