<svg xmlns="http://www.w3.org/2000/svg" xmlns:xlink="http://www.w3.org/1999/xlink" width="110" height="110" viewBox="0 0 110 110">
  <defs>
    <filter id="長方形_411" x="26.713" y="39.145" width="56.762" height="51.186" filterUnits="userSpaceOnUse">
      <feOffset dy="3" input="SourceAlpha"/>
      <feGaussianBlur stdDeviation="3" result="blur"/>
      <feFlood flood-opacity="0.161"/>
      <feComposite operator="in" in2="blur"/>
      <feComposite in="SourceGraphic"/>
    </filter>
  </defs>
  <g id="グループ_387" data-name="グループ 387" transform="translate(-738 -4236)">
    <g id="楕円形_9" data-name="楕円形 9" transform="translate(738 4236)" fill="#fff" stroke="#fff" stroke-width="1">
      <circle cx="55" cy="55" r="55" stroke="none"/>
      <circle cx="55" cy="55" r="54.5" fill="none"/>
    </g>
    <g id="グループ_172" data-name="グループ 172" transform="translate(-56.583 3138.48)">
      <g id="グループ_171" data-name="グループ 171" transform="translate(830.295 1133.638)">
        <g transform="matrix(1, 0, 0, 1, -35.71, -36.12)" filter="url(#長方形_411)">
          <rect id="長方形_411-2" data-name="長方形 411" width="38.762" height="33.186" transform="translate(35.71 45.14)" fill="#fff"/>
        </g>
        <rect id="長方形_412" data-name="長方形 412" width="38.762" height="9.026" transform="translate(0.05 0)" fill="#e66051"/>
        <g id="グループ_167" data-name="グループ 167" transform="translate(4.062 14.457)">
          <g id="グループ_164" data-name="グループ 164" transform="translate(0 17.465)">
            <rect id="長方形_413" data-name="長方形 413" width="7.423" height="4.861" fill="#bcc0c1"/>
            <rect id="長方形_414" data-name="長方形 414" width="7.423" height="4.861" transform="translate(11.658)" fill="#bcc0c1"/>
            <rect id="長方形_415" data-name="長方形 415" width="7.423" height="4.861" transform="translate(23.316)" fill="#bcc0c1"/>
          </g>
          <g id="グループ_165" data-name="グループ 165" transform="translate(0 8.732)">
            <rect id="長方形_416" data-name="長方形 416" width="7.423" height="4.861" fill="#bcc0c1"/>
            <rect id="長方形_417" data-name="長方形 417" width="7.423" height="4.861" transform="translate(11.658)" fill="#bcc0c1"/>
            <rect id="長方形_418" data-name="長方形 418" width="7.423" height="4.861" transform="translate(23.316)" fill="#bcc0c1"/>
          </g>
          <g id="グループ_166" data-name="グループ 166">
            <rect id="長方形_419" data-name="長方形 419" width="7.423" height="4.861" fill="#bcc0c1"/>
            <rect id="長方形_420" data-name="長方形 420" width="7.423" height="4.861" transform="translate(11.658)" fill="#bcc0c1"/>
            <rect id="長方形_421" data-name="長方形 421" width="7.423" height="4.861" transform="translate(23.316)" fill="#bcc0c1"/>
          </g>
        </g>
        <g id="グループ_170" data-name="グループ 170" transform="translate(28.955 23.485)">
          <g id="グループ_168" data-name="グループ 168">
            <path id="パス_308" data-name="パス 308" d="M951.741,1236.076a.412.412,0,0,1-.292-.7l3.443-3.443a.413.413,0,0,1,.583.583l-3.443,3.443A.412.412,0,0,1,951.741,1236.076Z" transform="translate(-951.328 -1231.809)" fill="#ad493d"/>
          </g>
          <g id="グループ_169" data-name="グループ 169">
            <path id="パス_309" data-name="パス 309" d="M955.183,1236.076a.411.411,0,0,1-.292-.12l-3.443-3.443a.413.413,0,0,1,.583-.583l3.443,3.443a.412.412,0,0,1-.292.7Z" transform="translate(-951.328 -1231.809)" fill="#ad493d"/>
          </g>
        </g>
      </g>
    </g>
  </g>
</svg>
