<svg xmlns="http://www.w3.org/2000/svg" xmlns:xlink="http://www.w3.org/1999/xlink" width="110" height="110" viewBox="0 0 110 110">
  <defs>
    <filter id="パス_302" x="26" y="20" width="58.578" height="76.71" filterUnits="userSpaceOnUse">
      <feOffset dy="3" input="SourceAlpha"/>
      <feGaussianBlur stdDeviation="3" result="blur"/>
      <feFlood flood-opacity="0.161"/>
      <feComposite operator="in" in2="blur"/>
      <feComposite in="SourceGraphic"/>
    </filter>
    <filter id="パス_303" x="26" y="23.675" width="56.631" height="72.203" filterUnits="userSpaceOnUse">
      <feOffset dy="3" input="SourceAlpha"/>
      <feGaussianBlur stdDeviation="3" result="blur-2"/>
      <feFlood flood-opacity="0.161"/>
      <feComposite operator="in" in2="blur-2"/>
      <feComposite in="SourceGraphic"/>
    </filter>
  </defs>
  <g id="グループ_385" data-name="グループ 385" transform="translate(-430 -4236)">
    <g id="楕円形_7" data-name="楕円形 7" transform="translate(430 4236)" fill="#fff" stroke="#fff" stroke-width="1">
      <circle cx="55" cy="55" r="55" stroke="none"/>
      <circle cx="55" cy="55" r="54.5" fill="none"/>
    </g>
    <g id="グループ_161" data-name="グループ 161" transform="translate(-109.739 4115.555)">
      <g transform="matrix(1, 0, 0, 1, 539.74, 120.44)" filter="url(#パス_302)">
        <path id="パス_302-2" data-name="パス 302" d="M613.884,166.788l-35.745-20.209c-1.127-.644-2.6,1.131-2.648,3.2l-.75,31.039c-.041,1.7.5,3.068,1.431,3.6l15.4,8.586,7.859,4.592,12.467,7.421c1.125.67,2.613-1.109,2.664-3.187l.759-31.436C615.355,168.69,614.81,167.317,613.884,166.788Z" transform="translate(-539.74 -120.44)" fill="#379512"/>
      </g>
      <g transform="matrix(1, 0, 0, 1, 539.74, 120.44)" filter="url(#パス_303)">
        <path id="パス_303-2" data-name="パス 303" d="M575.4,152.317l-.662,27.356c-.041,1.7.5,3.069,1.431,3.6l13.532,7.753,1.414,8.776c.208,1.295,1.187,1.642,2.02.72l4.427-4.9,12.469,7.426c1.127.671,2.615-1.11,2.664-3.189l.67-27.755c.041-1.7-.5-3.071-1.431-3.6l-33.886-19.38C576.924,148.474,575.452,150.252,575.4,152.317Z" transform="translate(-539.74 -119.31)" fill="#51b12b"/>
      </g>
      <g id="LINE_LOGO" data-name="LINE LOGO" transform="translate(582.051 166.239)">
        <path id="パス_28" data-name="パス 28" d="M603.712,176.97c.028-5.051-5.329-11.595-11.94-14.583s-12.014-1.312-12.042,3.74c-.026,4.524,4.219,10.248,9.979,13.577a2.765,2.765,0,0,1,1.053,1.034,2.273,2.273,0,0,1,.033,1.052l-.176.889c-.053.264-.247,1.008,1.033,1.078s6.929-.724,9.454-2.313h0A4.808,4.808,0,0,0,603.712,176.97Zm-16.236-4.64c0,.122-.106.173-.236.114h0l-3.36-1.519a.463.463,0,0,1-.162-.132h0a.332.332,0,0,1-.065-.183h0l.027-4.909c0-.122.106-.173.234-.114h0l.843.38a.4.4,0,0,1,.231.326h0l-.022,3.9,2.287,1.034a.4.4,0,0,1,.23.324Zm2.025.916c0,.119-.107.17-.234.111l-.837-.378a.4.4,0,0,1-.233-.323l.028-4.909c0-.121.106-.173.234-.114h0l.84.38a.4.4,0,0,1,.231.324h0Zm5.792,2.618c0,.119-.107.17-.236.111l-.945-.427a.416.416,0,0,1-.058-.08l-2.382-4.134-.016,2.889c0,.121-.107.17-.234.113l-.868-.393a.409.409,0,0,1-.234-.323l.027-4.91c-.006-.124.1-.183.226-.13l.012,0,.943.427.017.021h0l.019.031L594,173.279l.016-2.923c0-.122.106-.173.234-.114h0l.843.38a.4.4,0,0,1,.231.326h0Zm4.668-2.033c0,.121-.106.173-.234.116l-2.287-1.034,0,.84,2.285,1.034a.4.4,0,0,1,.233.326h0l0,.792c0,.122-.106.173-.234.114h0l-2.287-1.034,0,.835,2.285,1.034a.4.4,0,0,1,.233.326h0l0,.791c0,.121-.106.173-.234.114h0l-3.36-1.519a.414.414,0,0,1-.161-.132h0a.325.325,0,0,1-.067-.179h0l.028-4.911h0a.136.136,0,0,1,.064-.124h0a.2.2,0,0,1,.162.011l3.363,1.519a.4.4,0,0,1,.231.326h0Z" transform="translate(-579.73 -160.905)" fill="#fff"/>
      </g>
    </g>
  </g>
</svg>
