<svg xmlns="http://www.w3.org/2000/svg" width="110" height="110" viewBox="0 0 110 110">
  <g id="グループ_388" data-name="グループ 388" transform="translate(-892 -4236)">
    <g id="楕円形_10" data-name="楕円形 10" transform="translate(892 4236)" fill="#fff" stroke="#fff" stroke-width="1">
      <circle cx="55" cy="55" r="55" stroke="none"/>
      <circle cx="55" cy="55" r="54.5" fill="none"/>
    </g>
    <g id="グループ_182" data-name="グループ 182" transform="translate(361.495 3925.823) rotate(-11)">
      <g id="グループ_177" data-name="グループ 177" transform="translate(487.843 445.533)">
        <rect id="長方形_422" data-name="長方形 422" width="32.659" height="46.31" rx="4" transform="translate(0 0.708)" fill="#333"/>
        <rect id="長方形_423" data-name="長方形 423" width="28.858" height="41.555" transform="translate(1.901 3.085)" fill="#fff"/>
        <g id="グループ_176" data-name="グループ 176" transform="translate(8.429)">
          <g id="グループ_173" data-name="グループ 173" transform="translate(0.142)">
            <path id="パス_310" data-name="パス 310" d="M541.844,445.533h13.037a1.241,1.241,0,0,1,1.24,1.24v2.243a1.241,1.241,0,0,1-1.24,1.24H541.844a1.241,1.241,0,0,1-1.24-1.24v-2.243A1.241,1.241,0,0,1,541.844,445.533Zm13.037,4.155a.672.672,0,0,0,.671-.671v-2.243a.672.672,0,0,0-.671-.671H541.844a.672.672,0,0,0-.671.671v2.243a.672.672,0,0,0,.671.671Z" transform="translate(-540.604 -445.533)" fill="#bdc3c7"/>
          </g>
          <g id="グループ_174" data-name="グループ 174" transform="translate(0 2.718)">
            <path id="パス_311" data-name="パス 311" d="M540.155,462.266a.426.426,0,0,1,.426.426v.339a.53.53,0,0,0,.529.529h.326a.426.426,0,0,1,0,.853h-.326a1.384,1.384,0,0,1-1.382-1.382v-.339A.426.426,0,0,1,540.155,462.266Z" transform="translate(-539.729 -462.266)" fill="#333"/>
          </g>
          <g id="グループ_175" data-name="グループ 175" transform="translate(13.654 2.725)">
            <path id="パス_312" data-name="パス 312" d="M625.5,462.306a.427.427,0,0,1,.426.426v.326a1.384,1.384,0,0,1-1.382,1.382H624.2a.426.426,0,0,1,0-.853h.339a.53.53,0,0,0,.529-.529v-.326A.426.426,0,0,1,625.5,462.306Z" transform="translate(-623.777 -462.306)" fill="#333"/>
          </g>
        </g>
      </g>
      <g id="グループ_178" data-name="グループ 178" transform="translate(493.147 453.677)">
        <rect id="長方形_424" data-name="長方形 424" width="22.051" height="0.696" transform="translate(22.051 3.356) rotate(180)" fill="#bdc3c7"/>
        <rect id="長方形_425" data-name="長方形 425" width="22.051" height="0.696" transform="translate(22.051 2.026) rotate(180)" fill="#bdc3c7"/>
        <rect id="長方形_426" data-name="長方形 426" width="22.051" height="0.696" transform="translate(22.051 0.696) rotate(180)" fill="#bdc3c7"/>
      </g>
      <g id="グループ_179" data-name="グループ 179" transform="translate(493.147 457.687)">
        <rect id="長方形_427" data-name="長方形 427" width="22.051" height="0.696" transform="translate(22.051 3.356) rotate(180)" fill="#bdc3c7"/>
        <rect id="長方形_428" data-name="長方形 428" width="22.051" height="0.696" transform="translate(22.051 2.026) rotate(180)" fill="#bdc3c7"/>
        <rect id="長方形_429" data-name="長方形 429" width="22.051" height="0.696" transform="translate(22.051 0.696) rotate(180)" fill="#bdc3c7"/>
      </g>
      <g id="グループ_180" data-name="グループ 180" transform="translate(493.147 461.656)">
        <rect id="長方形_430" data-name="長方形 430" width="22.051" height="0.696" transform="translate(22.051 3.356) rotate(180)" fill="#bdc3c7"/>
        <rect id="長方形_431" data-name="長方形 431" width="22.051" height="0.696" transform="translate(22.051 2.026) rotate(180)" fill="#bdc3c7"/>
        <rect id="長方形_432" data-name="長方形 432" width="22.051" height="0.696" transform="translate(22.051 0.696) rotate(180)" fill="#bdc3c7"/>
      </g>
      <g id="グループ_181" data-name="グループ 181" transform="translate(508.929 447.664)">
        <path id="パス_313" data-name="パス 313" d="M699.6,496.848l-1.727-.857-.313.63,1.727.857-4.99,10.055.63.313,4.99-10.055h0a.7.7,0,0,0-.318-.943Z" transform="translate(-681.848 -489.925)" fill="#1c1c1c"/>
        <path id="長方形_433" data-name="長方形 433" d="M.868,0h0a.868.868,0,0,1,.868.868V7.045a0,0,0,0,1,0,0H0a0,0,0,0,1,0,0V.868A.868.868,0,0,1,.868,0Z" transform="translate(18.071 0) rotate(26.394)" fill="#1c1c1c"/>
        <path id="長方形_434" data-name="長方形 434" d="M1.523,0h0A1.523,1.523,0,0,1,3.046,1.523V32.088a0,0,0,0,1,0,0H0a0,0,0,0,1,0,0V1.523A1.523,1.523,0,0,1,1.523,0Z" transform="translate(15.399 3.911) rotate(26.394)" fill="#333"/>
        <path id="パス_314" data-name="パス 314" d="M618.436,664.77l-.8-.4,1.135-4.712,2.728,1.354Z" transform="translate(-617.64 -627.008)" fill="#333"/>
      </g>
    </g>
  </g>
</svg>
