<svg id="TYPE_A" data-name="TYPE A" xmlns="http://www.w3.org/2000/svg" width="55.675" height="53.048" viewBox="0 0 55.675 53.048">
  <g id="グループ_26" data-name="グループ 26">
    <path id="パス_19" data-name="パス 19" d="M372.929,266.174c0-12.456-12.488-22.591-27.838-22.591s-27.837,10.134-27.837,22.591c0,11.167,9.9,20.519,23.281,22.287.907.2,2.141.6,2.452,1.373a5.713,5.713,0,0,1,.09,2.517s-.327,1.964-.4,2.384c-.121.7-.559,2.752,2.411,1.5s16.032-9.44,21.873-16.162h0c4.034-4.424,5.967-8.914,5.967-13.9" transform="translate(-317.254 -243.583)" fill="#fff"/>
    <g id="グループ_25" data-name="グループ 25" transform="translate(9.132 16.571)">
      <path id="パス_20" data-name="パス 20" d="M350.647,269.591h-1.953a.542.542,0,0,0-.542.542v12.129a.541.541,0,0,0,.542.541h1.953a.542.542,0,0,0,.542-.541V270.133a.542.542,0,0,0-.542-.542" transform="translate(-337.598 -269.591)" fill="#00b900"/>
      <path id="パス_21" data-name="パス 21" d="M366.9,269.591h-1.952a.542.542,0,0,0-.542.542v7.206l-5.558-7.507a.581.581,0,0,0-.043-.055l0,0-.032-.034-.01-.009-.029-.024-.015-.011-.028-.02-.016-.01-.029-.016-.017-.008a.292.292,0,0,0-.031-.013l-.017-.006a.281.281,0,0,0-.032-.01l-.018-.005-.031-.007-.023,0-.029,0-.028,0H356.44a.542.542,0,0,0-.542.542v12.129a.542.542,0,0,0,.542.541h1.952a.542.542,0,0,0,.543-.541v-7.2l5.565,7.516a.526.526,0,0,0,.138.133l.006,0,.033.02.015.008.026.013.026.011.017.006.037.012h.008a.523.523,0,0,0,.139.018H366.9a.541.541,0,0,0,.542-.541V270.133a.542.542,0,0,0-.542-.542" transform="translate(-340.408 -269.591)" fill="#00b900"/>
      <path id="パス_22" data-name="パス 22" d="M339.929,279.766h-5.305v-9.633a.542.542,0,0,0-.542-.542h-1.953a.542.542,0,0,0-.542.542v12.128h0a.539.539,0,0,0,.152.375l.007.008.008.008a.54.54,0,0,0,.374.151h7.8a.542.542,0,0,0,.542-.542v-1.953a.542.542,0,0,0-.542-.542" transform="translate(-331.587 -269.591)" fill="#00b900"/>
      <path id="パス_23" data-name="パス 23" d="M385.334,272.628a.541.541,0,0,0,.542-.542v-1.952a.542.542,0,0,0-.542-.543h-7.8a.541.541,0,0,0-.376.153l-.006.006-.008.01a.537.537,0,0,0-.15.373h0v12.127h0a.538.538,0,0,0,.152.375l.007.008.008.007a.537.537,0,0,0,.374.152h7.8a.542.542,0,0,0,.542-.542v-1.953a.542.542,0,0,0-.542-.542h-5.3v-2.05h5.3a.542.542,0,0,0,.542-.542v-1.952a.542.542,0,0,0-.542-.543h-5.3v-2.05Z" transform="translate(-348.062 -269.591)" fill="#00b900"/>
    </g>
  </g>
</svg>
