<?xml version="1.0" encoding="utf-8"?>
<!-- Generator: Adobe Illustrator 24.0.0, SVG Export Plug-In . SVG Version: 6.00 Build 0)  -->
<svg version="1.1" id="レイヤー_1" xmlns="http://www.w3.org/2000/svg" xmlns:xlink="http://www.w3.org/1999/xlink" x="0px"
	 y="0px" viewBox="0 0 639 299.6" style="enable-background:new 0 0 639 299.6;" xml:space="preserve">
<style type="text/css">
	.st0{enable-background:new    ;}
	.st1{fill:#C1E9FF;}
	.st2{fill:#FFFFFF;}
</style>
<g id="グループ_382" transform="translate(-720 -3324.434)">
	<g class="st0">
		<path class="st1" d="M852.2,3502l-2.3-12h-15.1l-2.3,12h-14.7l15-66.1h18.9l15.4,66.1H852.2z M836.9,3479.2h10.8l-5.4-28
			L836.9,3479.2z"/>
		<path class="st1" d="M887,3491.1h19v10.9h-33.8v-66.1H887V3491.1z"/>
		<path class="st1" d="M925.6,3491.1h19v10.9h-33.8v-66.1h14.8V3491.1z"/>
		<path class="st1" d="M962.2,3435.9h13.9c8.7,0,13.1,3.8,13.1,11.4v43.2c0,7.7-4.4,11.5-13.1,11.5h-13.9c-8.8,0-13.2-3.8-13.2-11.5
			v-43.2C949,3439.7,953.4,3435.9,962.2,3435.9z M974.4,3488.5v-39.1c0-1.7-0.9-2.6-2.7-2.6h-5c-1.9,0-2.8,0.9-2.8,2.6v39.1
			c0,1.7,0.9,2.6,2.8,2.6h5C973.5,3491.1,974.4,3490.2,974.4,3488.5z"/>
		<path class="st1" d="M1055.7,3435.9h14.8l-12.8,66.1h-17.8l-7.4-43.3l-7.4,43.3h-17.8l-12.8-66.1h15.4l6.2,49.4l8.7-49.4h15.1
			l8.7,49.4L1055.7,3435.9z"/>
		<path class="st1" d="M1106.4,3502l-2.3-12H1089l-2.3,12H1072l15-66.1h18.9l15.4,66.1H1106.4z M1091.1,3479.2h10.8l-5.4-28
			L1091.1,3479.2z"/>
		<path class="st1" d="M1154.1,3435.9h13.6v66.1h-13.3l-14.5-39.6v39.6h-13.5v-66.1h13.4l14.2,39.5V3435.9z"/>
		<path class="st1" d="M1216.1,3459h-15v-10.4c0-1.7-0.9-2.6-2.7-2.6h-4.3c-1.9,0-2.8,0.9-2.8,2.6v40.6c0,1,0.2,1.6,0.6,2
			c0.4,0.4,1.1,0.6,2.2,0.6h4.3c1,0,1.7-0.2,2.1-0.6s0.6-1.1,0.6-2v-10.1h15v11.4c0,7.6-4.4,11.4-13.2,11.4h-13.3
			c-8.7,0-13.1-3.8-13.1-11.4v-43.3c0-7.6,4.4-11.4,13.1-11.4h13.3c8.8,0,13.2,3.8,13.2,11.4V3459z"/>
		<path class="st1" d="M1238.7,3491.1h21.2v10.9h-36.1v-66.1h35.3v10.9h-20.4v16.1h17.4v10.9h-17.4V3491.1z"/>
	</g>
	<g id="グループ_136" transform="translate(898.719 -718.59)">
		<g class="st0">
			<path class="st2" d="M-132.5,4300.6c-0.9,0-1.6,0-2.1,0.1c0.1-0.6,0.1-1.1,0.1-2v-6.9c0-1,0-1.9-0.1-2.4c0.6,0.1,1.1,0.1,2,0.1
				h8.8c0.9,0,1.5,0,2-0.1c-0.1,0.5-0.1,1.3-0.1,2.4v6.9c0,0.9,0,1.5,0.1,2c-0.5,0-1.2-0.1-2-0.1h-1.6v2.9c0,0.5,0.2,0.6,1.7,0.6
				c1.5,0,1.8-0.1,2.1-0.4c0.2-0.3,0.3-1,0.3-2.4c0.8,0.4,1.2,0.6,2,0.8c-0.2,2.1-0.4,2.8-0.9,3.3c-0.5,0.5-1.3,0.6-3.5,0.6
				c-3.2,0-3.7-0.3-3.7-1.7v-3.7h-1.7c-0.2,1.5-0.8,2.6-1.8,3.5c-1.2,1.1-2.6,1.8-4.8,2.3c-0.3-0.8-0.6-1.2-1.1-1.9
				c1.8-0.3,2.8-0.7,3.7-1.3c1-0.7,1.6-1.5,1.8-2.7H-132.5z M-132.5,4292.5h8.6v-1.2h-8.6V4292.5z M-132.5,4295.6h8.6v-1.3h-8.6
				V4295.6z M-132.5,4298.7h8.6v-1.3h-8.6V4298.7z"/>
			<path class="st2" d="M-101.6,4295.3c0,1-0.1,1.3-0.4,1.5c-0.3,0.3-0.9,0.4-2.1,0.4c-0.4,0-0.6,0-1.5,0c0-0.6-0.1-1.1-0.3-1.6
				c-0.8,0.4-1.1,0.5-1.9,0.8c-0.2,0.1-0.3,0.1-0.5,0.2c-0.4,0.8-0.5,0.9-0.8,1.4h3.9c1.1,0,1.5,0,2.1-0.1c-0.1,0.6-0.1,1-0.1,2.1v4
				c0,1.1,0,1.7,0.1,2.2h-2.2v-0.8h-8.5v0.8h-2.1c0.1-0.6,0.1-1.1,0.1-2.2v-3.9c0-1.2,0-1.5-0.1-2.2c0.6,0.1,1,0.1,2.1,0.1h2.5
				c0.2-0.3,0.2-0.3,0.6-1c-0.4,0.2-0.9,0.2-1.7,0.2c-0.2,0-0.8,0-1.2,0c0-0.7-0.2-1.1-0.4-1.7c-0.9,0.4-1.6,0.7-2.5,1.1
				c-0.4,0.2-0.6,0.2-0.9,0.4l-0.6-1.9c1.4-0.2,3.3-1,5.4-2.1l0.1,1.8c-0.6,0.3-0.7,0.4-1.3,0.6c0.6,0,0.8,0.1,1,0.1
				c0.9,0,1,0,1-0.4v-4.1h-4.1c1,0.6,1.6,0.9,2.5,1.7l-1.4,1.3c-0.8-0.8-1.3-1.1-2.5-1.8l1.3-1.1h-0.2c-0.8,0-1.2,0-1.7,0.1v-2
				c0.6,0.1,1.2,0.1,2.1,0.1h4c1,0,1.4,0,1.9-0.1c-0.1,0.4-0.1,0.9-0.1,1.9v4.3c0,0.4,0,0.6-0.1,0.9l1.2,0.2l-0.5-1.6
				c1.4-0.2,3-0.8,5.1-1.8l0,1.7c-0.6,0.3-0.8,0.5-1.2,0.6c0.4,0.1,0.8,0.1,1.1,0.1c0.8,0,0.9,0,0.9-0.5v-4.1h-4.3
				c1.3,0.7,1.6,0.9,2.6,1.7l-1.3,1.2c-1-0.8-1.5-1.2-2.6-1.8l1.2-1.1c-0.7,0-1,0-1.5,0.1v-2c0.6,0.1,1.3,0.1,2.1,0.1h4
				c0.9,0,1.4,0,1.8-0.1c-0.1,0.5-0.1,1-0.1,2V4295.3z M-113.8,4300.8h8.5v-1.3h-8.5V4300.8z M-113.8,4303.7h8.5v-1.3h-8.5V4303.7z"
				/>
			<path class="st2" d="M-96.4,4290.6c-0.1,0.7-0.2,1.6-0.2,2.9c0,1.7,0.2,3.9,0.4,5.1c0.3,2,0.9,3.2,1.5,3.2c0.3,0,0.6-0.3,0.8-0.8
				c0.5-1,0.8-2.2,1-3.4c0.7,0.8,1,1,1.9,1.7c-1,3.7-2.1,5.2-3.7,5.2c-1.3,0-2.3-0.9-3.1-2.8c-0.8-1.9-1.1-4.7-1.2-9.9
				c0-0.7,0-0.8-0.1-1.2H-96.4z M-87.4,4291.5c2.4,2.9,3.7,6,4.3,10.2l-2.4,0.9c-0.1-1.8-0.6-3.8-1.2-5.5c-0.6-1.7-1.6-3.3-2.7-4.7
				L-87.4,4291.5z"/>
		</g>
		<g class="st0">
			<path class="st2" d="M-18.2,4256.1c-0.2,0.1-0.2,0.1-1.6,0.5c-1.1,0.3-1.7,0.5-3.2,0.8c0,2.6,0,2.6-0.1,3.2h4
				c1.3,0,1.6,0,2.3-0.1v2.3c-0.7-0.1-1.1-0.1-2.3-0.1h-4.2c-0.2,1.8-0.6,3-1.3,4.1c-0.7,1.1-1.8,2.2-3.1,3c-0.5,0.3-0.9,0.6-1.8,1
				c-0.6-1-0.9-1.3-1.7-2c1.4-0.5,2.1-0.9,2.9-1.6c1.1-0.9,1.9-2,2.2-3.2c0.1-0.3,0.1-0.6,0.2-1.3h-4.7c-1.2,0-1.6,0-2.3,0.1v-2.3
				c0.7,0.1,1,0.1,2.3,0.1h4.9c0-0.8,0-1.5,0-2.9c-1.5,0.2-2.1,0.3-5.3,0.4c-0.2-0.9-0.3-1.1-0.7-2.1c0.6,0,0.9,0,1.2,0
				c2.5,0,5.8-0.4,8.1-1.1c1.1-0.3,1.7-0.5,2.3-0.9L-18.2,4256.1z"/>
			<path class="st2" d="M-14.3,4261c0.8,0.1,1.2,0.1,3.1,0.1h10.1c1.9,0,2.2,0,3.1-0.1v2.6c-0.8-0.1-1-0.1-3.1-0.1h-10.1
				c-2.1,0-2.3,0-3.1,0.1V4261z"/>
			<path class="st2" d="M17.5,4256.8c-0.2,0.3-0.2,0.5-0.3,0.9c-1,3.6-2.1,5.9-3.9,8c-1.9,2.1-3.9,3.5-7.1,4.8
				c-0.5-1-0.8-1.4-1.7-2.3c1.7-0.5,2.8-1,4.2-1.9c3-1.9,4.8-4.6,5.8-8.3h-9c-1.3,0-1.7,0-2.4,0.1v-2.5c0.7,0.1,1.1,0.1,2.4,0.1h8.7
				c1.1,0,1.4,0,2-0.2L17.5,4256.8z"/>
		</g>
		<g class="st0">
			<path class="st2" d="M26,4212.5c1,0.8,1.6,1.3,2.4,2.1c1,1.1,1,1.1,1.2,1.2c1-0.8,1.8-1.6,2.5-2.4c0.8-0.9,1.9-2.3,2.3-3.1
				c0.1-0.1,0.1-0.1,0.1-0.2c0-0.1,0-0.1,0-0.1c-0.2,0-0.5,0-0.9,0h-6.9c-0.7,0-1.2,0-2.1,0c-1.5,0-1.7,0-2.4,0.1v-2.4
				c0.7,0.1,1.2,0.1,2.5,0.1l10.6,0c0.8,0,1.1,0,1.6-0.2l1.3,1.5c-0.3,0.3-0.4,0.4-0.8,1.1c-1.8,2.9-3.8,5.2-6.1,7.2
				c0.8,0.9,1.5,1.8,2.5,3.2l-2,1.6c-1.1-1.7-2.1-3-3.7-4.8c-1.5-1.6-2.4-2.5-3.8-3.7L26,4212.5z"/>
			<path class="st2" d="M46.3,4222.8c0.1-0.5,0.1-1.1,0.1-1.7v-4c0-0.1,0-0.5,0-1c-0.2,0.2-0.3,0.2-0.6,0.4c-1.4,0.8-3,1.4-5.4,2.1
				c-0.4-0.9-0.5-1.2-1.1-2.1c1.9-0.4,3.4-0.9,5.3-1.8c2.2-1,4.3-2.4,5.9-4c-0.2,0-0.2,0-0.4,0c-0.1,0-0.1,0-7,0.1
				c-1.1,0-1.3,0-2,0.1v-2.3c0.5,0.1,1.2,0.2,2,0.2h3.2v-1.6c0-0.7,0-1-0.1-1.4h2.5c-0.1,0.4-0.1,0.7-0.1,1.3v1.6h3.2
				c0.6,0,0.9-0.1,1.3-0.2l1.1,1.3c-0.3,0.2-0.3,0.3-0.8,0.8c-1.1,1.2-2.1,2.1-3.9,3.6c2.3,0.7,4.4,1.7,6.6,3l-1.3,2
				c-1.9-1.3-3.4-2-5.8-3c-0.2-0.1-0.3-0.1-0.5-0.2c0,0.2,0,0.8,0,0.9v4.2c0,0.8,0,1.1,0.1,1.7H46.3z"/>
			<path class="st2" d="M58.1,4213c0.8,0.1,1.2,0.1,3.1,0.1h10.1c1.9,0,2.2,0,3.1-0.1v2.6c-0.8-0.1-1-0.1-3.1-0.1H61.2
				c-2.1,0-2.3,0-3.1,0.1V4213z"/>
			<path class="st2" d="M78.1,4211.3c1.8,0.7,3.6,1.7,5.1,2.6L82,4216c-1.3-1-3.4-2.1-5.1-2.8L78.1,4211.3z M77.3,4219.8
				c1.5,0,3.5-0.5,5.5-1.2c3.5-1.2,6.3-4.3,7.7-8.4c0.7,0.8,1.1,1.1,2,1.7c-2.4,5.8-6.4,8.9-13.2,10.2c-0.8,0.2-1,0.2-1.3,0.3
				L77.3,4219.8z M79.6,4206.7c1.8,0.7,3.7,1.6,5.1,2.5l-1.2,2.1c-1.5-1-3.7-2.2-5.1-2.6L79.6,4206.7z M89.5,4206.3
				c0.8,0.9,1.3,1.6,2,2.8l-1.3,0.7c-0.6-1.2-1.2-1.9-2-2.8L89.5,4206.3z M92.4,4208.6c-0.6-1-1.2-1.9-1.9-2.8l1.3-0.7
				c0.9,0.9,1.4,1.6,2,2.7L92.4,4208.6z"/>
			<path class="st2" d="M98.4,4210.9c-0.2-0.8-0.2-1-0.4-1.4l2.3-0.3c0,0.4,0.1,0.8,0.2,1.5l0.3,1.5l5.7-1c0.6-0.1,0.9-0.2,1.3-0.3
				l1.3,1.2c-0.2,0.2-0.3,0.5-0.5,0.9c-0.8,2.1-1.9,3.5-3.7,4.9c-0.7-0.7-1-0.9-1.8-1.3c1.4-0.9,2.5-2,3.2-3.4
				c-0.2,0.1-0.2,0.1-0.7,0.1l-4.5,0.7l1.3,7c0.2,1,0.2,1,0.4,1.5l-2.4,0.4c0-0.5,0-0.9-0.2-1.5l-1.3-7.1l-1.6,0.3
				c-0.7,0.1-1.1,0.2-1.7,0.4l-0.4-2.2c0.6,0,1.1-0.1,1.8-0.2l1.6-0.3L98.4,4210.9z"/>
			<path class="st2" d="M111.8,4213c0.8,0.1,1.2,0.1,3.1,0.1H125c1.9,0,2.2,0,3.1-0.1v2.6c-0.8-0.1-1-0.1-3.1-0.1h-10.1
				c-2.1,0-2.3,0-3.1,0.1V4213z"/>
		</g>
		<g class="st0">
			<path class="st2" d="M168.6,4137.9c0-0.5,0-0.9-0.1-1.2h2.4c-0.1,0.3-0.1,0.7-0.1,1.2v0.7h5c1.2,0,2,0,2.5-0.1v2.2
				c-0.6-0.1-1.5-0.1-2.5-0.1H164c0,8.5-0.5,11.5-2.3,14.5c-0.6-0.7-0.9-1-1.8-1.7c0.8-1.2,1.2-2.3,1.5-4.1c0.3-1.7,0.4-3.8,0.4-7.8
				c0-1.7,0-2.3-0.1-3c0.7,0.1,1.5,0.1,2.4,0.1h4.5V4137.9z M169.4,4143.1c0-1.1,0-1.5-0.1-2h2.3c-0.1,0.5-0.1,0.9-0.1,2v0.2h4.2
				c1,0,1.7,0,2.1-0.1v2.2c-0.6-0.1-1.3-0.1-2-0.1h-4.3v2.1h3.7c0.8,0,1.3,0,1.8-0.1c-0.1,0.6-0.1,1.2-0.1,2v3.3c0,1.2,0,2,0.1,2.6
				h-2.3v-0.9h-7.4v0.8H165c0.1-0.6,0.1-1.4,0.1-2.5v-3.6c0-0.7,0-1.2-0.1-1.8c0.5,0.1,0.9,0.1,1.8,0.1h2.6V4143.1z M167.2,4152.4
				h7.4v-3h-7.4V4152.4z"/>
			<path class="st2" d="M196.5,4148.6c-0.2,0.1-0.4,0.3-1.1,1c-0.5,0.5-1.2,0.9-1.9,1.4c1.7,0.9,3.3,1.4,5.2,1.8
				c-0.5,0.8-0.7,1.3-1.1,2.3c-3-0.8-5.2-1.8-7.2-3.5c-1.4-1.2-2.2-2.2-3.1-4h-1.7v4.5c1.7-0.4,2.6-0.6,4-1.1l0,2
				c-2.2,0.7-4.3,1.2-7.8,1.9c-0.5,0.1-0.5,0.1-0.9,0.2l-0.4-2.2c0.6,0,1.5-0.1,2.8-0.4v-5h-1.1c-0.8,0-1.4,0-2,0.1v-2.2
				c0.4,0.1,1.2,0.1,2.1,0.1h1v-6.3c0-1.1,0-1.4-0.1-2c0.6,0.1,1.2,0.1,2.2,0.1h9c1.2,0,1.7,0,2.3-0.1v2.1c-0.6-0.1-1.1-0.1-2.3-0.1
				h-8.8v1h8.5c0.8,0,1.4,0,1.8-0.1v1.8c-0.4-0.1-1.3-0.1-1.8-0.1h-8.5v1h8.5c0.8,0,1.5,0,1.8-0.1v1.8c-0.6-0.1-1-0.1-1.8-0.1h-8.5
				v1.1h10.7c0.9,0,1.4,0,2-0.1v2.2c-0.5-0.1-1.1-0.1-1.8-0.1h-1.9L196.5,4148.6z M189.6,4147.6c0.6,1,1.1,1.6,2.1,2.3
				c1-0.7,2.1-1.6,2.7-2.3H189.6z"/>
		</g>
		<g class="st0">
			<path class="st2" d="M214.2,4053c0-1,0-1.6-0.1-2.2h2.2c-0.1,0.6-0.1,1.1-0.1,2.2v2.4h0.4c0.7,0,1,0,1.3-0.1v2
				c-0.4-0.1-0.7-0.1-1.3-0.1h-0.4v5.2c0.7-0.3,1-0.4,1.8-0.9l0.1,2c-1.7,0.9-2.8,1.4-4.7,2.1c-0.5,0.2-0.7,0.3-1,0.4l-0.4-2.2
				c0.6-0.1,1.1-0.2,2.3-0.7v-6h-0.4c-0.7,0-1,0-1.5,0.1v-2c0.4,0.1,0.7,0.1,1.5,0.1h0.4V4053z M221,4065.1c0,0.4,0.1,0.5,0.6,0.6
				c0.5,0.1,1.2,0.1,2.6,0.1c2.3,0,2.9-0.1,3.2-0.5c0.2-0.3,0.3-1,0.3-2.3c0.6,0.3,1.4,0.5,2.1,0.6c-0.2,3.8-0.6,4.1-6,4.1
				c-3.8,0-4.7-0.4-4.7-2v-6.5c-0.2,0.1-0.3,0.1-0.4,0.1c-0.6,0.2-0.8,0.3-1.2,0.4l-0.5-2.1c0.5-0.1,1.2-0.2,1.8-0.4l0.2-0.1v-2.6
				c0-0.9,0-1.4-0.1-2h2.2c-0.1,0.6-0.1,1.2-0.1,1.9v2.1l1.8-0.6v-3.3c0-0.9,0-1.3-0.1-1.9h2.2c-0.1,0.6-0.1,1.2-0.1,1.9v2.7
				l2.7-0.9c0.7-0.2,1-0.3,1.6-0.6c0,0.8-0.1,1-0.1,2c-0.1,2.7-0.2,4.4-0.4,5.2c-0.2,1.1-0.8,1.4-2.1,1.4c-0.2,0-0.4,0-0.9,0
				c-0.1-0.8-0.2-1.4-0.5-2c0.4,0.1,0.8,0.2,1.1,0.2c0.5,0,0.6-0.1,0.7-0.5c0.1-0.6,0.2-1.8,0.2-3.6l-2.2,0.7v4.7
				c0,0.8,0,1.3,0.1,1.9h-2.2c0.1-0.6,0.1-1.1,0.1-2v-4l-1.8,0.6V4065.1z"/>
			<path class="st2" d="M248.2,4067.3c-0.6-0.1-1.1-0.1-2.1-0.1h-12.1v0.9h-2.2c0.1-0.6,0.1-1.3,0.1-2.2v-12.4c0-0.8,0-1.4-0.1-2
				c0.6,0.1,1.2,0.1,2.1,0.1h11.8c1.1,0,1.7,0,2.2-0.1v2.2c-0.7-0.1-1.2-0.1-2.2-0.1h-11.7v11.7h12.1c1.1,0,1.6,0,2.1-0.1V4067.3z
				 M245.4,4064.4c-1.7-1.8-2.5-2.5-4-3.8c-1.7,1.7-3,2.7-5.4,4.1c-0.5-0.6-0.9-1.1-1.5-1.6c2.2-1.2,3.8-2.3,5.3-3.8
				c-1.3-1-2.5-1.9-4.4-3l1.4-1.5c2.5,1.7,2.6,1.7,4.3,3c1.2-1.4,2.1-3.1,2.4-4.1l2.1,1c-0.3,0.4-0.3,0.5-0.6,1
				c-0.7,1.3-1.4,2.3-2.3,3.4c1.5,1.2,2.6,2.1,4.2,3.6L245.4,4064.4z"/>
			<path class="st2" d="M265.6,4061.9c-0.2,0.1-0.4,0.3-1.1,1c-0.5,0.4-1.1,0.9-1.8,1.3c1.6,0.8,3.2,1.4,5,1.7
				c-0.5,0.7-0.7,1.2-1,2.2c-2.8-0.7-5-1.7-6.8-3.3c-1.4-1.2-2.1-2.1-2.9-3.8h-1.7v4.3c1.7-0.4,2.5-0.6,3.8-1l0,1.9
				c-2.1,0.7-4.1,1.2-7.4,1.8c-0.5,0.1-0.5,0.1-0.9,0.2l-0.4-2.1c0.6,0,1.4-0.1,2.7-0.3v-4.7h-1c-0.8,0-1.3,0-1.9,0.1v-2.1
				c0.4,0.1,1.1,0.1,2,0.1h1v-6c0-1,0-1.3-0.1-1.9c0.6,0.1,1.1,0.1,2.1,0.1h8.5c1.1,0,1.6,0,2.2-0.1v2c-0.6-0.1-1-0.1-2.2-0.1h-8.3
				v0.9h8.1c0.8,0,1.3,0,1.7-0.1v1.7c-0.4-0.1-1.3-0.1-1.7-0.1h-8.1v0.9h8.1c0.8,0,1.4,0,1.7-0.1v1.7c-0.5-0.1-1-0.1-1.7-0.1h-8.1v1
				h10.1c0.9,0,1.4,0,1.9-0.1v2.1c-0.5-0.1-1-0.1-1.7-0.1h-1.8L265.6,4061.9z M259.1,4060.9c0.6,1,1,1.5,2,2.2c1-0.6,2-1.6,2.5-2.2
				H259.1z"/>
		</g>
		<path class="st2" d="M-76.3,4337.3l-0.5-1.9c1.1-0.3,115.2-30.2,205.2-91.2c90-61.1,158.4-154.9,159.1-155.9l1.6,1.2
			c-0.7,0.9-69.3,95.1-159.6,156.4C39.2,4307-75.2,4337-76.3,4337.3z"/>
		<circle id="楕円形_35" class="st2" cx="-73.7" cy="4335.6" r="7"/>
		<circle id="楕円形_37" class="st2" cx="109.3" cy="4256.6" r="7"/>
		<circle id="楕円形_38" class="st2" cx="20.3" cy="4302.6" r="7"/>
		<circle id="楕円形_39" class="st2" cx="199.3" cy="4188.6" r="7"/>
		<circle id="楕円形_36" class="st2" cx="287.3" cy="4091.6" r="7"/>
		<path class="st2" d="M198.5,4341.1h-1v-1h1V4341.1z M198.5,4337.1h-1v-3h1V4337.1z M198.5,4331.1h-1v-3h1V4331.1z M198.5,4325.1
			h-1v-3h1V4325.1z M198.5,4319.1h-1v-3h1V4319.1z M198.5,4313.1h-1v-3h1V4313.1z M198.5,4307.1h-1v-3h1V4307.1z M198.5,4301.1h-1
			v-3h1V4301.1z M198.5,4295.1h-1v-3h1V4295.1z M198.5,4289.1h-1v-3h1V4289.1z M198.5,4283.1h-1v-3h1V4283.1z M198.5,4277.1h-1v-3h1
			V4277.1z M198.5,4271.1h-1v-3h1V4271.1z M198.5,4265.1h-1v-3h1V4265.1z M198.5,4259.1h-1v-3h1V4259.1z M198.5,4253.1h-1v-3h1
			V4253.1z M198.5,4247.1h-1v-3h1V4247.1z M198.5,4241.1h-1v-3h1V4241.1z M198.5,4235.1h-1v-3h1V4235.1z M198.5,4229.1h-1v-3h1
			V4229.1z M198.5,4223.1h-1v-3h1V4223.1z M198.5,4217.1h-1v-3h1V4217.1z M198.5,4211.1h-1v-3h1V4211.1z M198.5,4205.1h-1v-3h1
			V4205.1z M198.5,4199.1h-1v-3h1V4199.1z M198.5,4193.1h-1v-3h1V4193.1z M198.5,4187.1h-1v-3h1V4187.1z"/>
		<path class="st2" d="M286.9,4339.5h-1v-3h1V4339.5z M286.9,4333.5h-1v-3h1V4333.5z M286.9,4327.5h-1v-3h1V4327.5z M286.9,4321.5
			h-1v-3h1V4321.5z M286.9,4315.5h-1v-3h1V4315.5z M286.9,4309.5h-1v-3h1V4309.5z M286.9,4303.5h-1v-3h1V4303.5z M286.9,4297.5h-1
			v-3h1V4297.5z M286.9,4291.5h-1v-3h1V4291.5z M286.9,4285.5h-1v-3h1V4285.5z M286.9,4279.5h-1v-3h1V4279.5z M286.9,4273.5h-1v-3h1
			V4273.5z M286.9,4267.5h-1v-3h1V4267.5z M286.9,4261.5h-1v-3h1V4261.5z M286.9,4255.5h-1v-3h1V4255.5z M286.9,4249.5h-1v-3h1
			V4249.5z M286.9,4243.5h-1v-3h1V4243.5z M286.9,4237.5h-1v-3h1V4237.5z M286.9,4231.5h-1v-3h1V4231.5z M286.9,4225.5h-1v-3h1
			V4225.5z M286.9,4219.5h-1v-3h1V4219.5z M286.9,4213.5h-1v-3h1V4213.5z M286.9,4207.5h-1v-3h1V4207.5z M286.9,4201.5h-1v-3h1
			V4201.5z M286.9,4195.5h-1v-3h1V4195.5z M286.9,4189.5h-1v-3h1V4189.5z M286.9,4183.5h-1v-3h1V4183.5z M286.9,4177.5h-1v-3h1
			V4177.5z M286.9,4171.5h-1v-3h1V4171.5z M286.9,4165.5h-1v-3h1V4165.5z M286.9,4159.5h-1v-3h1V4159.5z M286.9,4153.5h-1v-3h1
			V4153.5z M286.9,4147.5h-1v-3h1V4147.5z M286.9,4141.5h-1v-3h1V4141.5z M286.9,4135.5h-1v-3h1V4135.5z M286.9,4129.5h-1v-3h1
			V4129.5z M286.9,4123.5h-1v-3h1V4123.5z M286.9,4117.5h-1v-3h1V4117.5z M286.9,4111.5h-1v-3h1V4111.5z M286.9,4105.5h-1v-3h1
			V4105.5z"/>
		<path class="st2" d="M109.1,4341.1h-1v-2.7h1V4341.1z M109.1,4335.4h-1v-3h1V4335.4z M109.1,4329.4h-1v-3h1V4329.4z M109.1,4323.4
			h-1v-3h1V4323.4z M109.1,4317.4h-1v-3h1V4317.4z M109.1,4311.4h-1v-3h1V4311.4z M109.1,4305.4h-1v-3h1V4305.4z M109.1,4299.4h-1
			v-3h1V4299.4z M109.1,4293.4h-1v-3h1V4293.4z M109.1,4287.4h-1v-3h1V4287.4z M109.1,4281.4h-1v-3h1V4281.4z M109.1,4275.4h-1v-3h1
			V4275.4z M109.1,4269.4h-1v-3h1V4269.4z M109.1,4263.4h-1v-3h1V4263.4z"/>
		<path class="st2" d="M20.7,4341.1h-1H20.7L20.7,4341.1z M20.7,4338h-1v-3h1V4338z M20.7,4332h-1v-3h1V4332z M20.7,4326h-1v-3h1
			V4326z M20.7,4320h-1v-3h1V4320z M20.7,4314h-1v-3h1V4314z M20.7,4308h-1v-3h1V4308z"/>
		<path class="st2" d="M286.4,4092.3c-0.2,0-0.4-0.1-0.6-0.2c-0.4-0.3-0.5-1-0.2-1.4l0.6-0.8c0.3-0.4,1-0.5,1.4-0.2
			c0.4,0.3,0.5,1,0.2,1.4l-0.6,0.8C287,4092.1,286.7,4092.3,286.4,4092.3z M290.6,4086.7c-0.2,0-0.4-0.1-0.6-0.2
			c-0.4-0.3-0.5-1-0.2-1.4l0.6-0.8c0.3-0.4,1-0.5,1.4-0.2c0.4,0.3,0.5,1,0.2,1.4l-0.6,0.8C291.2,4086.5,290.9,4086.7,290.6,4086.7z
			 M294.8,4081.1c-0.2,0-0.4-0.1-0.6-0.2c-0.4-0.3-0.5-1-0.2-1.4l0.6-0.8c0.3-0.4,1-0.5,1.4-0.2c0.4,0.3,0.5,1,0.2,1.4l-0.6,0.8
			C295.4,4081,295.1,4081.1,294.8,4081.1z M299,4075.5c-0.2,0-0.4-0.1-0.6-0.2c-0.4-0.3-0.5-1-0.2-1.4l0.6-0.8
			c0.3-0.4,1-0.5,1.4-0.2c0.4,0.3,0.5,1,0.2,1.4l-0.6,0.8C299.6,4075.4,299.3,4075.5,299,4075.5z M303.2,4069.9
			c-0.2,0-0.4-0.1-0.6-0.2c-0.4-0.3-0.5-1-0.2-1.4l0.6-0.8c0.3-0.4,1-0.5,1.4-0.2c0.4,0.3,0.5,1,0.2,1.4l-0.6,0.8
			C303.8,4069.8,303.5,4069.9,303.2,4069.9z M307.4,4064.3c-0.2,0-0.4-0.1-0.6-0.2c-0.4-0.3-0.5-1-0.2-1.4l0.6-0.8
			c0.3-0.4,1-0.5,1.4-0.2c0.4,0.3,0.5,1,0.2,1.4l-0.6,0.8C308,4064.2,307.7,4064.3,307.4,4064.3z M311.6,4058.7
			c-0.2,0-0.4-0.1-0.6-0.2c-0.4-0.3-0.5-1-0.2-1.4l0.6-0.8c0.3-0.4,1-0.5,1.4-0.2s0.5,1,0.2,1.4l-0.6,0.8
			C312.2,4058.6,311.9,4058.7,311.6,4058.7z M315.9,4053.1c-0.2,0-0.4-0.1-0.6-0.2c-0.4-0.3-0.5-1-0.2-1.4l0.6-0.8
			c0.3-0.4,1-0.5,1.4-0.2s0.5,1,0.2,1.4l-0.6,0.8C316.5,4053,316.2,4053.1,315.9,4053.1z"/>
		<path class="st2" d="M320.5,4058.6C320.5,4058.6,320.5,4058.6,320.5,4058.6c-0.6,0-1-0.5-1-1.1l0.7-11.2l-13,4.7
			c-0.5,0.2-1.1-0.1-1.3-0.6c-0.2-0.5,0.1-1.1,0.6-1.3l14.4-5.2c0.3-0.1,0.7-0.1,0.9,0.1c0.3,0.2,0.4,0.5,0.4,0.9l-0.8,12.7
			C321.5,4058.2,321,4058.6,320.5,4058.6z"/>
		<rect x="-74.2" y="4340.6" class="st2" width="396" height="1"/>
	</g>
</g>
</svg>
