<?xml version="1.0" encoding="utf-8"?>
<!-- Generator: Adobe Illustrator 24.0.0, SVG Export Plug-In . SVG Version: 6.00 Build 0)  -->
<svg version="1.1" id="レイヤー_1" xmlns="http://www.w3.org/2000/svg" xmlns:xlink="http://www.w3.org/1999/xlink" x="0px"
	 y="0px" viewBox="0 0 328.1 221.1" style="enable-background:new 0 0 328.1 221.1;" xml:space="preserve">
<style type="text/css">
	.st0{enable-background:new    ;}
	.st1{fill:#C1E9FF;}
	.st2{fill:#FFFFFF;}
	.st3{fill:none;stroke:#FFFFFF;stroke-width:2;}
	.st4{fill:none;stroke:#FFFFFF;stroke-dasharray:3;}
	.st5{fill:none;stroke:#FFFFFF;stroke-width:2;stroke-linecap:round;stroke-dasharray:1,6;}
	.st6{fill:none;stroke:#FFFFFF;stroke-width:2;stroke-linecap:round;stroke-linejoin:round;}
	.st7{fill:none;stroke:#FFFFFF;}
</style>
<g id="グループ_136" transform="translate(130.405 -4039.44)">
	<g class="st0">
		<path class="st1" d="M-93.3,4097.6l-1.1-5.9h-7.4l-1.1,5.9h-7.2l7.3-32.4h9.3l7.5,32.4H-93.3z M-100.8,4086.4h5.3l-2.7-13.7
			L-100.8,4086.4z"/>
		<path class="st1" d="M-76.2,4092.2h9.3v5.4h-16.6v-32.4h7.2V4092.2z"/>
		<path class="st1" d="M-57.3,4092.2h9.3v5.4h-16.6v-32.4h7.2V4092.2z"/>
		<path class="st1" d="M-39.4,4065.2h6.8c4.3,0,6.4,1.9,6.4,5.6v21.2c0,3.8-2.1,5.7-6.4,5.7h-6.8c-4.3,0-6.5-1.9-6.5-5.7v-21.2
			C-45.8,4067-43.7,4065.2-39.4,4065.2z M-33.4,4091v-19.2c0-0.8-0.4-1.3-1.3-1.3h-2.4c-0.9,0-1.4,0.4-1.4,1.3v19.2
			c0,0.9,0.5,1.3,1.4,1.3h2.4C-33.8,4092.2-33.4,4091.8-33.4,4091z"/>
		<path class="st1" d="M6.5,4065.2h7.2l-6.3,32.4h-8.7l-3.6-21.2l-3.6,21.2h-8.7l-6.3-32.4h7.5l3.1,24.2l4.3-24.2h7.4l4.3,24.2
			L6.5,4065.2z"/>
		<path class="st1" d="M31.3,4097.6l-1.1-5.9h-7.4l-1.1,5.9h-7.2l7.3-32.4h9.3l7.5,32.4H31.3z M23.8,4086.4h5.3l-2.7-13.7
			L23.8,4086.4z"/>
		<path class="st1" d="M54.7,4065.2h6.7v32.4h-6.5l-7.1-19.4v19.4h-6.6v-32.4h6.6l7,19.4V4065.2z"/>
		<path class="st1" d="M85.1,4076.5h-7.3v-5.1c0-0.8-0.4-1.3-1.3-1.3h-2.1c-0.9,0-1.4,0.4-1.4,1.3v19.9c0,0.5,0.1,0.8,0.3,1
			c0.2,0.2,0.6,0.3,1.1,0.3h2.1c0.5,0,0.8-0.1,1-0.3c0.2-0.2,0.3-0.5,0.3-1v-4.9h7.3v5.6c0,3.7-2.2,5.6-6.5,5.6h-6.5
			c-4.3,0-6.4-1.9-6.4-5.6v-21.2c0-3.7,2.1-5.6,6.4-5.6h6.5c4.3,0,6.5,1.9,6.5,5.6V4076.5z"/>
		<path class="st1" d="M96.2,4092.2h10.4v5.4H88.9v-32.4h17.3v5.4h-10v7.9h8.5v5.4h-8.5V4092.2z"/>
	</g>
	<g class="st0">
		<path class="st2" d="M-126.6,4232.6c-0.7,0-1.1,0-1.5,0c0.1-0.4,0.1-0.8,0.1-1.5v-5.1c0-0.8,0-1.4-0.1-1.8
			c0.4,0.1,0.8,0.1,1.5,0.1h6.5c0.6,0,1.1,0,1.5-0.1c0,0.3-0.1,1-0.1,1.8v5.1c0,0.7,0,1.1,0.1,1.5c-0.4,0-0.9,0-1.5,0h-1.2v2.2
			c0,0.4,0.1,0.4,1.2,0.4c1.1,0,1.4-0.1,1.5-0.3c0.1-0.2,0.2-0.7,0.3-1.8c0.6,0.3,0.9,0.4,1.4,0.6c-0.1,1.6-0.3,2.1-0.6,2.4
			c-0.4,0.4-1,0.5-2.6,0.5c-2.3,0-2.7-0.2-2.7-1.2v-2.7h-1.3c-0.2,1.1-0.6,1.9-1.3,2.6c-0.9,0.8-1.9,1.3-3.6,1.7
			c-0.2-0.6-0.4-0.9-0.8-1.4c1.3-0.2,2.1-0.5,2.7-0.9c0.8-0.5,1.2-1.1,1.3-2H-126.6z M-126.5,4226.7h6.3v-0.9h-6.3V4226.7z
			 M-126.5,4228.9h6.3v-0.9h-6.3V4228.9z M-126.5,4231.3h6.3v-1h-6.3V4231.3z"/>
		<path class="st2" d="M-103.8,4228.7c0,0.7-0.1,0.9-0.3,1.1c-0.3,0.2-0.7,0.3-1.5,0.3c-0.3,0-0.4,0-1.1,0c0-0.4-0.1-0.8-0.2-1.1
			c-0.6,0.3-0.8,0.3-1.4,0.6c-0.2,0.1-0.2,0.1-0.4,0.1c-0.3,0.6-0.4,0.6-0.6,1h2.9c0.8,0,1.1,0,1.5-0.1c0,0.5-0.1,0.7-0.1,1.6v2.9
			c0,0.8,0,1.2,0.1,1.6h-1.6v-0.6h-6.3v0.6h-1.6c0.1-0.4,0.1-0.8,0.1-1.6v-2.9c0-0.9,0-1.1-0.1-1.6c0.4,0,0.8,0.1,1.5,0.1h1.9
			c0.1-0.2,0.2-0.2,0.4-0.7c-0.3,0.1-0.6,0.2-1.2,0.2c-0.2,0-0.6,0-0.9,0c0-0.5-0.1-0.8-0.3-1.2c-0.7,0.3-1.2,0.5-1.8,0.8
			c-0.3,0.1-0.4,0.2-0.6,0.3l-0.5-1.4c1-0.2,2.4-0.7,4-1.5l0,1.3c-0.4,0.2-0.5,0.3-0.9,0.5c0.4,0,0.6,0,0.7,0c0.7,0,0.7,0,0.7-0.3
			v-3.1h-3c0.7,0.4,1.2,0.7,1.9,1.2l-1,0.9c-0.6-0.6-1-0.8-1.8-1.3l0.9-0.8h-0.2c-0.6,0-0.9,0-1.3,0.1v-1.4c0.4,0.1,0.9,0.1,1.6,0.1
			h2.9c0.7,0,1.1,0,1.4-0.1c0,0.3-0.1,0.6-0.1,1.4v3.2c0,0.3,0,0.5-0.1,0.7l0.9,0.2l-0.4-1.1c1-0.2,2.2-0.6,3.8-1.4l0,1.3
			c-0.4,0.3-0.6,0.3-0.9,0.5c0.3,0,0.6,0.1,0.8,0.1c0.6,0,0.6,0,0.6-0.3v-3.1h-3.2c0.9,0.5,1.2,0.7,1.9,1.3l-1,0.9
			c-0.7-0.6-1.1-0.9-1.9-1.3l0.9-0.8c-0.5,0-0.7,0-1.1,0.1v-1.5c0.5,0.1,0.9,0.1,1.6,0.1h2.9c0.7,0,1.1,0,1.3-0.1
			c0,0.3-0.1,0.8-0.1,1.4V4228.7z M-112.8,4232.8h6.3v-0.9h-6.3V4232.8z M-112.8,4234.9h6.3v-1h-6.3V4234.9z"/>
		<path class="st2" d="M-99.9,4225.3c-0.1,0.5-0.1,1.2-0.1,2.1c0,1.2,0.1,2.9,0.3,3.8c0.2,1.5,0.7,2.4,1.1,2.4
			c0.2,0,0.4-0.2,0.6-0.6c0.3-0.8,0.6-1.6,0.7-2.5c0.5,0.6,0.7,0.8,1.4,1.3c-0.7,2.7-1.5,3.9-2.7,3.9c-0.9,0-1.7-0.7-2.3-2
			c-0.6-1.4-0.8-3.4-0.9-7.3c0-0.5,0-0.6-0.1-0.9H-99.9z M-93.3,4225.9c1.8,2.1,2.7,4.5,3.2,7.5l-1.7,0.7c-0.1-1.3-0.4-2.8-0.9-4
			c-0.5-1.3-1.1-2.4-2-3.4L-93.3,4225.9z"/>
	</g>
	<g class="st0">
		<path class="st2" d="M-53,4195.6c-0.2,0-0.2,0-1.2,0.4c-0.8,0.3-1.2,0.4-2.3,0.6c0,1.9,0,1.9,0,2.4h3c1,0,1.2,0,1.7-0.1v1.7
			c-0.5-0.1-0.8-0.1-1.7-0.1h-3.1c-0.2,1.3-0.4,2.2-0.9,3.1c-0.5,0.8-1.3,1.6-2.3,2.2c-0.4,0.3-0.7,0.4-1.3,0.7
			c-0.4-0.7-0.6-1-1.2-1.5c1-0.4,1.5-0.7,2.2-1.2c0.8-0.7,1.4-1.5,1.6-2.4c0.1-0.2,0.1-0.5,0.2-0.9h-3.5c-0.9,0-1.2,0-1.7,0.1v-1.7
			c0.5,0.1,0.8,0.1,1.7,0.1h3.6c0-0.6,0-1.1,0-2.1c-1.1,0.2-1.6,0.2-3.9,0.3c-0.1-0.6-0.2-0.8-0.5-1.5c0.4,0,0.7,0,0.9,0
			c1.9,0,4.3-0.3,6-0.8c0.8-0.2,1.2-0.4,1.7-0.7L-53,4195.6z"/>
		<path class="st2" d="M-50.1,4199.2c0.6,0.1,0.9,0.1,2.3,0.1h7.5c1.4,0,1.7,0,2.3-0.1v1.9c-0.6-0.1-0.7-0.1-2.3-0.1h-7.4
			c-1.6,0-1.7,0-2.3,0.1V4199.2z"/>
		<path class="st2" d="M-26.7,4196.1c-0.1,0.2-0.2,0.3-0.2,0.6c-0.7,2.7-1.5,4.4-2.9,5.9c-1.4,1.5-2.9,2.6-5.2,3.6
			c-0.4-0.8-0.6-1-1.2-1.7c1.2-0.4,2-0.8,3.1-1.4c2.2-1.4,3.6-3.4,4.2-6.1h-6.7c-0.9,0-1.3,0-1.8,0.1v-1.8c0.5,0.1,0.8,0.1,1.8,0.1
			h6.4c0.8,0,1.1,0,1.5-0.1L-26.7,4196.1z"/>
	</g>
	<g class="st0">
		<path class="st2" d="M-19.9,4163.9c0.7,0.6,1.2,1,1.7,1.6c0.8,0.8,0.8,0.8,0.9,0.9c0.7-0.6,1.3-1.2,1.8-1.8
			c0.6-0.7,1.4-1.7,1.7-2.3c0-0.1,0-0.1,0.1-0.1c0,0,0,0,0-0.1c-0.1,0-0.4,0-0.6,0h-5.1c-0.5,0-0.9,0-1.6,0c-1.1,0-1.3,0-1.8,0.1
			v-1.8c0.5,0.1,0.9,0.1,1.8,0.1l7.8,0c0.6,0,0.8,0,1.2-0.1l1,1.1c-0.2,0.2-0.3,0.3-0.6,0.8c-1.3,2.1-2.8,3.9-4.5,5.3
			c0.6,0.7,1.1,1.3,1.8,2.3l-1.5,1.2c-0.8-1.3-1.5-2.2-2.7-3.5c-1.1-1.2-1.8-1.9-2.8-2.7L-19.9,4163.9z"/>
		<path class="st2" d="M-5,4171.5c0.1-0.4,0.1-0.8,0.1-1.2v-2.9c0-0.1,0-0.3,0-0.7c-0.1,0.1-0.2,0.2-0.4,0.3c-1.1,0.6-2.2,1-4,1.6
			c-0.3-0.7-0.4-0.9-0.8-1.5c1.4-0.3,2.5-0.7,3.9-1.3c1.6-0.7,3.1-1.8,4.3-3c-0.1,0-0.1,0-0.3,0c-0.1,0-0.1,0-5.1,0
			c-0.8,0-1,0-1.5,0.1v-1.7c0.4,0.1,0.9,0.1,1.5,0.1h2.3v-1.1c0-0.5,0-0.7-0.1-1h1.9c-0.1,0.3-0.1,0.5-0.1,1v1.2h2.4
			c0.4,0,0.7,0,1-0.1l0.8,1c-0.2,0.2-0.3,0.2-0.6,0.6c-0.8,0.9-1.5,1.6-2.9,2.6c1.7,0.5,3.2,1.2,4.9,2.2l-0.9,1.5
			c-1.4-0.9-2.5-1.5-4.3-2.2c-0.2-0.1-0.2-0.1-0.4-0.2c0,0.2,0,0.6,0,0.7v3.1c0,0.6,0,0.8,0.1,1.2H-5z"/>
		<path class="st2" d="M3.7,4164.2c0.6,0.1,0.9,0.1,2.3,0.1h7.5c1.4,0,1.7,0,2.3-0.1v1.9c-0.6-0.1-0.7-0.1-2.3-0.1H6
			c-1.6,0-1.7,0-2.3,0.1V4164.2z"/>
		<path class="st2" d="M18.5,4163c1.3,0.5,2.7,1.2,3.7,1.9l-0.9,1.6c-0.9-0.7-2.5-1.6-3.8-2L18.5,4163z M17.9,4169.2
			c1.1,0,2.6-0.3,4-0.9c2.6-0.9,4.7-3.2,5.7-6.2c0.5,0.6,0.8,0.8,1.5,1.2c-1.7,4.2-4.7,6.5-9.7,7.5c-0.6,0.1-0.7,0.2-1,0.2
			L17.9,4169.2z M19.6,4159.6c1.3,0.5,2.7,1.2,3.7,1.8l-0.9,1.5c-1.1-0.8-2.7-1.6-3.7-1.9L19.6,4159.6z M26.9,4159.3
			c0.6,0.7,1,1.2,1.5,2.1l-1,0.5c-0.5-0.9-0.9-1.4-1.5-2.1L26.9,4159.3z M29,4161c-0.4-0.8-0.9-1.4-1.4-2l0.9-0.5
			c0.6,0.6,1,1.2,1.5,2L29,4161z"/>
		<path class="st2" d="M33.4,4162.7c-0.1-0.6-0.1-0.7-0.3-1.1l1.7-0.3c0,0.3,0,0.6,0.1,1.1l0.2,1.1l4.2-0.7c0.4-0.1,0.6-0.1,0.9-0.2
			l1,0.9c-0.1,0.2-0.2,0.3-0.4,0.7c-0.6,1.6-1.4,2.6-2.8,3.6c-0.5-0.5-0.7-0.7-1.3-1c1-0.6,1.8-1.5,2.4-2.5c-0.2,0-0.2,0-0.5,0.1
			l-3.3,0.5l1,5.2c0.1,0.8,0.1,0.8,0.3,1.1l-1.8,0.3c0-0.4,0-0.7-0.1-1.1l-1-5.2l-1.2,0.2c-0.5,0.1-0.8,0.2-1.2,0.3l-0.3-1.6
			c0.4,0,0.8,0,1.3-0.1l1.2-0.2L33.4,4162.7z"/>
		<path class="st2" d="M43.3,4164.2c0.6,0.1,0.9,0.1,2.3,0.1H53c1.4,0,1.7,0,2.3-0.1v1.9c-0.6-0.1-0.7-0.1-2.3-0.1h-7.4
			c-1.6,0-1.7,0-2.3,0.1V4164.2z"/>
	</g>
	<g class="st0">
		<path class="st2" d="M84.6,4108.8c0-0.4,0-0.6-0.1-0.9h1.8c-0.1,0.2-0.1,0.5-0.1,0.9v0.5H90c0.9,0,1.5,0,1.9-0.1v1.7
			c-0.5,0-1.1-0.1-1.9-0.1h-8.9c0,6.4-0.3,8.6-1.7,10.9c-0.5-0.6-0.7-0.8-1.3-1.3c0.6-0.9,0.9-1.7,1.1-3c0.2-1.3,0.3-2.9,0.3-5.8
			c0-1.3,0-1.8-0.1-2.3c0.5,0,1.1,0.1,1.8,0.1h3.4V4108.8z M85.2,4112.7c0-0.8,0-1.1-0.1-1.5h1.7c0,0.3-0.1,0.7-0.1,1.5v0.2h3.2
			c0.8,0,1.2,0,1.6-0.1v1.6c-0.4-0.1-0.9-0.1-1.5-0.1h-3.2v1.6h2.7c0.6,0,1,0,1.3-0.1c0,0.5-0.1,0.9-0.1,1.5v2.4c0,0.9,0,1.5,0.1,2
			h-1.7v-0.6h-5.5v0.6h-1.7c0.1-0.4,0.1-1,0.1-1.8v-2.7c0-0.6,0-0.9-0.1-1.3c0.4,0,0.7,0.1,1.3,0.1h1.9V4112.7z M83.6,4119.7h5.5
			v-2.2h-5.5V4119.7z"/>
		<path class="st2" d="M105.5,4116.9c-0.1,0.1-0.3,0.3-0.9,0.7c-0.4,0.3-0.9,0.7-1.4,1c1.3,0.7,2.5,1.1,3.9,1.3
			c-0.4,0.6-0.5,1-0.8,1.7c-2.2-0.6-3.9-1.4-5.4-2.6c-1.1-0.9-1.7-1.7-2.3-3h-1.3v3.4c1.3-0.3,2-0.5,3-0.8l0,1.5
			c-1.6,0.5-3.2,0.9-5.9,1.4c-0.4,0.1-0.4,0.1-0.7,0.1l-0.3-1.7c0.5,0,1.1-0.1,2.1-0.3v-3.7h-0.8c-0.6,0-1,0-1.5,0.1v-1.6
			c0.3,0.1,0.9,0.1,1.6,0.1h0.8v-4.7c0-0.8,0-1.1-0.1-1.5c0.5,0.1,0.9,0.1,1.6,0.1h6.7c0.9,0,1.3,0,1.7-0.1v1.6
			c-0.5-0.1-0.8-0.1-1.7-0.1h-6.6v0.8h6.4c0.6,0,1.1,0,1.4-0.1v1.4c-0.3,0-1-0.1-1.4-0.1h-6.4v0.7h6.4c0.6,0,1.1,0,1.4-0.1v1.4
			c-0.4-0.1-0.8-0.1-1.4-0.1h-6.4v0.8h8c0.7,0,1.1,0,1.5-0.1v1.6c-0.4-0.1-0.8-0.1-1.3-0.1h-1.4L105.5,4116.9z M100.3,4116.1
			c0.4,0.8,0.8,1.2,1.6,1.7c0.8-0.5,1.6-1.2,2-1.7H100.3z"/>
	</g>
	<g class="st0">
		<path class="st2" d="M117.7,4046.6c0-0.7,0-1.2-0.1-1.6h1.6c-0.1,0.4-0.1,0.8-0.1,1.6v1.8h0.3c0.5,0,0.7,0,0.9-0.1v1.5
			c-0.3,0-0.5-0.1-1-0.1h-0.3v3.8c0.5-0.3,0.7-0.3,1.3-0.6l0,1.5c-1.3,0.7-2,1-3.5,1.6c-0.4,0.2-0.5,0.2-0.7,0.3l-0.3-1.6
			c0.4-0.1,0.8-0.2,1.7-0.5v-4.4h-0.3c-0.5,0-0.8,0-1.1,0.1v-1.5c0.3,0.1,0.5,0.1,1.1,0.1h0.3V4046.6z M122.7,4055.5
			c0,0.3,0.1,0.4,0.4,0.4c0.4,0.1,0.9,0.1,1.9,0.1c1.7,0,2.1-0.1,2.3-0.4c0.2-0.2,0.3-0.7,0.3-1.7c0.4,0.2,1,0.4,1.5,0.5
			c-0.2,2.8-0.5,3-4.5,3c-2.8,0-3.4-0.3-3.4-1.5v-4.8c-0.1,0-0.2,0.1-0.3,0.1c-0.4,0.1-0.6,0.2-0.9,0.3l-0.4-1.5
			c0.4-0.1,0.9-0.2,1.4-0.3l0.1,0v-1.9c0-0.7,0-1-0.1-1.5h1.7c-0.1,0.4-0.1,0.9-0.1,1.4v1.5l1.4-0.4v-2.4c0-0.6,0-0.9-0.1-1.4h1.6
			c-0.1,0.5-0.1,0.9-0.1,1.4v2l2-0.6c0.5-0.2,0.8-0.3,1.1-0.4c0,0.6,0,0.7-0.1,1.5c-0.1,2-0.2,3.2-0.3,3.9c-0.2,0.8-0.6,1-1.6,1
			c-0.2,0-0.3,0-0.7,0c-0.1-0.6-0.2-1-0.4-1.4c0.3,0.1,0.6,0.1,0.8,0.1c0.3,0,0.4-0.1,0.5-0.3c0.1-0.5,0.1-1.3,0.2-2.7l-1.6,0.5v3.5
			c0,0.6,0,1,0.1,1.4H124c0.1-0.5,0.1-0.8,0.1-1.4v-3l-1.4,0.4V4055.5z"/>
		<path class="st2" d="M142.8,4057.1c-0.4-0.1-0.8-0.1-1.5-0.1h-8.9v0.7h-1.7c0.1-0.5,0.1-0.9,0.1-1.6v-9.2c0-0.6,0-1-0.1-1.5
			c0.5,0.1,0.9,0.1,1.5,0.1h8.7c0.8,0,1.2,0,1.7-0.1v1.6c-0.5-0.1-0.9-0.1-1.6-0.1h-8.6v8.6h8.9c0.8,0,1.2,0,1.5-0.1V4057.1z
			 M140.7,4055c-1.3-1.3-1.9-1.9-2.9-2.8c-1.3,1.3-2.2,2-4,3c-0.3-0.4-0.7-0.8-1.1-1.2c1.6-0.9,2.8-1.7,3.9-2.8
			c-1-0.8-1.9-1.4-3.2-2.2l1.1-1.1c1.9,1.2,1.9,1.2,3.2,2.2c0.9-1.1,1.6-2.3,1.8-3l1.5,0.7c-0.2,0.3-0.2,0.3-0.4,0.7
			c-0.5,1-1,1.7-1.7,2.5c1.1,0.9,1.9,1.6,3.1,2.7L140.7,4055z"/>
		<path class="st2" d="M155.6,4053.1c-0.1,0.1-0.3,0.2-0.8,0.7c-0.4,0.3-0.8,0.6-1.3,1c1.2,0.6,2.3,1,3.7,1.2
			c-0.3,0.5-0.5,0.9-0.7,1.6c-2.1-0.5-3.7-1.3-5-2.4c-1-0.9-1.6-1.6-2.1-2.8H148v3.2c1.2-0.3,1.8-0.4,2.8-0.8l0,1.4
			c-1.5,0.5-3,0.9-5.5,1.3c-0.3,0.1-0.4,0.1-0.6,0.1l-0.3-1.6c0.4,0,1.1-0.1,2-0.3v-3.5h-0.8c-0.6,0-1,0-1.4,0.1v-1.5
			c0.3,0.1,0.8,0.1,1.5,0.1h0.7v-4.4c0-0.8,0-1-0.1-1.4c0.4,0.1,0.8,0.1,1.5,0.1h6.3c0.8,0,1.2,0,1.6-0.1v1.5
			c-0.4-0.1-0.8-0.1-1.6-0.1H148v0.7h5.9c0.6,0,1,0,1.3-0.1v1.3c-0.3,0-0.9-0.1-1.3-0.1H148v0.7h5.9c0.6,0,1,0,1.3-0.1v1.3
			c-0.4-0.1-0.7-0.1-1.3-0.1H148v0.7h7.5c0.6,0,1,0,1.4-0.1v1.5c-0.3-0.1-0.8-0.1-1.3-0.1h-1.3L155.6,4053.1z M150.8,4052.4
			c0.4,0.7,0.8,1.1,1.5,1.6c0.7-0.5,1.5-1.1,1.9-1.6H150.8z"/>
	</g>
	<path id="パス_25" class="st3" d="M-95.6,4255.2c0,0,83.9-21.7,150.9-67.1c67-45.5,117.1-114.7,117.1-114.7"/>
	<ellipse id="楕円形_35" class="st2" cx="-93.4" cy="4254.1" rx="5" ry="4.5"/>
	<ellipse id="楕円形_37" class="st2" cx="40.1" cy="4196.6" rx="4.5" ry="4"/>
	<ellipse id="楕円形_38" class="st2" cx="-24.4" cy="4230.6" rx="5" ry="4"/>
	<circle id="楕円形_39" class="st2" cx="106.1" cy="4146.1" r="4.5"/>
	<ellipse id="楕円形_36" class="st2" cx="171.1" cy="4074.6" rx="4.5" ry="4"/>
	<line id="線_9" class="st4" x1="106" y1="4143.9" x2="106" y2="4260.2"/>
	<line id="線_12" class="st4" x1="171" y1="4083.4" x2="171" y2="4260.2"/>
	<line id="線_10" class="st4" x1="40.4" y1="4200.5" x2="40.4" y2="4260.2"/>
	<line id="線_11" class="st4" x1="-24.6" y1="4233.5" x2="-24.6" y2="4260.2"/>
	<path id="パス_27" class="st5" d="M171,4075.2l22.9-30.4"/>
	<path id="パス_26" class="st6" d="M186,4044.9l10.6-3.8l-0.6,9.4"/>
	<line id="線_56" class="st7" x1="-92.9" y1="4260.1" x2="197.1" y2="4260.1"/>
</g>
</svg>
